{"glyphs":{"0":{"ha":210,"x_min":13,"x_max":196,"o":"m 64 413 q 139 360 106 397 q 185 276 172 322 q 196 188 196 235 q 184 101 196 140 q 149 34 172 61 q 92 6 126 7 q 59 15 72 6 q 36 40 46 25 q 22 74 26 56 q 15 108 17 92 q 13 183 13 143 q 19 261 13 224 q 41 330 26 299 q 81 379 56 361 l 56 392 l 56 389 q 43 381 50 381 q 33 392 36 381 q 64 413 38 422 m 169 133 q 165 276 179 224 q 101 368 150 329 q 70 338 82 356 q 51 302 58 321 q 41 263 44 283 q 36 224 38 243 q 34 176 35 208 q 38 110 33 143 q 56 51 43 76 q 93 26 68 26 q 142 60 119 28 q 169 133 165 93 z "},"1":{"ha":104,"x_min":36,"x_max":89,"o":"m 36 419 q 47 430 39 431 q 57 421 54 429 q 65 206 58 313 q 89 -8 71 99 q 79 -20 89 -19 q 67 -10 69 -21 q 43 205 49 99 q 36 419 38 311 z "},"2":{"ha":333,"x_min":7,"x_max":332,"o":"m 43 340 q 28 340 35 333 q 28 356 22 347 q 49 375 40 367 q 74 393 58 383 q 121 416 97 411 q 160 414 144 421 q 182 388 176 407 q 176 338 188 368 q 152 283 167 310 q 121 231 138 257 q 88 178 104 206 q 57 124 71 151 q 46 99 53 114 q 37 71 39 85 q 39 46 35 57 q 61 32 43 35 q 124 45 90 35 q 192 69 157 56 q 259 98 226 82 q 317 128 292 114 q 330 120 328 128 q 322 107 332 113 q 266 78 301 94 q 192 47 231 63 q 119 22 154 32 q 61 11 83 11 q 35 18 50 11 q 15 36 21 25 q 19 89 7 56 q 51 160 31 122 q 97 238 72 199 q 139 307 122 276 q 161 374 164 353 q 140 397 158 394 q 93 383 121 399 q 43 340 65 368 z "},"3":{"ha":229,"x_min":0,"x_max":218,"o":"m 21 365 q 6 367 13 360 q 6 381 0 374 q 69 404 35 399 q 140 409 115 414 q 172 389 164 404 q 176 351 181 374 q 160 304 172 329 q 131 255 149 279 q 99 211 114 231 q 155 195 124 201 q 203 168 186 189 q 215 125 218 149 q 198 81 213 101 q 161 44 183 60 q 118 23 139 28 q 81 28 97 18 q 63 67 65 38 q 71 81 60 79 q 85 71 82 82 q 93 46 85 54 q 127 49 107 40 q 164 74 147 58 q 190 109 181 90 q 193 142 199 128 q 174 164 189 156 q 142 178 160 172 q 105 188 124 183 q 75 199 86 192 q 74 217 69 208 q 100 249 85 229 q 128 291 115 269 q 149 333 142 313 q 153 367 157 353 q 131 388 150 382 q 74 385 113 393 q 47 377 60 382 q 21 365 33 372 z "},"4":{"ha":251,"x_min":7,"x_max":243,"o":"m 229 203 q 242 193 240 203 q 232 182 243 183 q 213 176 225 181 q 185 167 201 172 q 188 88 188 126 q 190 8 189 49 q 181 -3 190 -3 q 168 7 171 -4 q 166 85 167 46 q 164 163 165 124 q 122 153 144 157 q 80 148 100 149 q 42 151 60 147 q 13 167 24 156 q 7 181 7 174 q 35 226 17 203 q 75 273 54 250 q 116 317 96 296 q 147 358 136 339 q 143 403 144 381 q 144 444 142 425 q 160 454 146 457 q 182 417 182 444 q 179 385 182 399 q 171 357 176 371 q 179 261 176 299 q 183 190 182 224 q 208 198 197 196 q 229 203 219 200 m 31 179 q 53 168 39 171 q 85 167 68 165 q 123 174 103 169 q 163 185 143 179 q 158 253 160 219 q 153 322 156 288 l 153 324 q 124 288 140 306 q 90 251 107 271 q 72 230 82 242 q 53 207 63 218 q 31 179 42 193 z "},"5":{"ha":247,"x_min":11,"x_max":236,"o":"m 169 394 q 121 399 146 396 q 79 389 96 403 q 54 351 64 376 q 40 296 44 325 q 38 239 36 267 q 47 193 39 211 q 99 193 74 190 q 151 193 125 196 q 208 176 189 189 q 232 145 228 163 q 228 108 236 128 q 203 69 219 88 q 160 37 185 50 q 108 21 135 24 q 57 28 82 18 q 14 63 32 38 q 17 77 11 72 q 31 75 24 82 q 81 42 49 46 q 142 49 113 38 q 192 85 171 61 q 211 136 213 108 q 199 159 210 151 q 172 169 188 167 q 140 172 156 172 q 114 172 124 172 q 81 170 94 172 q 56 169 67 168 q 36 176 44 169 q 21 199 28 182 q 14 247 14 215 q 20 310 14 278 q 38 371 26 343 q 65 410 49 399 q 105 418 81 419 q 168 417 129 417 q 183 407 186 417 q 169 394 181 397 z "},"6":{"ha":253,"x_min":22,"x_max":236,"o":"m 40 413 q 53 424 43 425 q 63 411 64 422 q 53 320 58 368 q 46 229 49 272 q 44 152 43 186 q 51 103 44 118 q 85 161 65 133 q 128 206 106 189 q 175 224 151 222 q 219 206 199 226 q 236 167 236 189 q 226 123 236 146 q 197 78 215 100 q 156 42 178 57 q 111 23 133 28 q 71 28 89 18 q 50 49 58 35 q 36 79 42 63 q 28 113 31 96 q 25 144 26 129 q 25 220 22 181 q 31 296 28 260 q 37 363 33 332 q 40 413 40 393 m 61 69 q 85 47 71 51 q 115 46 100 42 q 144 60 129 50 q 169 82 158 71 q 194 111 183 96 q 210 142 206 126 q 213 171 215 157 q 199 196 211 185 q 166 202 188 207 q 114 164 144 197 q 84 122 99 147 q 61 69 69 97 z "},"7":{"ha":208,"x_min":6,"x_max":192,"o":"m 21 357 q 7 363 8 354 q 14 378 6 372 q 86 401 53 385 q 156 425 119 417 q 185 417 178 429 q 192 388 192 406 q 187 351 192 369 q 181 326 182 333 q 144 208 161 267 q 115 86 126 149 q 111 67 114 79 q 107 41 108 54 q 107 17 106 28 q 117 0 108 6 q 117 -15 122 -8 q 103 -17 113 -21 q 88 5 92 -8 q 85 33 85 18 q 89 64 86 49 q 93 90 92 79 q 111 160 97 113 q 140 257 125 207 q 163 349 154 307 q 167 401 172 390 q 135 399 153 404 q 97 385 117 393 q 57 368 76 376 q 21 357 38 360 z "},"8":{"ha":285,"x_min":7,"x_max":279,"o":"m 15 281 q 22 347 7 317 q 64 395 36 376 q 126 419 92 414 q 192 410 161 424 q 204 433 197 418 q 215 456 211 447 q 226 463 219 465 q 235 454 232 461 q 176 333 213 389 q 103 221 140 276 q 159 190 125 208 q 222 150 193 172 q 265 103 250 128 q 265 56 279 79 q 217 13 247 26 q 151 -3 188 0 q 117 -3 135 -4 q 83 4 99 -1 q 54 19 67 8 q 33 43 42 29 q 24 132 8 88 q 69 217 40 176 q 35 246 50 231 q 15 281 21 261 m 246 67 q 238 106 251 88 q 202 140 225 124 q 149 171 179 156 q 93 203 119 186 q 58 153 75 179 q 40 97 40 128 q 72 36 42 54 q 139 17 101 18 q 208 31 176 17 q 246 67 240 44 m 185 389 q 166 395 176 392 q 135 399 156 399 q 96 390 115 399 q 60 365 76 381 q 37 329 44 349 q 36 289 29 310 q 54 258 42 269 q 82 235 67 247 q 106 265 94 250 q 128 296 118 281 q 148 328 139 311 q 168 360 157 344 l 185 389 z "},"9":{"ha":232,"x_min":13,"x_max":201,"o":"m 13 263 q 28 307 13 285 q 69 346 44 329 q 122 370 93 363 q 174 369 150 378 l 179 413 q 191 425 183 429 q 201 413 199 421 l 201 411 q 198 365 199 386 q 190 314 197 344 q 185 245 188 285 q 179 164 182 206 q 174 83 176 122 q 172 15 172 44 q 160 6 171 3 q 150 22 150 8 q 152 74 150 43 q 157 140 154 106 q 162 206 160 174 q 165 261 164 239 q 123 219 149 235 q 73 203 97 204 q 31 216 49 201 q 13 263 13 231 m 172 347 q 130 353 153 358 q 86 335 107 349 q 51 302 65 321 q 33 265 36 283 q 44 234 31 243 q 76 227 57 225 q 115 240 96 229 q 146 269 135 251 q 158 292 153 281 q 168 314 164 303 l 172 347 z "},"\u0000":{"ha":0,"x_min":0,"x_max":0,"o":""},"\r":{"ha":232,"x_min":0,"x_max":0,"o":""}," ":{"ha":232,"x_min":0,"x_max":0,"o":""},"m":{"ha":497,"x_min":25,"x_max":489,"o":"m 47 329 q 61 336 53 336 q 67 325 69 336 q 53 272 58 310 q 47 192 49 235 q 48 112 46 150 q 56 57 50 74 q 92 155 76 106 q 135 249 107 204 q 144 257 139 254 q 154 253 149 260 q 164 195 160 229 q 176 127 168 161 q 201 67 185 93 q 246 32 217 40 q 286 49 271 25 q 310 106 301 72 q 321 172 318 139 q 324 219 324 206 q 333 232 324 228 q 346 225 342 236 q 354 165 347 197 q 376 108 361 133 q 416 70 392 83 q 476 65 440 57 q 488 58 489 68 q 476 44 488 47 q 426 42 449 38 q 388 58 404 46 q 360 90 371 71 q 340 132 349 110 q 332 93 339 114 q 314 54 325 72 q 285 24 303 36 q 246 13 268 13 q 197 36 215 13 q 166 92 178 60 q 148 158 154 124 q 138 217 142 193 q 119 168 126 193 q 103 118 111 143 q 84 70 94 93 q 57 28 74 47 q 40 31 44 18 q 29 92 33 50 q 26 180 25 133 q 31 268 26 226 q 47 329 36 310 z "},"f":{"ha":285,"x_min":0,"x_max":282,"o":"m 19 151 q 9 158 11 156 q 15 174 7 161 q 33 178 26 176 q 50 182 39 179 q 55 324 50 254 q 67 464 60 394 q 72 518 67 481 q 90 592 78 556 q 123 652 103 628 q 172 664 143 676 q 219 618 199 653 q 253 536 240 583 q 268 437 265 489 q 261 340 271 385 q 237 285 254 313 q 194 233 219 257 q 137 192 168 210 q 72 164 106 174 q 73 119 74 139 q 75 75 72 99 q 149 60 111 76 q 216 15 186 43 q 264 -50 246 -14 q 279 -122 282 -86 q 264 -170 276 -143 q 233 -219 251 -197 q 190 -249 214 -240 q 140 -242 165 -258 q 100 -187 115 -224 q 75 -107 85 -150 q 60 -22 65 -64 q 54 49 56 19 q 44 45 49 47 q 32 40 39 43 q 35 28 39 36 q 22 19 31 19 q 11 21 15 21 q 4 28 7 21 q 5 45 0 38 q 19 58 10 53 q 38 66 28 63 q 53 71 47 69 q 51 114 51 94 q 50 157 50 133 l 19 151 m 82 374 q 74 190 74 282 q 180 249 132 210 q 240 343 228 288 q 248 425 249 378 q 238 517 247 472 q 209 596 228 561 q 163 642 190 631 q 121 613 136 644 q 97 537 106 582 q 86 446 89 492 q 82 374 83 400 m 244 -160 q 251 -80 263 -118 q 212 -12 240 -42 q 146 35 183 18 q 75 51 108 53 q 78 14 75 42 q 87 -49 81 -14 q 103 -121 93 -85 q 126 -184 113 -157 q 158 -222 140 -211 q 199 -217 176 -233 q 226 -192 214 -207 q 244 -160 238 -176 z "},"o":{"ha":164,"x_min":7,"x_max":150,"o":"m 18 146 q 42 195 26 169 q 75 232 58 221 q 83 249 72 239 q 99 250 93 258 q 123 217 114 235 q 139 178 132 199 q 145 112 150 139 q 126 69 140 85 q 90 51 111 54 q 49 57 69 49 q 17 87 28 64 q 18 146 7 110 m 53 81 q 105 77 88 64 q 125 117 122 90 q 119 172 128 143 q 96 217 111 201 q 65 194 81 213 q 41 153 50 175 q 33 110 32 131 q 53 81 35 89 z "},"p":{"ha":236,"x_min":4,"x_max":226,"o":"m 4 269 q 11 283 4 278 q 24 279 18 288 q 36 191 31 239 q 46 103 42 143 q 58 156 47 124 q 86 217 69 189 q 124 263 103 246 q 169 269 146 279 q 217 215 207 254 q 213 135 226 175 q 165 68 199 96 q 85 49 132 40 q 76 58 74 49 q 85 69 78 67 q 153 82 125 60 q 194 138 182 104 q 198 203 206 171 q 158 249 190 236 q 112 218 132 246 q 79 149 92 190 q 61 60 67 108 q 57 -31 56 13 q 78 -265 71 -146 q 67 -276 76 -276 q 57 -269 58 -276 q 31 -1 42 -136 q 4 269 21 135 z "},"h":{"ha":269,"x_min":14,"x_max":261,"o":"m 14 481 q 24 494 14 490 q 36 488 33 499 q 42 294 36 390 q 60 101 49 199 l 60 104 q 60 101 60 108 q 63 89 61 93 q 78 145 69 118 q 101 199 86 172 q 128 228 114 224 q 154 226 142 233 q 180 203 167 218 q 206 170 193 188 q 230 139 218 153 q 253 121 242 125 q 256 108 261 115 q 243 101 251 101 q 211 124 228 107 q 180 161 194 142 q 153 196 165 181 q 138 211 142 211 q 96 137 106 179 q 74 51 86 94 q 60 43 69 43 q 46 50 51 43 q 21 265 28 157 q 14 481 14 372 z "},"d":{"ha":182,"x_min":7,"x_max":211,"o":"m 147 211 q 154 192 156 201 q 149 179 153 182 q 151 134 150 156 q 154 92 151 113 q 159 63 156 83 q 168 23 163 43 q 181 -12 174 3 q 196 -22 188 -26 q 209 -24 207 -15 q 203 -40 211 -33 q 170 -37 183 -53 q 149 4 157 -21 q 138 54 142 29 q 135 85 135 79 q 131 111 132 96 q 128 139 129 126 q 107 108 121 122 q 77 88 93 93 q 44 86 61 82 q 18 111 28 90 q 14 156 7 133 q 39 194 21 178 q 81 220 57 211 q 126 225 104 229 l 114 511 q 123 519 118 517 q 132 515 128 522 q 139 449 136 490 q 143 363 142 408 q 146 277 144 318 q 147 211 147 236 m 82 111 q 113 153 103 131 q 128 201 124 175 q 93 201 113 206 q 58 184 74 196 q 35 156 43 172 q 35 121 26 139 q 54 104 42 108 q 82 111 67 100 z "},"n":{"ha":279,"x_min":22,"x_max":274,"o":"m 40 244 q 51 256 43 253 q 61 249 58 260 q 53 158 58 204 q 49 67 49 113 q 72 115 61 89 q 95 162 83 140 q 119 199 107 183 q 146 215 131 214 q 179 200 161 217 q 221 142 197 183 q 242 106 232 124 q 267 74 253 89 q 265 58 274 65 q 249 57 256 50 q 225 92 238 69 q 199 137 213 115 q 171 175 186 158 q 139 192 156 192 q 112 159 122 178 q 93 120 101 140 q 76 80 85 100 q 53 43 67 60 q 40 38 47 38 q 29 46 32 38 q 29 146 22 94 q 40 244 36 197 z "},"i":{"ha":108,"x_min":39,"x_max":72,"o":"m 47 253 q 58 263 50 260 q 68 256 67 267 q 64 152 67 203 q 60 49 61 101 q 48 35 57 39 q 39 44 39 32 q 43 149 40 97 q 47 253 46 200 m 67 396 q 65 381 72 389 q 50 378 57 372 q 50 392 42 383 q 67 396 58 401 z "},"l":{"ha":106,"x_min":36,"x_max":67,"o":"m 44 563 q 56 574 47 571 q 67 567 64 578 q 62 308 65 436 q 57 50 58 181 q 46 38 56 42 q 36 47 36 35 q 40 306 38 178 q 44 563 43 433 z "},"q":{"ha":229,"x_min":-78,"x_max":499,"o":"m 196 -103 q 269 -91 231 -94 q 346 -88 308 -87 q 415 -94 383 -89 q 469 -110 447 -100 q 492 -129 486 -117 q 498 -155 499 -142 q 492 -181 497 -168 q 478 -204 486 -194 q 431 -243 461 -222 q 367 -281 401 -264 q 297 -308 332 -299 q 236 -314 263 -318 q 203 -288 215 -311 q 184 -235 190 -265 q 176 -176 178 -206 q 174 -128 175 -146 q 78 -156 126 -139 q -14 -196 31 -172 q -27 -217 -15 -211 q -51 -224 -39 -224 q -71 -220 -64 -225 q -67 -207 -78 -215 q 47 -148 -14 -169 q 174 -108 107 -126 q 177 22 174 -57 q 183 181 181 101 q 160 145 176 168 q 122 102 143 122 q 79 70 101 82 q 40 68 57 58 q 13 112 11 83 q 31 167 14 140 q 74 215 47 194 q 122 238 100 236 q 148 235 132 238 q 175 225 164 232 q 185 264 182 243 q 184 317 185 290 q 186 371 183 343 q 198 379 189 378 q 210 374 207 381 l 210 369 l 207 217 q 204 155 206 183 q 201 92 203 126 q 199 11 200 57 q 196 -103 197 -35 m 197 -124 q 198 -173 197 -146 q 203 -225 199 -200 q 219 -269 208 -250 q 246 -292 229 -287 q 301 -285 265 -296 q 371 -257 336 -275 q 434 -217 406 -239 q 470 -174 463 -194 q 458 -135 478 -153 q 375 -111 438 -118 q 288 -110 333 -106 q 197 -124 242 -114 m 38 96 q 73 89 53 79 q 112 118 93 99 q 146 161 131 138 q 165 197 161 185 q 121 215 147 222 q 72 187 94 208 q 38 138 50 165 q 38 96 26 111 z "},"u":{"ha":188,"x_min":22,"x_max":172,"o":"m 22 224 q 31 238 22 233 q 43 231 40 242 q 44 197 43 222 q 47 147 44 172 q 56 99 50 121 q 72 76 61 78 q 90 87 81 76 q 107 113 99 97 q 123 147 115 129 q 135 178 131 164 q 135 222 135 201 q 138 256 136 242 q 154 267 140 271 q 166 233 167 257 q 157 182 165 210 q 160 103 157 142 q 171 51 164 65 q 165 38 172 43 q 151 39 158 32 q 141 76 144 53 q 136 128 138 100 q 106 81 122 101 q 74 56 89 61 q 45 67 58 51 q 26 129 32 83 q 23 176 24 153 q 22 224 22 200 z "},"v":{"ha":199,"x_min":13,"x_max":183,"o":"m 13 242 q 22 256 13 251 q 33 249 31 260 q 42 202 35 232 q 58 141 49 172 q 77 83 67 110 q 97 47 88 57 q 128 93 115 58 q 148 168 140 128 q 159 247 156 208 q 164 307 163 286 q 174 316 167 315 q 183 306 182 317 q 176 231 181 274 q 163 148 172 189 q 138 72 154 107 q 96 19 122 38 q 85 22 89 15 q 60 68 72 36 q 37 135 47 100 q 19 201 26 171 q 13 242 13 232 z "},"w":{"ha":433,"x_min":21,"x_max":415,"o":"m 21 264 q 31 279 21 275 q 42 271 40 283 q 44 220 42 254 q 50 149 46 186 q 63 81 54 113 q 83 38 71 49 q 112 42 94 26 q 153 118 129 58 q 161 140 157 129 q 168 163 165 151 q 177 173 171 169 q 189 169 183 176 q 211 131 200 150 q 238 93 222 111 q 261 66 249 79 q 288 43 274 53 q 333 38 313 26 q 367 72 353 49 q 388 122 381 94 q 393 168 394 150 q 390 192 393 176 q 381 224 388 207 q 366 256 375 240 q 344 279 357 271 q 340 294 333 285 q 356 300 346 303 q 382 269 371 289 q 401 228 393 250 q 412 185 408 207 q 414 144 415 163 q 397 81 413 113 q 356 31 381 49 q 302 14 332 13 q 243 49 272 15 q 210 90 226 68 q 182 136 194 113 q 172 110 178 126 q 161 86 165 94 q 133 40 150 61 q 99 12 117 19 q 66 13 82 4 q 40 58 50 22 q 24 161 26 110 q 21 264 21 213 z "},"z":{"ha":242,"x_min":13,"x_max":228,"o":"m 26 225 q 13 228 13 221 q 22 243 13 236 q 76 261 40 253 q 146 271 113 269 q 211 263 194 274 q 224 235 228 253 q 202 192 221 217 q 161 143 183 168 q 119 95 139 118 q 92 57 99 72 q 114 44 100 47 q 144 44 128 42 q 178 50 161 46 q 208 57 196 54 q 216 56 214 58 q 217 49 218 53 q 213 42 217 46 q 204 38 210 39 q 167 28 188 33 q 126 22 146 24 q 90 25 106 21 q 67 42 74 29 q 80 75 63 50 q 122 128 97 100 q 169 181 146 156 q 196 217 192 207 q 196 244 204 235 q 170 254 188 253 q 130 252 153 256 q 85 244 107 249 q 47 233 64 239 q 26 225 31 228 z "},"y":{"ha":278,"x_min":-183,"x_max":318,"o":"m 14 208 q 18 222 11 215 q 32 224 25 229 q 75 165 54 196 q 122 111 96 135 l 125 111 q 136 144 132 126 q 143 182 140 163 q 134 247 138 214 q 132 315 131 281 q 142 328 133 326 q 153 322 150 329 q 156 288 154 310 q 159 240 157 265 q 165 187 161 214 q 174 136 168 160 q 192 68 182 101 q 211 3 201 35 l 261 15 q 269 10 268 17 q 264 -1 271 3 q 241 -8 253 -4 q 217 -14 229 -11 q 274 -187 244 -97 q 314 -356 303 -276 q 303 -431 318 -396 q 253 -488 289 -467 q 160 -512 218 -510 q 22 -490 103 -515 q -39 -462 -3 -483 q -108 -410 -75 -440 q -162 -344 -140 -379 q -181 -275 -183 -310 q -134 -172 -175 -215 q -37 -97 -93 -129 q 81 -43 19 -65 q 190 -4 142 -21 q 170 63 181 29 q 153 129 160 96 q 147 115 150 122 q 142 100 144 107 q 131 90 139 93 q 96 102 113 89 q 65 135 79 115 q 37 175 50 154 q 14 208 24 196 m 292 -362 q 281 -290 292 -332 q 256 -201 271 -247 q 226 -109 242 -156 q 197 -22 210 -62 q 102 -55 161 -33 q -15 -108 43 -76 q -114 -180 -72 -139 q -157 -271 -156 -221 q -142 -334 -157 -304 q -100 -389 -126 -364 q -41 -433 -74 -414 q 26 -467 -8 -453 q 109 -489 63 -482 q 197 -487 156 -496 q 265 -449 238 -478 q 292 -362 293 -419 z "},"g":{"ha":215,"x_min":-117,"x_max":393,"o":"m 199 168 q 192 152 201 158 q 179 157 183 146 q 163 192 175 182 q 186 66 169 124 q 218 -49 203 8 q 272 -33 243 -40 q 324 -23 300 -25 q 367 -26 349 -21 q 390 -46 385 -31 q 384 -61 393 -54 q 369 -57 375 -68 q 345 -44 365 -44 q 301 -48 325 -43 q 256 -60 278 -53 q 225 -68 233 -67 q 244 -131 233 -96 q 266 -206 256 -167 q 282 -287 276 -246 q 285 -367 288 -328 q 260 -453 281 -418 q 205 -508 239 -487 q 127 -532 171 -528 q 35 -525 83 -536 q -19 -508 7 -519 q -66 -479 -46 -496 q -99 -441 -86 -462 q -112 -394 -111 -419 q -89 -282 -117 -335 q -15 -185 -61 -229 q 88 -109 32 -142 q 196 -57 144 -76 q 167 40 181 -8 q 143 138 153 89 q 123 101 139 122 q 88 65 107 81 q 31 56 54 39 q 14 115 7 72 q 28 155 17 136 q 56 188 39 174 q 91 213 72 203 q 128 225 110 222 q 128 296 125 260 q 139 308 131 303 q 154 306 147 313 q 167 260 164 282 q 167 217 169 239 q 199 168 193 203 m 40 -501 q 118 -509 81 -511 q 185 -491 156 -507 q 235 -444 215 -475 q 261 -367 256 -414 q 261 -296 265 -332 q 248 -222 257 -260 q 226 -148 239 -185 q 203 -75 214 -111 q 108 -120 161 -87 q 7 -197 54 -153 q -69 -293 -40 -242 q -90 -396 -99 -344 q -45 -463 -83 -436 q 40 -501 -7 -490 m 138 165 q 133 184 135 175 q 131 204 132 193 q 64 168 86 192 q 36 121 42 144 q 35 101 33 111 q 42 83 36 90 q 56 74 47 75 q 76 81 64 72 q 138 165 101 100 z "},"j":{"ha":218,"x_min":-144,"x_max":210,"o":"m 42 275 q 47 291 39 285 q 61 288 54 297 q 96 187 81 240 q 122 101 111 133 l 190 161 q 204 163 199 168 q 203 147 210 157 q 165 115 183 132 q 128 81 147 97 q 153 -70 144 3 q 159 -205 161 -143 q 144 -314 157 -267 q 101 -385 131 -361 q 37 -406 79 -403 q -47 -397 -6 -410 q -117 -352 -89 -383 q -137 -267 -144 -321 q -119 -194 -132 -228 q -85 -131 -106 -161 q -41 -70 -65 -100 q 11 -8 -17 -40 q 56 39 33 17 q 103 85 78 61 q 73 186 89 132 q 42 275 57 240 m 101 -347 q 131 -267 122 -314 q 140 -165 140 -219 q 131 -53 139 -111 q 110 61 122 6 q -6 -56 49 4 q -93 -190 -60 -117 q -112 -244 -106 -217 q -114 -296 -118 -271 q -93 -342 -110 -321 q -43 -376 -76 -362 q -6 -386 -26 -383 q 35 -386 15 -389 q 73 -374 56 -383 q 101 -347 90 -365 m 14 364 q 6 374 3 365 q 19 385 10 383 q 38 374 43 383 q 14 364 33 364 z "},"k":{"ha":357,"x_min":21,"x_max":350,"o":"m 28 596 q 38 610 28 606 q 49 603 47 614 q 49 356 49 478 q 60 111 49 235 q 77 156 63 126 q 113 217 92 186 q 156 269 133 247 q 199 292 179 292 q 208 283 208 290 q 179 220 204 254 q 127 153 154 186 q 81 90 100 119 q 71 40 63 61 q 129 42 97 38 q 195 58 161 47 q 266 82 229 68 q 339 110 303 96 q 349 104 350 113 q 342 90 349 96 q 274 64 308 78 q 203 39 239 50 q 130 22 167 28 q 57 21 93 17 q 49 41 53 24 q 41 81 44 58 q 35 125 38 103 q 31 160 32 147 q 24 378 21 268 q 28 596 28 489 m 183 265 q 135 210 156 238 q 97 150 114 183 q 147 212 121 182 q 183 265 172 242 z "},"e":{"ha":172,"x_min":13,"x_max":160,"o":"m 14 140 q 24 185 15 163 q 46 222 32 207 q 76 244 60 238 q 111 240 93 250 q 144 202 140 225 q 133 159 147 179 q 94 124 119 139 q 38 111 68 110 q 72 80 46 88 q 147 100 99 72 q 159 94 160 103 q 151 81 158 86 q 103 60 129 68 q 51 65 78 53 q 24 88 36 72 q 14 140 13 104 m 100 219 q 72 219 85 225 q 51 199 60 213 q 37 169 42 186 q 32 135 32 151 q 77 138 57 128 q 109 163 97 147 q 119 194 121 178 q 100 219 118 211 z "},"t":{"ha":279,"x_min":8,"x_max":272,"o":"m 21 208 q 12 218 8 208 q 24 231 15 228 q 78 233 51 231 q 132 238 104 235 q 137 380 135 308 q 142 524 139 451 q 153 535 144 532 q 164 526 161 538 q 158 383 161 454 q 154 242 154 313 q 208 248 182 244 q 261 254 233 251 q 269 244 272 253 q 258 233 267 236 q 206 226 232 231 q 154 219 181 222 q 152 185 153 210 q 151 128 151 160 q 154 63 151 97 q 163 3 157 29 q 153 -10 161 -6 q 140 -4 144 -15 q 132 58 135 24 q 129 124 129 92 q 130 181 129 156 q 132 217 131 207 q 76 211 104 214 q 21 208 49 208 z "},"r":{"ha":268,"x_min":25,"x_max":264,"o":"m 25 306 q 35 319 25 315 q 47 313 44 324 q 47 194 47 253 q 58 75 47 135 q 83 153 71 121 q 116 206 96 186 q 168 237 136 226 q 253 250 200 247 q 261 239 264 247 q 250 228 258 231 q 158 212 188 225 q 116 176 129 199 q 95 119 103 153 q 69 40 88 85 q 60 31 67 33 q 49 38 53 28 q 25 171 25 103 q 25 306 25 239 z "},"a":{"ha":249,"x_min":10,"x_max":243,"o":"m 193 208 q 188 194 196 201 q 174 194 181 188 q 188 139 179 168 q 204 83 196 110 q 222 34 213 56 q 240 1 232 13 q 235 -13 243 -7 q 221 -12 228 -19 q 189 60 197 22 q 171 138 181 97 l 164 161 q 138 94 157 124 q 106 63 125 78 q 69 42 88 47 q 35 47 50 38 q 14 89 19 57 q 19 148 10 118 q 48 202 29 178 q 91 242 67 226 q 138 261 115 258 l 138 267 q 147 276 140 274 q 158 272 153 279 l 161 256 q 193 208 185 246 m 121 103 q 143 168 140 133 q 142 238 146 203 q 104 228 125 240 q 67 196 83 217 q 40 149 50 175 q 35 101 31 124 q 49 70 39 78 q 71 65 58 63 q 97 77 83 67 q 121 103 110 88 z "},"b":{"ha":310,"x_min":-11,"x_max":293,"o":"m 36 296 q 20 293 24 294 q 14 290 17 292 q -9 292 -7 283 q -4 310 -11 301 l 36 318 q 39 515 35 417 q 65 710 43 614 q 76 747 69 726 q 90 783 82 768 q 154 836 119 839 q 222 793 194 831 q 265 706 249 756 q 287 608 281 657 q 292 529 293 558 q 267 449 289 486 q 212 384 246 413 q 137 335 178 356 q 57 303 96 314 q 57 240 57 257 q 58 216 57 224 q 59 201 58 208 q 61 165 60 193 q 82 201 68 185 q 119 233 96 218 q 174 233 150 251 q 200 183 197 214 q 190 135 203 156 q 156 100 176 114 q 114 81 136 86 q 75 82 92 76 l 75 6 q 66 -6 75 -1 q 54 0 57 -11 q 44 84 47 42 q 39 171 40 126 q 38 209 38 200 q 38 226 38 218 q 37 247 38 233 q 36 296 36 260 m 164 810 q 118 789 136 815 q 88 717 100 763 q 70 615 76 672 q 61 501 64 557 q 58 397 58 444 q 57 324 57 349 q 130 351 94 333 q 194 393 165 368 q 244 451 224 418 q 269 526 264 485 q 267 588 272 544 q 249 679 263 632 q 215 765 236 726 q 164 810 193 803 m 146 217 q 117 204 133 218 q 90 172 101 190 q 76 133 79 153 q 85 104 74 114 q 113 101 93 97 q 149 119 132 106 q 176 152 167 132 q 175 196 186 172 q 164 210 172 204 q 146 217 156 217 z "},"Y":{"ha":394,"x_min":-6,"x_max":403,"o":"m 125 290 q 129 306 119 301 q 142 303 139 310 q 162 258 151 285 q 185 206 172 232 q 214 158 199 181 q 247 128 229 136 q 267 181 264 143 q 271 258 271 218 q 266 299 268 276 q 263 342 264 321 q 261 380 261 363 q 263 407 261 397 q 272 417 265 415 q 282 411 278 418 q 290 383 288 403 q 292 340 292 363 q 292 294 293 317 q 293 258 292 271 q 311 160 300 208 q 335 63 322 111 l 367 74 q 381 67 378 75 q 381 57 385 60 l 340 43 q 356 -16 347 14 q 375 -76 365 -46 q 397 -179 390 -133 q 392 -258 403 -225 q 350 -308 382 -290 q 256 -325 318 -325 q 201 -319 238 -325 q 122 -296 165 -314 q 43 -249 75 -276 q 3 -192 11 -222 q 13 -128 -6 -161 q 82 -62 31 -96 q 194 1 132 -31 q 314 56 256 32 q 301 114 307 85 q 288 172 294 143 q 283 154 286 167 q 274 130 279 142 q 260 110 268 118 q 243 106 253 101 q 200 143 219 117 q 165 198 181 169 q 140 253 150 226 q 125 290 129 279 m 363 -107 q 342 -36 353 -71 q 322 36 331 -1 q 250 4 286 21 q 184 -28 214 -12 q 131 -58 154 -44 q 96 -78 107 -71 q 28 -149 35 -114 q 42 -214 21 -185 q 102 -264 64 -243 q 168 -290 140 -285 q 287 -303 240 -307 q 356 -277 333 -300 q 380 -212 379 -254 q 363 -107 381 -169 z "},"A":{"ha":276,"x_min":0,"x_max":269,"o":"m 15 100 q 2 110 4 101 q 10 122 0 119 l 36 128 q 74 275 54 203 q 108 422 93 347 q 118 427 111 428 q 129 417 125 426 q 136 373 131 403 q 149 306 142 343 q 165 228 156 268 q 182 153 174 188 l 254 160 q 267 149 265 157 q 261 138 269 142 q 186 129 224 135 q 211 65 194 97 q 253 22 228 32 q 260 7 264 17 q 244 1 257 -3 q 164 128 193 19 q 110 119 136 124 q 57 110 85 115 l 31 3 q 17 -1 24 -3 q 10 10 11 1 q 19 51 13 22 q 32 103 26 79 l 15 100 m 61 135 q 110 142 85 139 q 158 149 135 146 q 133 257 143 201 q 118 349 124 313 l 61 135 z "},"B":{"ha":332,"x_min":-1,"x_max":324,"o":"m 36 368 q 44 378 38 378 q 54 375 50 379 q 56 376 54 375 q 131 436 93 436 q 182 367 168 436 q 170 284 189 322 q 131 213 151 246 q 186 226 156 222 q 244 228 217 231 q 292 215 272 225 q 317 183 313 204 q 294 101 324 144 q 220 26 265 57 q 125 -17 175 -6 q 40 -6 75 -29 q 21 19 28 3 q 4 49 14 35 q 14 64 -1 64 l 14 67 q 16 178 14 122 q 29 293 18 235 l 36 368 m 51 306 q 41 172 44 239 q 35 38 38 104 q 54 13 44 21 q 117 1 79 -8 q 190 35 154 11 q 256 91 226 60 q 293 144 285 122 q 292 181 303 168 q 263 201 281 194 q 228 208 249 207 q 187 206 208 210 q 147 197 165 203 q 115 181 128 190 q 106 169 113 172 q 96 169 100 167 q 91 178 92 171 q 99 196 90 185 q 121 236 108 217 q 142 276 133 256 q 157 317 151 296 q 160 364 163 339 q 153 389 158 376 q 138 408 147 401 q 119 415 129 415 q 96 401 108 414 q 51 306 64 364 z "},"C":{"ha":371,"x_min":4,"x_max":365,"o":"m 128 411 q 160 414 142 415 q 196 406 179 413 q 223 386 213 399 q 231 357 233 374 q 225 342 231 347 q 214 336 219 338 q 205 339 208 335 q 206 353 201 343 q 204 374 211 365 q 185 388 197 383 q 158 394 172 393 q 135 392 144 394 q 95 369 113 385 q 65 333 78 353 q 44 292 53 314 q 32 249 36 269 q 31 171 25 211 q 56 99 36 131 q 124 42 85 53 q 202 41 163 31 q 278 78 242 51 q 342 135 315 104 q 359 135 353 142 q 358 119 365 129 q 310 71 336 93 q 253 34 283 49 q 188 15 222 19 q 119 21 154 11 q 63 53 86 29 q 26 110 39 78 q 8 181 13 143 q 11 254 4 218 q 24 303 15 279 q 48 349 33 328 q 82 387 63 371 q 128 411 101 403 z "},"D":{"ha":411,"x_min":4,"x_max":406,"o":"m 4 51 q 9 148 7 100 q 14 244 11 196 q 13 347 11 300 q 31 410 14 393 q 44 423 38 417 q 57 431 50 429 q 89 424 68 433 q 131 401 110 414 q 171 374 153 388 q 197 356 189 360 q 247 322 215 343 q 310 275 279 300 q 367 224 342 250 q 396 175 392 197 q 378 92 406 129 q 308 33 351 56 q 213 3 264 10 q 121 13 161 -3 q 119 28 114 21 q 135 29 125 36 q 174 19 149 18 q 229 28 200 19 q 288 51 258 36 q 340 86 318 67 q 373 127 363 106 q 375 171 383 149 q 347 209 368 186 q 297 256 326 232 q 234 306 268 281 q 167 353 200 332 q 107 389 135 374 q 63 408 79 404 q 44 373 50 396 q 37 324 39 350 q 35 271 35 297 q 35 225 36 244 q 40 122 39 171 q 26 49 42 72 l 26 43 l 24 44 q 22 43 22 44 q 10 42 15 40 q 4 51 6 44 z "},"E":{"ha":300,"x_min":-1,"x_max":292,"o":"m 14 181 q 0 187 1 178 q 7 201 -1 196 l 44 217 q 39 321 36 269 q 68 407 42 372 q 98 418 75 415 q 147 421 121 421 q 197 419 172 421 q 229 418 221 418 q 239 407 239 415 q 228 396 239 399 q 190 397 211 396 q 147 399 168 399 q 108 398 125 400 q 83 390 90 396 q 63 328 67 375 q 67 225 60 281 q 167 255 117 243 q 269 279 218 267 q 283 272 281 279 q 276 258 285 264 q 172 234 224 246 q 68 203 119 222 q 79 146 72 174 q 94 95 86 118 q 112 56 103 72 q 132 33 121 39 q 165 32 144 26 q 206 47 185 38 q 246 68 226 57 q 276 85 265 79 q 289 77 286 85 q 282 64 292 69 q 245 43 264 54 q 207 24 226 32 q 167 12 188 15 q 124 14 146 8 q 92 44 104 19 q 75 83 79 68 q 61 135 68 106 q 49 196 54 164 l 14 181 l 14 181 z "},"F":{"ha":336,"x_min":3,"x_max":329,"o":"m 78 150 q 68 160 68 153 q 75 172 68 167 l 92 172 l 78 279 l 71 336 q 14 332 42 332 q 3 341 3 333 q 11 353 3 349 q 40 354 26 353 q 67 358 53 356 l 67 360 q 63 375 67 367 q 59 390 60 383 q 61 403 58 397 q 75 411 64 408 q 88 403 86 411 q 82 389 90 394 l 79 389 q 84 381 82 386 q 89 365 86 376 l 89 361 q 201 382 146 371 q 314 396 256 393 q 326 386 325 396 q 315 375 328 376 q 203 360 258 372 q 93 340 149 349 l 100 281 l 113 174 q 214 192 165 181 q 314 215 263 203 q 326 207 324 215 q 319 193 329 199 q 218 171 268 182 q 117 153 168 160 q 139 32 125 89 q 131 20 139 22 q 118 28 122 18 q 106 89 111 58 q 94 151 100 119 q 78 150 89 150 z "},"G":{"ha":271,"x_min":-1,"x_max":281,"o":"m 169 414 q 194 336 189 376 q 194 264 199 296 q 217 175 206 219 q 238 90 229 131 l 247 93 q 260 85 258 93 q 253 72 263 78 l 243 67 q 258 -2 250 33 q 272 -74 267 -37 q 279 -147 278 -111 q 275 -215 281 -182 q 248 -253 269 -242 q 198 -266 226 -265 q 138 -258 169 -267 q 85 -237 107 -250 q 49 -210 65 -226 q 20 -172 32 -193 q 3 -127 8 -151 q 6 -76 -1 -103 q 32 -29 11 -53 q 82 16 53 -6 q 146 55 111 38 q 217 83 181 72 l 190 210 l 186 225 q 163 174 178 199 q 127 135 147 150 q 83 119 107 121 q 33 135 58 117 q 16 157 22 143 q 8 187 10 171 q 7 217 6 203 q 11 239 8 231 q 32 290 19 265 q 63 332 44 314 q 102 360 81 350 q 151 367 124 369 l 154 367 q 150 407 150 385 q 159 418 153 415 q 169 414 165 421 m 239 -24 q 230 18 235 -3 q 222 60 225 39 q 151 31 189 47 q 82 -8 113 15 q 35 -63 51 -32 q 28 -137 18 -94 q 71 -199 36 -171 q 145 -238 106 -226 q 218 -238 185 -250 q 257 -181 251 -226 q 254 -101 261 -140 q 239 -24 247 -62 m 176 264 q 167 303 172 283 q 158 343 163 324 q 151 344 154 343 q 87 324 115 349 q 43 267 58 300 q 27 201 28 235 q 46 153 26 168 q 89 142 68 136 q 128 167 110 149 q 158 208 146 185 q 174 250 169 232 q 176 264 176 258 z "},"H":{"ha":353,"x_min":0,"x_max":347,"o":"m 17 424 q 28 435 19 435 q 39 425 36 435 q 48 301 40 363 q 63 178 56 240 q 170 196 115 189 q 279 206 225 203 q 272 320 275 264 q 267 435 268 376 q 277 445 269 446 q 288 436 285 444 q 293 322 289 378 q 301 207 297 265 q 317 208 310 208 q 333 208 325 208 q 346 199 344 208 q 336 186 347 189 q 319 186 328 186 q 304 185 311 186 q 310 88 307 136 q 314 -8 313 40 q 305 -20 314 -19 q 293 -10 296 -21 q 288 88 290 39 q 282 185 286 136 q 65 154 171 181 q 72 84 68 119 q 76 14 75 49 q 67 1 76 1 q 56 13 57 1 q 43 150 51 81 l 15 143 q 2 149 4 140 q 10 164 0 158 l 40 172 q 26 298 33 235 q 17 424 19 361 z "},"I":{"ha":403,"x_min":1,"x_max":397,"o":"m 13 -4 q 1 5 1 -3 q 10 17 1 13 q 91 19 50 17 q 172 26 132 22 q 156 218 160 122 q 153 410 153 314 q 85 401 118 404 q 17 396 51 397 q 7 406 7 399 q 14 418 7 413 q 51 419 32 418 q 103 425 71 421 q 183 436 135 429 q 307 456 232 443 q 319 446 318 456 q 310 433 321 436 q 242 424 275 429 q 174 411 208 418 q 178 220 174 315 q 193 29 182 125 q 288 42 242 35 q 383 56 335 49 q 396 46 394 56 q 385 33 397 36 q 291 19 338 26 q 196 7 244 13 q 186 -5 196 -4 q 174 4 176 -6 q 93 -1 133 1 q 13 -4 53 -4 z "},"J":{"ha":388,"x_min":1,"x_max":382,"o":"m 279 183 q 249 288 265 236 q 213 392 232 339 q 206 397 207 393 q 208 406 206 401 q 215 412 210 410 q 225 411 219 414 q 245 374 235 403 q 266 313 256 346 q 285 246 276 279 q 299 193 294 213 l 367 222 q 379 215 376 222 q 372 200 382 207 q 342 186 358 193 q 306 172 325 179 q 325 85 317 128 q 339 -3 333 42 q 342 -66 342 -31 q 333 -129 342 -101 q 283 -199 319 -179 q 201 -216 246 -219 q 111 -191 156 -212 q 38 -137 67 -169 q 6 -63 10 -104 q 38 18 1 -22 q 94 74 67 51 q 161 119 122 96 q 218 153 189 138 q 279 183 247 169 m 294 -164 q 319 -96 315 -137 q 319 -8 324 -54 q 303 84 314 39 q 285 163 293 129 q 202 122 244 144 q 123 72 160 99 q 60 16 86 46 q 29 -47 35 -14 q 38 -98 25 -74 q 75 -142 51 -122 q 130 -176 99 -162 q 192 -193 161 -189 q 250 -191 222 -197 q 294 -164 278 -185 z "},"K":{"ha":547,"x_min":0,"x_max":538,"o":"m 128 439 q 138 450 131 450 q 149 440 146 450 q 144 317 146 378 q 142 194 143 257 q 190 244 164 217 q 242 298 217 271 q 288 351 267 325 q 322 396 310 376 q 322 411 317 404 q 333 421 329 418 q 344 428 338 424 q 357 415 358 428 q 328 367 353 399 q 272 299 304 335 q 203 226 239 263 q 142 165 168 190 q 142 163 142 164 q 143 160 143 161 q 167 169 154 165 q 190 179 179 174 q 404 178 318 222 q 535 18 490 133 q 530 3 538 7 q 515 6 522 0 q 372 170 467 144 q 142 133 278 196 q 142 64 142 99 q 147 -15 142 29 q 138 -28 146 -26 q 126 -21 129 -29 q 121 49 121 13 q 119 119 121 85 q 93 98 107 110 q 66 76 79 86 q 38 60 53 65 q 8 57 24 54 q 4 71 0 61 q 19 88 6 76 q 48 111 32 99 q 78 135 64 124 q 97 151 93 147 l 119 172 q 122 306 121 239 q 128 439 124 372 z "},"L":{"ha":339,"x_min":1,"x_max":329,"o":"m 10 446 q 22 456 13 457 q 31 443 31 454 q 30 406 31 435 q 29 344 29 378 q 28 282 29 311 q 28 244 28 253 q 33 154 29 201 q 53 72 36 107 q 104 24 69 38 q 200 33 139 10 q 259 63 232 46 q 314 94 286 79 q 327 87 325 94 q 321 74 329 79 q 265 42 293 58 q 208 14 238 25 q 103 1 143 -12 q 40 51 63 14 q 10 143 18 89 q 2 254 3 197 q 5 363 1 311 q 10 446 8 414 z "},"M":{"ha":511,"x_min":4,"x_max":501,"o":"m 29 -26 q 17 -35 24 -37 q 8 -25 11 -32 q 5 -11 4 -18 q 15 -6 6 -4 q 72 126 54 56 q 106 267 90 197 l 106 268 q 113 327 110 297 q 119 386 117 357 q 119 408 119 397 q 122 428 119 418 l 122 436 l 124 435 l 124 436 q 137 442 129 444 q 144 429 144 439 q 144 401 144 414 q 142 372 143 388 q 149 302 143 340 q 162 227 154 264 q 179 158 169 190 q 197 107 189 126 q 207 86 201 99 q 221 62 213 74 q 240 43 229 50 q 263 40 250 36 q 302 67 286 46 q 327 119 318 89 q 341 187 336 150 q 346 260 346 224 q 338 331 340 294 q 336 403 336 367 q 347 414 339 414 q 357 406 354 414 l 358 406 l 358 404 q 369 317 365 364 q 369 224 374 271 q 390 135 376 176 q 425 69 403 93 q 433 64 428 67 q 447 60 439 61 q 466 64 456 60 q 489 81 476 68 q 500 73 499 81 q 494 58 501 65 q 473 42 483 49 q 450 36 463 36 q 406 59 422 36 q 382 103 389 82 q 372 138 376 121 q 363 172 367 154 q 343 106 357 140 q 297 32 322 51 q 246 19 271 13 q 199 57 221 26 q 164 133 178 88 q 145 211 153 172 q 132 282 138 250 q 96 122 121 200 q 29 -26 71 43 z "},"N":{"ha":435,"x_min":0,"x_max":429,"o":"m 22 388 q 33 397 24 399 q 43 385 43 396 q 38 301 42 343 q 29 218 33 260 q 23 135 25 176 q 25 51 21 93 q 64 131 47 88 q 95 217 81 174 q 124 301 110 261 q 156 371 138 340 q 169 374 164 376 q 185 356 179 369 q 194 324 192 342 q 199 288 197 306 q 203 258 201 269 q 222 163 211 207 q 255 92 233 118 q 313 64 276 65 q 407 99 349 63 q 424 99 418 106 q 422 83 429 93 q 383 58 406 68 q 336 45 360 49 q 290 46 313 42 q 253 63 268 50 q 203 146 219 92 q 182 257 188 200 q 177 303 179 281 q 167 349 175 326 q 158 328 165 349 q 139 276 150 308 q 115 204 128 243 q 88 130 101 165 q 60 67 74 94 q 38 31 47 39 q 19 25 31 22 q 4 40 7 28 q 1 127 0 83 q 7 215 3 171 q 16 301 11 258 q 22 388 21 344 z "},"O":{"ha":340,"x_min":-3,"x_max":329,"o":"m 132 376 q 222 322 176 360 q 297 238 268 283 q 327 145 325 192 q 285 67 329 99 q 212 31 253 44 q 131 21 171 18 q 42 66 74 24 q 3 163 10 108 q 15 272 -3 218 q 75 350 33 325 l 81 354 q 79 356 79 354 q 74 365 76 361 q 75 376 72 369 q 98 384 82 385 q 132 376 114 383 m 136 42 q 203 51 168 40 q 267 81 238 61 q 302 151 304 110 q 275 233 300 193 q 210 306 250 274 q 131 353 169 339 q 100 339 113 346 q 86 332 88 332 q 37 260 53 307 q 26 165 21 213 q 57 81 31 117 q 136 42 83 44 z "},"P":{"ha":271,"x_min":1,"x_max":257,"o":"m 25 368 q 35 380 28 378 q 44 378 42 382 l 49 390 q 67 410 54 403 q 93 419 79 417 q 119 419 107 421 q 138 417 131 418 q 180 397 157 410 q 221 365 203 383 q 248 319 239 346 q 251 258 257 293 q 222 203 244 229 q 167 157 200 176 q 63 114 115 128 q 65 92 63 110 q 69 56 67 75 q 72 21 71 36 q 74 4 74 6 q 61 -4 71 -3 q 49 1 51 -6 q 45 24 47 10 q 41 55 43 39 q 37 85 39 71 q 35 110 35 100 q 14 111 22 108 q 4 122 6 114 q 12 142 1 133 q 31 154 22 151 q 25 261 26 207 q 25 368 24 315 m 68 382 q 56 342 58 369 q 53 281 53 315 q 56 208 53 246 q 61 135 58 169 q 139 163 100 142 q 203 212 178 183 q 234 274 229 240 q 210 343 239 308 q 185 365 203 351 q 147 389 168 379 q 103 399 125 399 q 68 382 82 400 m 28 132 q 31 131 31 132 q 32 131 31 131 q 31 136 32 135 l 28 132 z "},"Q":{"ha":314,"x_min":0,"x_max":324,"o":"m 57 376 q 96 403 71 393 q 147 413 121 413 q 192 402 172 413 q 214 367 211 392 q 203 357 211 357 q 192 368 194 357 q 181 385 192 378 q 156 393 171 392 q 122 390 140 394 q 88 375 104 386 q 86 374 86 375 q 183 359 135 369 q 267 313 231 349 q 296 256 290 288 q 293 190 301 224 q 266 124 285 156 q 222 67 247 92 q 272 -23 247 22 q 321 -115 297 -68 q 316 -129 324 -125 q 301 -126 308 -133 q 254 -35 278 -81 q 206 53 231 10 q 119 18 163 18 q 53 39 79 18 q 15 92 28 60 q 1 165 3 125 q 6 246 0 206 q 26 321 13 286 q 57 376 39 356 m 136 171 q 140 186 132 181 q 154 182 147 192 l 208 90 q 249 138 231 111 q 274 194 267 165 q 277 249 282 222 q 250 296 272 275 q 164 341 211 332 q 67 353 117 350 q 42 299 51 331 q 28 231 32 267 q 26 158 24 194 q 40 95 29 122 q 69 52 50 68 q 119 40 89 36 q 155 51 136 42 q 192 75 174 60 q 164 122 178 99 q 136 171 150 146 z "},"R":{"ha":385,"x_min":0,"x_max":376,"o":"m 4 401 q 8 417 0 411 q 22 411 15 422 q 42 354 36 382 l 49 361 q 114 383 76 379 q 183 374 151 386 q 233 334 215 361 q 239 265 251 307 q 205 206 231 235 q 149 155 179 178 q 92 115 119 132 q 54 90 65 97 q 120 75 79 85 q 205 57 161 65 q 291 43 249 49 q 363 40 333 38 q 375 31 374 40 q 365 18 376 21 q 288 20 329 15 q 203 33 246 25 q 119 52 161 42 q 43 71 78 63 q 44 40 44 54 q 44 15 44 26 q 35 7 42 8 q 24 14 28 6 l 22 14 l 22 21 q 19 65 19 43 q 19 110 18 86 q 17 165 18 136 q 16 222 15 194 q 19 276 17 250 q 26 321 21 301 q 4 401 19 364 m 65 346 q 49 315 53 333 q 47 213 53 264 q 40 108 42 161 q 75 128 50 113 q 128 165 100 143 q 182 215 157 188 q 217 271 207 242 q 211 324 226 301 q 169 356 196 346 q 112 365 142 367 q 65 346 82 364 z "},"S":{"ha":394,"x_min":3,"x_max":383,"o":"m 282 306 q 276 290 286 294 q 261 296 267 286 q 256 321 258 308 q 244 342 253 333 q 199 366 228 361 q 142 365 171 371 q 85 345 113 358 q 43 315 58 332 q 27 276 28 300 q 42 236 26 253 q 99 192 69 208 q 162 165 129 175 q 228 149 194 156 q 297 136 263 143 q 321 130 306 133 q 351 119 336 126 q 374 103 365 113 q 379 82 383 94 q 361 62 375 69 q 331 49 347 54 q 297 41 314 43 q 267 38 279 39 q 219 33 246 35 q 165 33 193 32 q 110 36 138 33 q 63 44 83 39 q 28 63 36 51 q 31 101 21 75 q 45 109 38 111 q 53 96 53 107 l 44 76 q 79 65 54 69 q 136 57 104 60 q 203 54 168 54 q 270 58 239 54 q 324 68 301 61 q 354 86 347 75 q 344 98 353 93 q 326 106 336 103 q 306 112 317 110 q 290 115 296 114 q 222 130 269 122 q 126 154 175 138 q 40 200 78 171 q 3 279 3 229 q 37 342 3 315 q 115 379 71 368 q 202 386 160 390 q 261 358 244 382 q 277 328 276 338 q 282 306 278 318 z "},"T":{"ha":400,"x_min":3,"x_max":392,"o":"m 14 358 q 3 369 3 361 q 11 381 3 376 q 194 392 103 383 q 378 403 286 400 q 390 393 389 403 q 381 381 392 383 q 292 376 336 378 q 204 369 249 374 q 214 189 206 278 q 240 10 222 100 q 232 -3 240 -1 q 218 4 224 -4 q 192 186 201 96 q 182 368 183 276 q 98 363 140 365 q 14 358 56 360 z "},"U":{"ha":343,"x_min":3,"x_max":336,"o":"m 3 371 q 13 382 4 382 q 24 372 21 382 q 28 291 24 338 q 42 198 32 244 q 70 110 53 151 q 115 43 88 68 q 158 38 136 25 q 198 77 179 51 q 231 133 217 103 q 250 182 244 164 q 234 242 240 211 q 227 300 228 272 q 231 351 226 328 q 246 388 235 374 q 256 392 251 392 q 281 356 274 383 q 289 297 289 329 q 283 232 289 264 q 272 183 278 200 q 300 115 285 146 q 329 69 315 83 q 328 54 336 60 q 313 57 321 49 q 285 94 299 69 q 261 149 272 118 q 216 62 242 99 q 162 15 190 25 q 103 26 133 4 q 46 115 74 49 q 13 239 22 174 q 3 371 4 304 m 257 364 q 248 305 246 343 q 261 225 250 267 l 261 228 q 267 262 265 243 q 269 299 269 281 q 267 335 269 318 q 257 364 264 351 z "},"V":{"ha":269,"x_min":0,"x_max":256,"o":"m 174 44 q 195 120 186 83 q 210 197 204 157 q 222 279 217 236 q 235 372 228 322 q 248 379 240 382 q 256 367 256 376 q 245 292 251 343 q 231 187 239 242 q 210 84 222 132 q 182 19 199 36 q 164 22 174 14 q 115 97 138 51 q 74 194 93 143 q 37 294 54 244 q 4 382 19 344 q 8 397 0 392 q 22 393 15 403 q 53 312 35 363 q 92 208 71 261 q 133 109 113 154 q 174 44 154 64 z "},"W":{"ha":464,"x_min":1,"x_max":444,"o":"m 81 25 q 67 115 72 65 q 56 214 63 165 q 40 306 50 263 q 13 376 29 349 q 3 382 6 376 q 3 392 1 388 q 10 401 6 397 q 22 400 15 404 q 54 333 42 376 q 74 244 67 290 q 86 153 82 197 q 93 82 90 108 q 106 142 97 103 q 126 224 114 182 q 152 301 138 267 q 183 346 167 336 q 188 347 188 346 q 190 344 188 347 q 214 304 200 336 q 243 233 228 272 q 272 158 258 194 q 294 103 286 121 q 320 58 304 81 q 353 26 336 35 q 385 26 369 17 q 411 79 401 36 q 419 251 431 160 q 376 419 408 343 q 351 464 365 443 q 322 507 336 485 q 324 520 318 515 q 339 519 331 525 q 369 475 354 497 q 396 428 385 453 q 424 345 413 390 q 440 253 435 300 q 442 160 444 206 q 432 72 440 114 q 402 11 425 36 q 340 0 379 -14 q 288 64 311 21 q 245 156 264 107 q 212 249 226 204 q 186 319 197 294 q 156 251 167 288 q 138 176 146 214 q 123 99 131 138 q 101 26 115 61 q 90 18 97 19 q 81 25 83 17 z "},"X":{"ha":296,"x_min":-1,"x_max":283,"o":"m 1 364 q 6 380 -1 375 q 22 374 13 385 l 160 192 l 265 418 q 277 424 271 426 q 283 411 283 422 l 172 174 q 224 106 199 139 q 274 42 250 72 q 274 27 281 33 q 257 29 267 21 q 210 88 233 57 q 163 151 186 119 l 93 6 q 81 -1 88 -3 q 76 14 75 1 l 149 169 l 1 364 z "},"Z":{"ha":399,"x_min":-4,"x_max":389,"o":"m 36 361 q 29 373 26 365 q 42 383 32 381 q 76 392 51 385 q 131 406 100 399 q 193 417 161 413 q 251 418 225 421 q 294 402 278 415 q 308 361 310 389 q 284 309 307 338 q 228 251 261 281 q 158 190 196 221 q 90 131 121 158 q 40 82 60 104 q 24 47 21 60 q 72 31 32 31 q 166 39 113 32 q 277 53 219 46 q 378 57 335 61 q 387 44 389 54 q 372 35 385 35 q 320 35 353 39 q 249 26 288 32 q 171 16 211 21 q 96 10 131 11 q 36 15 61 8 q 4 39 11 21 q 14 83 -4 57 q 63 138 32 108 q 133 200 94 168 q 207 262 172 232 q 265 317 242 292 q 288 360 288 342 q 275 390 289 381 q 239 399 261 399 q 188 394 217 400 q 132 382 160 389 q 78 369 104 375 q 36 361 53 363 z "},"(":{"ha":229,"x_min":13,"x_max":328,"o":"m 206 579 q 218 572 215 579 q 211 558 221 564 q 209 556 210 558 q 208 556 208 554 q 149 448 178 503 q 97 335 121 393 q 58 219 74 278 q 38 97 42 160 q 39 24 35 61 q 58 -45 43 -14 q 99 -99 72 -76 q 169 -128 126 -122 q 242 -130 206 -135 q 314 -122 278 -125 q 326 -132 325 -122 q 315 -144 328 -142 q 241 -151 279 -146 q 165 -150 203 -157 q 75 -110 108 -140 q 27 -37 42 -81 q 13 57 13 6 q 22 161 13 108 q 48 264 32 214 q 81 353 64 314 q 100 397 85 361 q 135 472 115 432 q 174 544 154 511 q 206 579 193 576 z "},")":{"ha":243,"x_min":-158,"x_max":231,"o":"m -151 542 q -155 556 -158 549 q -140 561 -151 564 q -46 508 -96 540 q 51 438 4 476 q 138 352 99 399 q 201 254 178 306 q 228 147 225 203 q 204 32 231 90 q 155 -41 188 -4 q 83 -108 122 -78 q 0 -161 43 -139 q -78 -190 -43 -183 q -86 -183 -85 -190 q -79 -169 -87 -175 q 12 -131 -36 -158 q 101 -65 60 -103 q 170 21 142 -26 q 206 118 199 68 q 176 256 211 192 q 88 374 142 321 q -31 470 33 428 q -151 542 -96 513 z "},"[":{"ha":147,"x_min":25,"x_max":233,"o":"m 194 589 q 206 578 206 589 q 194 567 206 568 q 148 563 167 567 q 115 554 129 558 q 83 535 93 549 q 71 504 74 522 q 63 427 68 476 q 56 331 58 378 q 50 222 53 289 q 47 90 47 156 q 49 -28 46 24 q 63 -92 53 -81 q 91 -101 72 -100 q 133 -99 110 -101 q 180 -91 156 -96 q 224 -83 204 -86 q 233 -94 232 -86 q 222 -106 233 -103 q 137 -122 172 -117 q 78 -124 101 -126 q 50 -112 61 -121 q 33 -76 39 -104 q 25 8 25 -37 q 25 101 25 54 q 29 299 25 197 q 49 508 33 401 q 66 553 54 542 q 97 572 78 565 q 137 583 114 578 q 194 589 160 589 z "},"]":{"ha":164,"x_min":-112,"x_max":143,"o":"m -33 526 q -44 537 -44 529 q -33 547 -43 544 q 41 553 14 549 q 83 552 68 558 q 105 522 99 546 q 117 442 111 497 q 133 247 128 346 q 143 46 139 149 q 141 -16 143 7 q 132 -61 139 -39 q 90 -90 125 -83 q 15 -96 56 -97 q -60 -90 -25 -94 q -101 -85 -94 -86 q -111 -72 -112 -82 q -99 -64 -110 -62 q -58 -69 -89 -65 q 9 -75 -26 -74 q 74 -72 44 -76 q 111 -53 104 -68 q 120 5 119 -37 q 119 95 121 47 q 115 185 118 143 q 111 243 111 228 q 108 306 110 267 q 101 388 106 346 q 92 468 97 431 q 78 525 86 506 q 60 535 74 533 q 31 534 47 536 q -3 529 14 532 q -33 526 -21 526 z "},"{":{"ha":229,"x_min":11,"x_max":288,"o":"m 276 558 q 288 545 288 556 q 276 536 288 535 q 249 542 263 539 q 219 544 235 544 q 156 527 175 549 q 131 471 136 506 q 130 393 126 436 q 135 310 133 350 q 131 240 138 271 q 101 199 125 208 q 129 168 119 192 q 143 116 139 144 q 147 60 147 88 q 149 19 147 33 q 151 -3 150 11 q 157 -30 153 -17 q 169 -53 161 -43 q 190 -64 176 -64 q 215 -57 204 -61 q 238 -49 226 -53 q 250 -60 249 -51 q 243 -71 251 -68 l 193 -87 q 153 -75 167 -92 q 135 -29 140 -58 q 127 35 129 0 q 121 103 125 71 q 107 160 117 136 q 75 192 97 185 q 38 188 54 185 q 16 199 21 192 q 22 212 11 206 q 68 217 33 218 q 107 235 97 213 q 116 293 117 257 q 111 374 115 329 q 109 458 107 418 q 124 526 111 497 q 171 561 136 556 q 276 558 215 571 z "},"}":{"ha":231,"x_min":-42,"x_max":219,"o":"m -21 533 q -33 531 -28 529 q -40 538 -39 533 q -35 549 -42 543 q -8 558 -28 554 q 30 565 11 563 q 65 563 49 567 q 92 550 81 560 q 111 521 104 540 q 119 453 121 490 q 113 379 117 417 q 107 306 108 342 q 118 240 106 269 q 138 223 122 229 q 172 211 153 217 q 210 217 200 221 q 217 206 219 214 q 200 192 214 199 q 168 190 186 186 q 133 164 149 181 q 111 128 117 147 q 114 88 108 115 q 124 31 119 61 q 126 -26 128 0 q 106 -65 124 -53 q 49 -80 82 -81 q -8 -72 15 -79 q -13 -57 -18 -65 q 3 -51 -8 -49 q 53 -58 31 -60 q 90 -46 76 -57 q 103 -22 99 -37 q 106 21 108 -6 q 97 69 103 44 q 92 119 92 94 q 103 164 93 143 q 144 199 114 185 q 119 207 136 199 q 97 226 101 215 q 85 292 85 256 q 88 365 85 328 q 94 438 92 401 q 93 507 97 475 q 71 536 89 529 q 32 542 53 543 q -5 538 11 542 q -21 533 -21 533 z "},".":{"ha":78,"x_min":26,"x_max":54,"o":"m 26 29 q 42 42 29 44 q 54 25 54 40 q 41 11 53 11 q 26 25 29 11 l 26 29 l 26 29 z "},",":{"ha":85,"x_min":8,"x_max":65,"o":"m 32 14 q 33 29 28 24 q 49 31 39 35 q 63 1 61 15 q 61 -29 65 -14 q 49 -59 57 -44 q 31 -87 40 -74 q 16 -88 24 -94 q 14 -74 8 -82 q 27 -53 19 -64 q 39 -31 35 -43 q 42 -8 43 -19 q 32 14 42 3 z "},"-":{"ha":182,"x_min":13,"x_max":175,"o":"m 22 160 q 13 169 13 163 q 22 182 14 176 l 161 190 q 174 181 172 190 q 164 169 175 172 l 22 160 z "},"/":{"ha":163,"x_min":-22,"x_max":160,"o":"m 138 546 q 152 553 144 556 q 160 540 160 550 l 1 -132 q -13 -140 -4 -142 q -21 -126 -22 -137 l 138 546 z "},"⁄":{"ha":163,"x_min":-22,"x_max":160,"o":"m 138 546 q 152 553 144 556 q 160 540 160 550 l 1 -132 q -13 -140 -4 -142 q -21 -126 -22 -137 l 138 546 z "},"\\":{"ha":163,"x_min":0,"x_max":182,"o":"m 181 -126 q 173 -140 182 -137 q 158 -132 164 -142 l 0 540 q 8 553 0 550 q 22 546 15 556 l 181 -126 z "},":":{"ha":78,"x_min":26,"x_max":57,"o":"m 29 76 q 44 90 32 92 q 57 74 57 89 q 44 60 56 60 q 29 74 32 60 l 29 76 m 26 197 q 42 210 29 213 q 54 193 54 208 q 41 179 53 179 q 26 193 29 179 l 26 197 z "},";":{"ha":78,"x_min":13,"x_max":68,"o":"m 31 197 q 45 210 33 213 q 57 193 57 208 q 45 179 57 179 q 31 193 33 179 l 31 197 m 36 71 q 38 86 32 81 q 51 86 43 92 q 66 57 64 72 q 64 27 68 42 q 51 -2 60 13 q 35 -31 43 -17 q 19 -32 26 -37 q 17 -17 13 -26 q 31 3 24 -7 q 43 26 39 14 q 47 49 47 38 q 36 71 46 60 z "},"@":{"ha":393,"x_min":7,"x_max":386,"o":"m 104 113 q 115 160 104 135 q 141 203 125 185 q 175 229 157 222 q 208 224 193 236 l 208 229 q 216 240 208 238 q 228 235 224 242 q 242 187 236 211 q 254 138 247 163 q 271 90 261 113 q 296 49 281 67 q 331 54 317 40 q 351 91 344 68 q 358 139 358 114 q 347 181 357 164 q 309 229 332 206 q 258 269 286 253 q 199 294 229 286 q 138 296 168 301 q 76 251 101 289 q 40 169 50 214 q 38 81 29 124 q 79 18 47 38 q 133 8 93 11 q 226 28 172 4 q 242 25 235 32 q 239 13 250 18 q 186 -7 214 -1 q 134 -12 158 -12 q 92 -9 110 -12 q 67 -1 74 -6 q 17 75 28 26 q 18 174 7 124 q 59 265 29 224 q 132 317 89 306 q 194 316 158 325 q 263 288 229 307 q 326 244 297 269 q 367 190 354 218 q 377 107 386 147 q 347 44 368 67 q 299 24 325 21 q 257 72 272 28 l 222 172 q 189 115 208 136 q 154 85 169 94 q 119 72 133 69 q 104 113 106 75 m 128 93 q 178 131 160 104 q 203 190 196 158 q 181 210 194 215 q 156 184 168 204 q 135 137 143 164 q 126 93 126 110 l 128 93 z "},"<":{"ha":243,"x_min":6,"x_max":235,"o":"m 176 303 q 192 300 188 307 q 190 285 197 293 q 136 240 163 260 q 82 193 110 219 q 36 135 42 157 q 53 94 31 114 q 133 47 89 65 q 224 14 176 29 q 231 -3 235 7 q 215 -8 226 -12 q 121 29 171 11 q 32 82 71 47 q 11 132 6 107 q 42 184 17 157 q 103 240 67 211 q 176 303 140 269 z "},">":{"ha":222,"x_min":1,"x_max":215,"o":"m 40 294 q 38 310 32 303 q 53 311 43 318 l 128 253 q 201 176 188 208 q 196 114 215 143 q 130 54 176 85 q 22 -19 83 24 q 8 -21 15 -26 q 7 -7 1 -15 q 69 36 39 15 q 129 81 100 57 q 174 124 161 106 q 182 159 186 142 q 160 194 178 176 q 114 236 143 213 q 78 265 96 251 q 40 294 60 279 z "},"!":{"ha":75,"x_min":24,"x_max":51,"o":"m 26 403 q 39 414 29 415 q 49 401 49 413 q 46 245 47 322 q 51 89 44 168 q 42 77 51 78 q 31 88 32 76 q 24 245 24 167 q 26 403 25 324 m 49 22 q 50 11 51 18 q 40 4 49 4 q 31 9 33 4 q 31 18 29 14 q 37 24 32 22 q 49 22 42 26 z "},"\"":{"ha":143,"x_min":17,"x_max":119,"o":"m 99 417 q 110 426 101 428 q 119 414 119 425 l 119 217 q 110 204 119 204 q 99 215 101 204 l 99 417 m 17 403 q 28 414 19 414 q 39 404 36 414 q 42 306 40 356 q 44 208 43 257 q 35 197 44 197 q 22 208 25 197 q 20 306 22 257 q 17 403 18 354 z "},"#":{"ha":331,"x_min":13,"x_max":319,"o":"m 29 131 q 18 143 18 133 q 31 153 18 153 l 75 153 l 78 225 q 50 224 64 225 q 22 224 36 224 q 13 233 13 225 q 21 244 13 240 q 50 245 36 244 q 79 247 64 246 l 82 338 q 94 347 85 349 q 103 335 103 346 l 101 250 q 137 254 119 253 q 172 258 154 256 l 172 347 q 183 357 174 358 q 193 344 193 356 l 193 261 q 244 271 218 267 q 296 282 269 275 q 308 274 306 282 q 301 261 311 267 q 193 240 247 249 q 194 199 193 219 q 194 157 194 178 q 306 169 251 161 q 318 160 317 169 q 308 147 319 150 q 251 140 279 143 q 196 136 224 138 q 197 78 196 107 q 197 22 197 50 q 188 11 197 11 q 175 22 178 11 q 174 78 175 50 q 174 135 174 107 q 134 132 154 132 q 93 131 114 132 q 89 76 92 103 q 83 22 86 50 q 71 15 78 15 q 61 25 64 15 q 67 77 64 51 q 72 131 69 103 l 29 131 m 96 153 l 172 156 l 172 236 q 135 231 153 233 q 100 226 118 229 l 96 153 z "},"$":{"ha":192,"x_min":10,"x_max":179,"o":"m 68 438 q 81 449 71 450 q 90 436 90 447 l 90 343 q 113 323 103 339 q 129 278 124 307 q 121 265 129 267 q 108 272 113 264 q 92 314 103 303 q 93 256 93 286 q 96 199 93 226 q 138 185 115 192 q 176 167 160 178 q 179 156 179 164 q 149 123 171 135 q 101 108 126 111 q 107 44 104 76 q 113 -19 110 13 q 103 -31 113 -31 q 92 -21 93 -32 q 79 107 83 43 q 36 123 56 110 q 13 163 17 136 q 20 176 10 174 q 33 167 31 178 q 50 138 38 146 q 78 129 63 129 l 75 190 q 26 224 44 201 q 12 260 13 240 q 18 297 11 279 q 39 327 25 314 q 68 344 53 340 l 68 438 m 44 235 q 74 208 54 219 q 69 322 69 264 q 40 289 51 317 q 44 235 29 261 m 154 154 q 126 170 140 165 q 96 182 111 175 l 100 132 q 154 154 128 140 z "},"%":{"ha":307,"x_min":11,"x_max":297,"o":"m 64 243 q 30 258 42 243 q 15 292 18 272 q 15 331 11 311 q 31 361 19 350 q 29 375 25 365 q 40 385 33 385 q 99 363 83 385 q 115 314 115 340 q 99 265 114 288 q 64 243 83 243 m 275 421 q 291 422 285 428 q 293 406 297 417 q 223 314 260 360 q 153 220 186 268 q 91 122 119 172 q 44 17 63 72 q 31 8 40 7 q 22 21 22 8 q 70 129 42 78 q 133 230 99 181 q 203 326 167 279 q 275 421 240 372 m 217 208 q 229 201 225 208 q 270 173 256 193 q 285 132 285 153 q 270 96 285 111 q 226 81 256 81 q 199 98 210 81 q 185 138 188 115 q 189 181 182 161 q 217 208 196 201 m 50 264 q 77 274 67 263 q 91 301 88 285 q 90 333 94 317 q 69 357 85 349 q 44 350 53 361 q 33 323 35 339 q 37 290 32 307 q 50 264 42 272 m 229 101 q 255 110 246 99 q 263 135 264 121 q 250 164 261 150 q 215 182 239 178 q 206 162 207 175 q 207 135 204 149 q 215 113 210 122 q 229 101 221 103 z "},"&":{"ha":226,"x_min":10,"x_max":218,"o":"m 215 33 q 208 19 218 22 q 194 25 199 15 q 181 57 189 42 q 163 88 172 72 q 123 75 143 78 q 76 82 103 72 q 69 93 71 86 q 78 133 71 114 q 97 172 86 153 q 65 213 82 192 q 36 254 49 233 q 17 297 24 275 q 14 340 10 319 q 49 388 22 376 q 105 390 76 399 q 155 358 133 382 q 175 300 176 333 q 172 274 174 285 q 164 251 169 264 q 148 221 158 239 q 121 174 138 203 q 145 145 133 158 q 168 117 157 132 l 193 136 q 210 137 204 143 q 208 119 215 131 q 194 109 201 114 q 181 100 188 104 q 200 67 192 83 q 215 33 208 51 m 47 279 q 74 233 58 256 q 108 190 90 211 q 138 244 124 217 q 154 304 153 272 q 128 356 154 339 q 76 372 103 374 q 37 348 50 371 q 47 279 24 325 m 92 99 q 122 96 107 93 q 150 106 136 99 q 131 131 140 118 q 111 156 122 143 q 99 128 104 142 q 92 99 93 114 z "},"'":{"ha":67,"x_min":14,"x_max":49,"o":"m 14 408 q 24 419 15 419 q 35 410 32 418 q 42 315 36 361 q 49 219 47 268 q 39 208 49 208 q 26 218 29 207 q 19 314 25 267 q 14 408 14 361 z "},"*":{"ha":250,"x_min":8,"x_max":242,"o":"m 17 269 q 15 285 8 278 q 31 286 21 293 l 108 222 q 106 281 106 251 q 107 340 107 311 q 119 351 110 353 q 128 339 128 350 q 128 281 128 310 q 129 225 128 253 q 165 256 149 240 q 199 286 181 271 q 215 287 208 293 q 214 269 221 281 q 176 235 194 251 q 138 201 157 218 q 185 168 161 185 q 235 136 210 151 q 237 122 242 128 q 222 119 232 115 q 177 148 199 133 q 133 178 156 163 q 141 122 136 150 q 154 67 146 94 q 146 55 154 57 q 133 63 138 53 q 119 122 124 92 q 111 183 114 153 q 71 155 92 168 q 28 131 50 142 q 15 138 17 128 q 22 153 13 147 q 61 175 42 163 q 100 201 81 188 l 17 269 l 17 269 z "},"+":{"ha":261,"x_min":13,"x_max":249,"o":"m 22 171 q 13 180 13 172 q 21 192 13 188 q 65 192 43 192 q 111 194 88 193 q 110 250 110 222 q 110 306 110 278 q 121 317 111 318 q 131 304 131 315 q 131 250 131 276 q 132 196 131 224 q 183 199 164 199 q 235 199 203 199 q 247 190 246 199 q 238 178 249 181 q 185 176 206 176 q 133 174 165 176 q 135 123 135 149 q 136 72 136 97 q 126 60 136 61 q 114 71 117 60 q 113 122 114 96 q 111 172 113 147 q 68 172 90 172 q 22 171 46 171 z "},"−":{"ha":236,"x_min":13,"x_max":224,"o":"m 24 172 q 13 183 13 174 q 25 194 14 193 l 208 204 q 222 194 219 204 q 213 182 224 185 l 24 172 z "},"=":{"ha":269,"x_min":13,"x_max":257,"o":"m 24 215 q 14 224 14 217 q 22 236 14 232 q 135 240 79 238 q 247 236 190 243 q 257 225 257 233 q 246 215 257 217 q 135 219 190 222 q 24 215 81 217 m 24 118 q 13 129 13 119 q 25 139 14 139 q 133 141 79 139 q 239 153 186 143 q 252 144 250 153 q 244 131 254 136 q 135 120 190 122 q 24 118 81 118 z "},"?":{"ha":190,"x_min":11,"x_max":176,"o":"m 35 318 q 20 310 29 308 q 14 324 11 313 q 40 365 22 343 q 80 402 58 386 q 124 422 101 418 q 164 410 147 426 q 174 391 172 404 q 176 363 176 378 q 172 335 175 349 q 168 314 169 321 q 156 275 164 297 q 138 230 147 253 q 121 185 129 207 q 108 146 113 163 q 106 122 103 129 q 122 110 110 114 q 128 94 133 103 q 111 90 122 86 q 97 98 104 93 q 86 111 89 103 q 90 164 81 133 q 115 228 100 194 q 142 299 129 263 q 154 368 154 335 q 137 399 154 397 q 98 386 119 400 q 58 352 76 372 q 35 318 39 332 m 121 31 q 109 17 121 17 q 94 31 97 17 q 109 51 97 53 q 121 31 121 50 z "},"^":{"ha":204,"x_min":13,"x_max":197,"o":"m 33 235 q 22 226 29 226 q 13 236 14 226 q 22 270 13 244 q 42 326 31 296 q 64 383 53 357 q 79 421 75 410 q 97 425 88 432 q 119 394 107 419 q 142 339 131 369 q 166 278 154 308 q 190 231 178 247 q 190 215 197 221 q 172 217 182 210 q 143 269 156 242 q 121 321 131 296 q 104 366 111 346 q 92 396 97 386 q 63 315 76 354 q 33 235 49 275 z "},"_":{"ha":258,"x_min":14,"x_max":250,"o":"m 24 4 q 14 13 14 6 q 22 25 14 21 q 128 33 75 26 q 235 49 182 39 q 247 40 244 49 q 240 26 250 32 q 133 10 188 17 q 24 4 79 4 z "},"|":{"ha":83,"x_min":26,"x_max":58,"o":"m 28 510 q 40 521 31 522 q 49 508 49 519 q 48 188 49 347 q 58 -131 47 29 q 49 -142 58 -142 q 38 -132 40 -143 q 26 190 26 31 q 28 510 26 349 z "},"~":{"ha":276,"x_min":10,"x_max":261,"o":"m 31 153 q 17 153 24 147 q 15 168 10 160 q 44 203 28 182 q 79 229 60 224 q 119 218 100 235 q 156 188 138 201 q 195 175 175 174 q 239 217 215 176 q 253 224 244 226 q 261 211 261 222 q 204 156 233 161 q 125 182 175 150 q 118 186 124 182 q 106 195 113 190 q 94 203 100 200 q 85 207 88 207 q 56 183 69 203 q 31 153 42 164 z "},"¤":{"ha":246,"x_min":11,"x_max":236,"o":"m 14 350 q 19 367 11 361 q 33 361 26 372 q 56 317 43 339 q 93 333 69 338 q 115 324 106 332 q 133 308 124 315 q 136 299 136 303 q 181 397 154 346 q 194 404 186 407 q 201 392 201 401 q 173 331 186 360 q 147 269 160 301 q 176 233 164 253 q 196 189 189 213 q 183 131 200 158 q 209 93 197 111 q 233 56 221 75 q 228 41 236 44 q 214 44 221 38 q 192 78 203 61 q 171 111 182 96 q 147 95 160 101 q 121 92 135 89 q 103 100 114 93 q 88 110 92 107 q 78 78 82 94 q 67 46 74 61 q 52 38 61 36 q 46 51 43 40 l 71 128 q 56 162 63 142 q 45 204 49 182 q 41 249 42 226 q 44 290 40 272 q 28 320 36 306 q 14 350 21 335 m 81 157 q 106 128 94 138 q 128 116 118 118 q 144 118 138 114 q 157 129 151 122 q 171 158 168 142 q 171 190 174 174 q 159 220 168 206 q 139 247 150 235 q 127 258 136 249 q 108 278 118 268 q 88 297 97 289 q 76 306 78 306 q 68 288 74 301 q 63 249 63 274 q 67 203 63 229 q 81 157 72 176 m 135 296 q 128 290 132 290 l 131 288 l 135 296 z "},"¢":{"ha":192,"x_min":11,"x_max":181,"o":"m 64 433 q 74 444 67 444 q 85 435 82 444 q 85 384 85 410 q 88 333 86 358 q 126 302 107 328 q 146 239 146 276 q 136 228 144 228 q 125 240 128 229 q 115 282 125 260 q 89 314 104 304 q 94 224 92 269 q 101 136 97 179 q 112 139 107 138 q 124 144 117 140 q 142 157 135 150 q 158 171 149 164 q 175 172 169 178 q 174 154 181 165 q 140 131 158 143 q 101 113 122 118 l 111 0 q 101 -12 111 -11 q 89 -1 92 -12 l 81 111 q 64 117 75 111 q 27 160 40 126 q 13 232 14 194 q 24 301 11 269 q 67 338 38 332 q 65 385 65 361 q 64 433 64 410 m 67 315 q 44 285 53 311 q 35 227 36 258 q 44 169 35 196 q 78 136 54 142 q 72 226 75 182 q 67 315 69 269 z "},"€":{"ha":303,"x_min":11,"x_max":286,"o":"m 22 104 q 11 114 11 107 q 19 126 11 121 q 53 129 36 128 q 85 135 69 131 q 81 151 82 143 q 76 168 79 158 q 53 165 65 167 q 29 164 42 164 q 18 174 18 167 q 26 186 18 182 q 74 190 49 186 q 67 260 67 225 q 74 326 68 296 q 90 369 78 353 q 117 392 101 386 q 149 391 132 397 q 181 365 165 385 q 192 339 188 356 q 199 304 196 322 q 204 269 203 286 q 207 243 206 253 q 197 232 207 232 q 185 243 188 232 q 181 282 183 258 q 172 326 178 306 q 155 362 165 347 q 128 375 144 376 q 104 353 113 372 q 92 308 96 335 q 89 252 89 282 q 93 200 89 222 l 93 192 q 183 210 139 199 q 271 236 226 221 q 284 228 282 236 q 278 215 286 221 q 188 190 232 201 q 99 171 143 178 q 103 154 101 163 q 108 139 106 146 q 173 156 140 146 q 238 178 206 167 q 251 170 249 178 q 243 156 253 163 q 180 136 211 146 q 117 119 149 126 q 148 72 131 90 q 185 49 165 53 q 224 62 204 46 q 261 119 243 78 q 276 127 268 129 q 283 114 283 125 q 251 65 271 86 q 208 34 232 43 q 160 33 185 25 q 114 75 135 42 q 102 93 107 83 q 93 113 97 103 q 22 104 57 106 z "},"₣":{"ha":239,"x_min":11,"x_max":228,"o":"m 26 63 q 13 69 15 60 q 21 85 11 78 q 90 104 57 99 l 75 193 q 68 201 68 196 q 74 211 68 207 q 65 277 67 250 q 60 344 63 304 q 51 353 51 347 q 58 365 51 360 l 58 376 q 69 387 61 388 q 81 376 78 386 l 81 367 q 147 374 114 369 q 214 379 181 378 q 226 369 225 379 q 217 358 228 360 q 149 352 183 357 q 82 344 115 347 q 86 279 85 306 q 93 215 88 253 q 138 224 117 218 q 181 238 158 231 q 193 230 190 238 q 186 217 196 222 q 142 203 164 210 q 97 193 121 197 l 111 108 q 158 114 135 111 q 207 119 182 117 q 219 110 218 119 q 208 99 221 101 q 156 92 178 94 q 114 88 133 90 l 128 14 q 118 3 128 3 q 106 14 108 3 l 93 85 q 62 76 78 81 q 26 63 46 71 z "},"£":{"ha":282,"x_min":13,"x_max":268,"o":"m 22 164 q 13 174 13 167 q 21 186 13 182 q 55 190 38 188 q 90 197 72 192 q 86 209 88 204 q 82 221 85 214 q 71 265 76 239 q 65 317 65 292 q 76 362 65 343 q 111 383 86 381 q 139 374 125 385 q 164 345 153 363 q 182 308 175 328 q 192 271 189 288 q 182 259 192 260 q 171 269 172 258 q 155 315 168 292 q 127 351 142 339 q 101 353 113 363 q 89 301 89 344 q 96 256 89 281 q 111 203 103 231 q 177 223 144 213 q 243 243 210 233 q 256 235 254 243 q 250 221 258 226 q 184 201 217 211 q 118 182 151 190 q 131 134 125 158 q 135 88 136 110 q 196 91 165 90 q 254 92 226 92 q 267 82 265 92 q 257 69 268 72 q 195 69 228 69 q 131 65 163 68 q 116 41 126 50 q 88 31 106 32 q 55 26 72 28 q 22 31 38 25 q 15 40 15 33 q 17 53 14 47 q 113 86 58 79 q 110 129 115 106 q 96 176 104 153 q 60 169 78 172 q 22 164 42 165 m 56 49 q 83 51 69 49 q 103 61 96 53 q 78 56 90 58 q 56 49 67 53 z "},"¥":{"ha":303,"x_min":8,"x_max":292,"o":"m 81 67 q 67 73 69 64 q 75 88 65 82 l 143 110 q 144 126 144 119 q 146 138 144 133 l 142 142 l 60 119 q 47 127 49 118 q 54 142 44 136 l 128 161 l 17 314 q 15 331 8 324 q 31 332 21 339 l 146 172 q 152 284 150 239 q 155 358 154 329 q 157 404 156 388 q 161 429 158 421 q 173 433 165 436 q 181 421 181 431 q 176 313 181 378 q 169 172 172 247 q 223 187 197 179 q 276 203 249 194 q 289 195 286 203 q 282 182 292 188 q 225 164 254 172 q 168 149 196 156 l 165 115 q 218 128 192 122 q 272 139 244 133 q 285 131 283 139 q 279 118 288 124 q 221 106 250 113 q 164 93 192 100 l 164 10 q 160 1 164 6 q 152 -5 157 -3 q 144 -4 147 -7 q 140 10 140 -1 q 140 43 140 22 q 142 85 140 64 l 81 67 l 81 67 z "},"ƒ":{"ha":243,"x_min":7,"x_max":233,"o":"m 17 190 q 9 203 7 194 q 22 211 11 211 q 60 205 40 204 q 100 208 81 206 q 90 274 94 242 q 83 335 85 307 q 82 383 81 363 q 90 411 83 403 q 103 414 99 417 q 144 372 131 403 q 161 315 157 342 q 153 303 164 304 q 139 314 143 303 q 129 355 138 331 q 106 390 121 379 q 105 370 104 383 q 106 344 106 357 q 109 322 107 332 q 111 310 111 311 q 117 264 113 288 q 125 215 121 240 q 173 229 149 222 q 218 240 197 236 q 231 232 229 240 q 225 218 233 224 q 178 207 203 214 q 129 194 154 200 q 142 106 138 147 q 139 40 147 64 q 115 15 133 22 q 77 13 97 8 q 39 31 57 17 q 15 69 21 46 q 25 81 17 81 q 38 72 33 82 q 53 49 40 60 q 81 35 67 39 q 108 40 96 32 q 119 72 119 47 q 115 119 119 88 q 103 189 110 150 q 17 190 57 178 z "},"₤":{"ha":293,"x_min":14,"x_max":279,"o":"m 46 118 q 33 124 35 115 q 40 139 31 133 q 68 151 53 146 q 99 161 83 156 q 96 169 97 165 q 93 181 94 174 q 60 171 76 175 q 29 161 44 167 q 16 167 18 158 q 22 182 14 176 q 53 193 38 189 q 85 201 69 197 l 85 206 q 73 253 79 224 q 67 310 67 282 q 76 359 67 338 q 111 383 86 381 q 139 374 125 385 q 164 345 153 363 q 182 308 175 328 q 192 271 189 288 q 182 259 192 260 q 171 269 172 258 q 155 315 168 292 q 127 351 142 339 q 101 353 113 363 q 89 301 89 344 q 94 257 89 285 q 107 208 100 229 q 185 227 146 219 q 265 240 225 235 q 278 231 276 240 q 268 218 279 221 q 190 205 229 213 q 114 188 151 197 q 119 165 119 174 q 168 175 144 171 q 215 183 192 179 q 228 176 225 183 q 221 163 231 168 q 174 154 197 157 q 126 146 150 151 q 133 116 132 126 q 135 88 135 106 q 196 91 165 90 q 254 92 226 92 q 267 82 265 92 q 257 69 268 72 q 195 69 228 69 q 131 65 163 68 q 116 41 126 50 q 88 31 106 32 q 55 26 72 28 q 22 31 38 25 q 15 40 15 33 q 17 53 14 47 q 113 86 58 79 q 112 111 114 101 q 104 139 110 121 q 46 118 72 132 m 56 49 q 83 51 69 49 q 103 61 96 53 q 78 56 90 58 q 56 49 67 53 z "},"₡":{"ha":246,"x_min":13,"x_max":232,"o":"m 168 417 q 182 424 174 426 q 190 411 190 421 l 168 308 q 178 276 175 292 q 183 249 182 260 q 174 237 183 238 q 163 247 164 236 q 161 256 161 251 q 158 265 161 260 q 137 160 147 213 q 118 56 126 108 q 165 58 140 44 q 210 119 189 71 q 224 127 215 129 q 232 114 232 125 q 181 47 214 74 q 113 31 149 21 l 99 -64 q 87 -72 94 -72 q 76 -61 79 -72 q 84 -10 81 -35 q 93 40 88 15 q 80 51 86 46 q 68 65 74 57 q 60 21 64 43 q 51 -22 56 -1 q 37 -30 46 -32 q 31 -17 28 -28 q 41 38 36 11 q 50 93 46 65 q 18 210 24 146 q 22 326 13 274 q 39 371 26 354 q 67 393 51 388 q 104 392 85 397 l 114 438 q 128 444 119 446 q 136 431 136 442 l 125 378 q 153 342 142 363 q 161 379 157 361 q 168 417 165 397 m 40 200 q 47 167 43 183 q 57 135 51 150 l 101 367 q 75 375 86 376 q 53 353 61 372 q 40 308 44 335 q 36 252 36 282 q 40 200 36 222 m 75 101 q 85 84 81 92 q 97 69 90 76 q 120 188 108 129 q 146 306 132 246 q 133 328 139 317 q 119 349 126 339 l 75 101 z "},"ß":{"ha":285,"x_min":26,"x_max":265,"o":"m 63 14 q 53 3 63 3 q 40 14 43 3 q 32 122 38 68 q 26 229 26 175 q 27 283 26 257 q 34 333 28 310 q 53 377 40 357 q 92 414 67 397 q 118 423 103 421 q 146 418 133 425 q 169 373 171 407 q 157 298 167 339 q 140 217 147 257 q 144 153 132 176 q 171 128 153 138 q 209 109 189 118 q 244 90 229 100 q 263 67 260 81 q 245 40 265 53 q 198 17 225 26 q 145 6 171 8 q 111 13 119 4 q 110 28 104 21 q 125 29 115 36 q 147 28 129 25 q 185 39 165 32 q 222 53 206 46 q 240 65 239 61 q 214 85 232 79 q 178 98 196 92 q 144 114 160 104 q 124 144 128 124 q 117 168 121 156 q 114 192 113 181 q 123 241 115 211 q 136 301 131 271 q 143 357 142 331 q 135 397 144 383 q 102 397 114 397 q 75 376 90 396 q 50 305 56 353 q 47 203 44 257 q 54 97 49 149 q 63 14 60 46 z "},"ð":{"ha":260,"x_min":8,"x_max":247,"o":"m 31 208 q 15 208 22 201 q 14 224 8 215 q 65 249 33 238 q 129 272 96 261 q 111 322 118 304 q 100 349 104 339 q 93 367 96 360 q 86 385 90 374 q 73 395 76 382 q 69 415 69 408 q 77 429 69 425 q 93 429 85 433 q 105 407 97 425 q 121 365 113 389 q 138 318 129 342 q 150 279 146 294 q 194 292 174 286 q 232 306 215 299 q 244 297 242 306 q 238 283 247 289 q 198 271 218 276 q 156 258 178 265 q 176 187 165 225 q 192 114 186 149 q 195 52 197 79 q 181 15 193 25 q 126 -5 156 -4 q 76 6 97 -6 q 46 40 54 17 q 54 92 38 63 q 72 118 58 104 q 102 144 86 132 q 133 167 118 157 q 157 182 149 176 q 148 218 153 201 q 138 251 143 235 q 81 231 108 242 q 31 208 54 221 m 164 31 q 174 82 176 46 q 163 160 172 118 q 132 140 149 151 q 101 116 115 129 q 76 88 86 103 q 67 54 67 72 q 79 29 67 39 q 108 17 92 19 q 140 17 124 14 q 164 31 156 19 z "},"þ":{"ha":190,"x_min":24,"x_max":176,"o":"m 24 458 q 35 469 26 469 q 46 460 43 469 q 47 374 46 415 q 49 288 47 333 q 107 264 81 285 q 150 212 133 243 q 172 146 167 181 q 167 81 176 111 q 130 32 157 51 q 57 14 103 13 q 58 -57 57 -22 q 58 -128 58 -92 q 49 -139 58 -139 q 38 -128 40 -139 l 24 458 m 57 33 q 113 51 92 35 q 144 90 135 67 q 150 142 153 114 q 134 195 147 169 q 99 241 121 221 q 49 268 78 261 l 57 33 z "},"Þ":{"ha":251,"x_min":14,"x_max":240,"o":"m 40 258 q 30 270 29 261 q 42 279 31 279 l 43 279 q 42 350 42 315 q 38 419 42 385 q 48 430 40 431 q 58 421 56 429 q 64 349 64 385 q 65 278 64 314 q 149 269 106 275 q 224 233 193 264 q 228 194 240 215 q 191 154 217 174 q 132 118 165 135 q 69 93 99 101 q 71 41 71 67 q 71 -11 71 15 q 61 -23 71 -22 q 49 -12 51 -24 l 49 89 q 27 86 39 86 q 14 101 15 86 q 27 116 14 111 q 40 108 40 121 l 49 111 q 44 257 49 183 q 42 258 43 257 q 40 258 42 258 m 67 256 q 69 185 68 219 q 69 115 69 151 q 118 135 92 122 q 166 161 144 147 q 199 190 188 175 q 206 219 211 206 q 184 236 200 229 q 147 247 168 243 q 105 253 126 251 q 67 256 83 254 z "},"ſ":{"ha":158,"x_min":14,"x_max":144,"o":"m 24 158 q 14 168 14 161 q 22 181 14 175 q 40 181 31 181 q 58 182 50 182 q 63 356 57 268 q 74 407 64 389 q 99 428 85 425 q 125 419 113 432 q 144 376 138 406 q 135 365 144 367 q 122 372 126 363 q 116 393 121 381 q 101 406 111 406 q 88 380 93 403 q 82 322 83 357 q 81 246 81 288 q 81 162 81 204 q 83 81 82 119 q 85 15 85 42 q 75 3 85 4 q 63 14 65 3 q 60 88 61 51 q 58 161 58 124 q 41 159 50 160 q 24 158 32 158 z "},"µ":{"ha":413,"x_min":24,"x_max":404,"o":"m 42 283 q 54 293 44 294 q 64 281 64 292 q 69 233 65 271 q 84 153 74 196 q 113 74 94 110 q 161 32 132 38 q 201 51 186 28 q 225 108 217 75 q 236 173 233 140 q 239 219 239 206 q 248 232 239 228 q 261 225 257 236 q 269 165 263 197 q 292 108 276 133 q 331 70 307 83 q 392 65 356 57 q 403 58 404 68 q 392 44 401 47 q 341 42 363 38 q 303 58 319 46 q 275 90 286 71 q 256 132 264 110 q 247 93 254 114 q 228 54 240 72 q 200 24 217 36 q 161 13 183 13 q 119 28 136 13 q 91 67 103 43 q 72 118 79 90 q 60 172 65 146 q 51 40 57 106 q 46 -94 46 -26 q 34 -103 42 -103 q 24 -93 26 -103 q 33 96 25 3 q 42 283 40 189 z "},"ı":{"ha":108,"x_min":39,"x_max":68,"o":"m 47 253 q 58 263 50 260 q 68 256 67 267 q 64 152 67 203 q 60 49 61 101 q 48 35 57 39 q 39 44 39 32 q 43 149 40 97 q 47 253 46 200 z "},"•":{"ha":131,"x_min":8,"x_max":124,"o":"m 31 138 q 13 176 8 151 q 36 211 18 200 q 68 224 50 222 q 101 213 86 226 q 110 164 124 192 q 103 154 114 157 q 101 153 101 154 q 69 131 89 138 q 31 138 49 124 m 61 158 q 54 194 47 174 l 49 194 q 41 174 38 186 q 61 158 44 161 m 72 182 q 78 176 75 179 q 85 172 81 174 q 83 178 85 175 q 78 181 82 181 q 72 182 75 182 z "},"˜":{"ha":146,"x_min":11,"x_max":132,"o":"m 33 319 q 22 309 31 308 q 13 322 14 310 q 17 347 11 336 q 29 369 22 358 q 51 379 40 385 q 70 361 61 374 q 87 337 79 349 q 100 328 94 325 q 108 343 106 331 q 111 365 111 356 q 121 373 111 376 q 132 358 131 369 q 130 338 132 350 q 122 317 128 326 q 106 306 115 308 q 85 313 97 303 q 66 333 74 321 q 49 356 58 344 q 38 340 42 349 q 33 319 33 331 z "},"˚":{"ha":92,"x_min":8,"x_max":83,"o":"m 49 369 q 61 363 57 369 q 78 343 72 354 q 81 322 83 332 q 69 306 79 313 q 42 301 60 300 q 12 322 15 303 q 22 357 8 342 q 22 368 19 363 q 32 374 24 374 l 46 369 l 49 369 m 43 322 q 60 329 63 319 q 46 346 58 339 q 32 333 36 342 q 43 322 28 325 z "},"˛":{"ha":115,"x_min":11,"x_max":104,"o":"m 49 1 q 66 2 60 8 q 65 -14 72 -4 q 46 -45 54 -29 q 33 -81 38 -61 q 47 -79 39 -82 q 63 -73 54 -76 q 78 -66 71 -69 q 89 -60 85 -62 q 101 -68 99 -60 q 94 -82 104 -76 q 34 -102 53 -103 q 13 -87 15 -101 q 22 -50 11 -74 q 49 1 32 -26 z "},"¯":{"ha":174,"x_min":13,"x_max":161,"o":"m 22 339 q 13 348 13 340 q 21 360 13 356 q 85 365 53 365 q 151 363 118 365 q 161 351 161 360 q 150 340 161 343 q 87 343 118 343 q 22 339 56 343 z "},"`":{"ha":97,"x_min":8,"x_max":86,"o":"m 17 367 q 15 383 8 375 q 31 383 21 390 q 56 357 44 371 q 79 329 67 343 q 79 314 86 319 q 63 315 72 308 q 41 342 51 328 q 17 367 31 356 z "},"¨":{"ha":111,"x_min":14,"x_max":104,"o":"m 39 339 q 28 323 39 324 q 14 338 17 322 l 14 342 q 28 356 17 357 q 39 340 39 354 l 39 339 m 99 350 q 92 332 104 336 q 75 340 81 328 l 75 342 q 74 344 75 342 q 81 360 72 356 q 97 354 90 365 l 97 351 q 99 350 97 350 z "},"˙":{"ha":56,"x_min":13,"x_max":44,"o":"m 39 350 q 33 332 44 336 q 14 340 21 328 l 14 344 q 22 360 13 356 q 38 354 31 365 l 38 351 q 39 350 38 350 z "},"˝":{"ha":139,"x_min":11,"x_max":128,"o":"m 49 417 q 61 426 51 428 q 71 414 71 425 q 57 351 68 381 q 35 290 46 322 q 20 283 29 282 q 14 296 11 285 q 35 356 25 328 q 49 417 46 385 m 106 408 q 113 422 104 418 q 126 417 121 426 q 124 392 128 410 q 116 354 121 374 q 106 318 111 335 q 100 297 100 301 q 85 290 94 289 q 78 304 75 292 q 83 320 78 304 q 93 355 88 336 q 103 390 99 374 q 106 408 107 407 z "},"ˇ":{"ha":128,"x_min":13,"x_max":111,"o":"m 15 385 q 19 398 13 393 q 32 397 25 403 q 53 365 44 382 q 71 332 61 349 q 82 382 76 354 q 89 417 88 410 q 101 426 92 428 q 111 414 111 425 q 108 394 111 410 q 100 358 104 378 q 92 323 96 339 q 86 303 88 307 q 67 299 78 288 q 40 341 50 317 q 15 385 31 365 z "},"¸":{"ha":121,"x_min":11,"x_max":111,"o":"m 14 47 q 26 57 17 58 q 36 44 36 56 q 34 29 36 39 q 31 9 32 19 q 32 -11 31 -1 q 39 -26 33 -21 q 57 -35 46 -33 q 79 -40 68 -37 q 99 -48 90 -43 q 110 -67 107 -53 q 104 -86 111 -76 q 87 -103 97 -96 q 64 -115 76 -111 q 43 -117 51 -119 q 38 -114 40 -117 q 33 -111 35 -112 q 31 -95 25 -103 q 47 -94 38 -87 q 54 -95 50 -97 q 63 -92 58 -93 q 86 -67 82 -79 q 40 -48 56 -54 q 17 -32 24 -42 q 11 -6 11 -22 q 14 47 11 11 z "},"ˆ":{"ha":121,"x_min":14,"x_max":115,"o":"m 33 311 q 21 301 28 303 q 14 311 14 300 q 27 358 18 333 q 47 403 36 383 q 65 410 54 414 q 75 394 69 406 q 85 370 81 383 q 95 344 90 357 q 104 324 100 331 q 104 307 115 321 l 103 306 q 88 306 94 300 q 71 340 78 318 q 57 378 64 363 q 44 344 50 363 q 33 311 38 326 z "},"˘":{"ha":150,"x_min":14,"x_max":138,"o":"m 14 376 q 23 389 14 386 q 35 382 32 392 q 51 345 40 357 q 75 334 63 333 q 98 348 88 335 q 113 385 108 361 q 127 393 117 396 q 135 379 138 390 q 112 331 129 347 q 75 313 94 314 q 38 327 56 311 q 14 376 19 343 z "},"´":{"ha":121,"x_min":10,"x_max":113,"o":"m 31 317 q 17 318 24 311 q 15 332 10 325 q 52 376 33 356 q 90 417 71 396 q 106 417 100 424 q 106 401 113 411 q 67 360 86 381 q 31 317 49 340 z "},"":{"ha":81,"x_min":8,"x_max":65,"o":"m 32 -57 q 33 -43 28 -49 q 49 -42 39 -37 q 63 -72 61 -57 q 61 -101 65 -86 q 49 -131 57 -117 q 31 -160 40 -146 q 16 -160 24 -167 q 14 -146 8 -154 q 27 -125 19 -136 q 39 -103 35 -114 q 42 -80 43 -92 q 32 -57 42 -68 z "},"·":{"ha":78,"x_min":26,"x_max":54,"o":"m 26 197 q 42 210 29 213 q 54 193 54 208 q 41 179 53 179 q 26 193 29 179 l 26 197 l 26 197 z "},"¿":{"ha":190,"x_min":19,"x_max":185,"o":"m 161 111 q 176 119 167 121 q 182 106 185 117 q 156 65 174 86 q 115 28 138 43 q 70 8 93 13 q 31 21 47 4 q 22 40 24 26 q 20 67 19 53 q 23 95 21 82 q 28 115 25 108 q 40 156 32 133 q 58 201 49 178 q 75 246 67 224 q 88 285 83 268 q 89 308 92 300 q 74 321 86 315 q 68 335 63 328 q 85 340 74 343 q 99 333 92 338 q 110 319 107 328 q 106 266 115 296 q 81 202 96 236 q 54 132 67 168 q 42 61 42 96 q 59 31 42 32 q 98 43 76 29 q 138 77 119 57 q 161 111 157 97 m 75 399 q 87 414 75 414 q 101 400 99 414 q 87 378 99 376 q 75 399 75 379 z "},"¡":{"ha":75,"x_min":22,"x_max":50,"o":"m 47 21 q 35 10 44 8 q 25 22 25 11 q 28 178 26 101 q 22 335 29 256 q 31 347 22 346 q 43 336 40 347 q 49 178 50 257 q 47 21 49 100 m 25 401 q 24 413 22 406 q 32 419 25 419 q 41 415 39 419 q 42 406 43 410 q 36 399 40 401 q 25 401 32 397 z "},"¦":{"ha":83,"x_min":25,"x_max":58,"o":"m 28 510 q 40 521 31 522 q 49 508 49 519 q 48 354 49 429 q 49 201 47 279 q 38 193 42 194 q 26 199 33 192 q 26 354 25 278 q 28 510 26 431 m 38 -132 q 30 12 32 -58 q 26 154 28 82 q 49 157 33 169 q 51 14 49 85 q 58 -131 53 -57 q 49 -142 58 -142 q 38 -132 40 -143 z "},"‰":{"ha":350,"x_min":11,"x_max":336,"o":"m 64 243 q 30 258 42 243 q 15 292 18 272 q 15 331 11 311 q 31 361 19 350 q 29 375 25 365 q 40 385 33 385 q 99 363 83 385 q 115 314 115 340 q 99 265 114 288 q 64 243 83 243 m 275 421 q 291 422 285 428 q 293 406 297 417 q 223 314 260 360 q 153 220 186 268 q 91 122 119 172 q 44 17 63 72 q 31 8 40 7 q 22 21 22 8 q 70 129 42 78 q 133 230 99 181 q 203 326 167 279 q 275 421 240 372 m 268 247 q 279 240 275 247 q 320 212 306 232 q 335 171 335 192 q 322 135 336 150 q 278 119 307 119 q 250 137 261 119 q 236 177 239 154 q 240 220 233 200 q 268 247 247 240 m 50 264 q 77 274 67 263 q 91 301 88 285 q 90 333 94 317 q 69 357 85 349 q 44 350 53 361 q 33 323 35 339 q 37 290 32 307 q 50 264 42 272 m 279 140 q 305 148 296 138 q 313 173 314 158 q 300 202 311 188 q 265 221 289 217 q 256 201 257 214 q 257 174 254 188 q 266 151 260 161 q 279 140 272 142 m 182 182 q 194 175 190 182 q 235 147 221 167 q 250 106 250 126 q 235 69 250 85 q 192 54 221 54 q 164 72 175 54 q 150 112 153 89 q 154 155 147 135 q 182 182 161 175 m 194 75 q 220 83 211 72 q 228 109 229 94 q 215 138 226 124 q 181 156 204 151 q 171 135 172 149 q 172 109 169 122 q 181 86 175 96 q 194 75 186 76 z "},"†":{"ha":183,"x_min":11,"x_max":174,"o":"m 79 510 q 92 521 82 522 q 101 508 101 519 q 100 188 100 347 q 111 -131 100 29 q 101 -142 111 -142 q 89 -132 92 -143 q 78 190 78 31 q 79 510 78 349 m 22 268 q 12 277 11 269 q 21 289 13 285 l 160 297 q 172 288 171 297 q 163 278 174 279 l 22 268 z "},"‡":{"ha":183,"x_min":11,"x_max":174,"o":"m 79 510 q 92 521 82 522 q 101 508 101 519 q 100 188 100 347 q 111 -131 100 29 q 101 -142 111 -142 q 89 -132 92 -143 q 78 190 78 31 q 79 510 78 349 m 22 268 q 12 277 11 269 q 21 289 13 285 l 160 297 q 172 288 171 297 q 163 278 174 279 l 22 268 m 22 -1 q 12 8 11 1 q 21 21 13 15 l 160 29 q 172 20 171 29 q 163 8 174 11 l 22 -1 z "},"…":{"ha":185,"x_min":14,"x_max":172,"o":"m 14 29 q 28 42 17 44 q 40 25 40 40 q 28 11 40 11 q 14 25 17 11 l 14 29 m 79 29 q 94 42 82 44 q 107 25 107 40 q 94 11 106 11 q 79 25 82 11 l 79 29 m 146 29 q 160 42 149 44 q 172 25 172 40 q 160 11 172 11 q 146 25 149 11 l 146 29 z "},"–":{"ha":208,"x_min":13,"x_max":199,"o":"m 22 160 q 13 169 13 163 q 22 182 14 176 l 185 190 q 197 181 196 190 q 188 169 199 172 l 22 160 z "},"—":{"ha":229,"x_min":13,"x_max":222,"o":"m 22 160 q 13 169 13 163 q 22 182 14 176 l 208 190 q 221 181 219 190 q 211 169 222 172 l 22 160 z "},"‘":{"ha":179,"x_min":47,"x_max":122,"o":"m 85 389 q 97 399 88 400 q 107 386 107 397 q 92 340 103 363 q 76 297 82 318 q 76 259 71 276 q 111 229 82 242 q 117 215 122 222 q 101 210 111 207 q 56 244 65 225 q 52 287 47 264 q 69 335 57 310 q 85 389 81 361 z "},"’":{"ha":179,"x_min":46,"x_max":121,"o":"m 83 388 q 99 334 88 360 q 116 285 111 308 q 112 243 121 263 q 67 208 103 224 q 51 213 57 206 q 57 228 46 221 q 92 258 86 240 q 92 296 97 275 q 76 339 86 317 q 61 385 65 361 q 71 397 61 396 q 83 388 81 399 z "},"“":{"ha":264,"x_min":43,"x_max":206,"o":"m 81 400 q 94 406 86 408 q 101 393 101 404 q 88 349 99 374 q 72 300 78 324 q 71 258 67 276 q 103 235 75 240 q 112 222 114 232 q 99 214 110 211 q 52 243 61 222 q 48 290 43 264 q 65 346 53 317 q 81 400 76 375 m 169 389 q 181 399 172 400 q 190 386 190 397 q 177 340 188 363 q 161 297 167 318 q 161 259 156 276 q 196 229 167 242 q 201 215 206 222 q 185 210 196 207 q 140 244 149 225 q 137 287 132 264 q 153 335 142 310 q 169 389 165 361 z "},"”":{"ha":264,"x_min":51,"x_max":214,"o":"m 176 400 q 192 346 181 375 q 209 290 204 317 q 205 243 214 264 q 158 214 196 222 q 145 222 147 211 q 154 235 143 232 q 185 258 181 240 q 185 300 190 276 q 169 349 179 324 q 154 393 158 374 q 163 406 154 404 q 176 400 171 408 m 88 389 q 103 335 92 361 q 120 287 115 310 q 117 244 125 264 q 72 210 108 225 q 56 215 61 207 q 61 229 51 222 q 96 259 90 242 q 96 297 101 276 q 80 340 90 318 q 67 386 69 363 q 76 399 67 397 q 88 389 85 400 z "},"‹":{"ha":243,"x_min":6,"x_max":235,"o":"m 176 303 q 192 300 188 307 q 190 285 197 293 q 136 240 163 260 q 82 193 110 219 q 36 135 42 157 q 53 94 31 114 q 133 47 89 65 q 224 14 176 29 q 231 -3 235 7 q 215 -8 226 -12 q 121 29 171 11 q 32 82 71 47 q 11 132 6 107 q 42 184 17 157 q 103 240 67 211 q 176 303 140 269 z "},"›":{"ha":222,"x_min":1,"x_max":215,"o":"m 40 294 q 38 310 32 303 q 53 311 43 318 l 128 253 q 201 176 188 208 q 196 114 215 143 q 130 54 176 85 q 22 -19 83 24 q 8 -21 15 -26 q 7 -7 1 -15 q 69 36 39 15 q 129 81 100 57 q 174 124 161 106 q 182 159 186 142 q 160 194 178 176 q 114 236 143 213 q 78 265 96 251 q 40 294 60 279 z "},"«":{"ha":369,"x_min":6,"x_max":354,"o":"m 176 303 q 192 300 188 307 q 190 285 197 293 q 136 240 163 260 q 82 193 110 219 q 36 135 42 157 q 53 94 31 114 q 133 47 89 65 q 224 14 176 29 q 231 -3 235 7 q 215 -8 226 -12 q 121 29 171 11 q 32 82 71 47 q 11 132 6 107 q 42 184 17 157 q 103 240 67 211 q 176 303 140 269 m 296 314 q 313 313 307 319 q 310 296 318 306 q 256 251 282 271 q 201 206 229 232 q 156 147 161 168 q 172 107 151 125 q 252 59 208 76 q 343 25 296 42 q 350 10 354 19 q 335 4 346 0 q 241 42 292 24 q 153 93 190 60 q 132 144 126 118 q 162 196 138 169 q 223 251 186 222 q 296 314 260 281 z "},"»":{"ha":339,"x_min":1,"x_max":329,"o":"m 40 294 q 38 310 32 303 q 53 311 43 318 l 128 253 q 201 176 188 208 q 196 114 215 143 q 130 54 176 85 q 22 -19 83 24 q 8 -21 15 -26 q 7 -7 1 -15 q 69 36 39 15 q 129 81 100 57 q 174 124 161 106 q 182 159 186 142 q 160 194 178 176 q 114 236 143 213 q 78 265 96 251 q 40 294 60 279 m 153 296 q 151 312 144 304 q 165 313 157 319 l 240 254 q 315 177 300 210 q 310 115 329 144 q 244 56 290 86 q 136 -18 197 25 q 121 -19 128 -25 q 119 -6 114 -14 q 182 38 151 17 q 243 82 213 58 q 286 124 274 106 q 294 160 299 143 q 273 195 290 176 q 226 238 256 214 q 190 267 208 253 q 153 296 172 281 z "},"§":{"ha":314,"x_min":13,"x_max":307,"o":"m 206 375 q 209 363 214 368 q 194 357 204 357 q 159 363 179 361 q 119 366 139 365 q 81 366 99 367 q 51 363 63 365 q 42 356 44 360 q 47 344 40 351 q 82 317 61 331 q 126 288 103 303 q 172 258 149 274 q 215 228 196 243 q 256 233 235 232 q 296 238 276 235 q 303 227 307 235 q 292 217 300 219 l 235 210 q 254 174 253 192 q 246 142 256 157 q 219 115 236 126 q 181 100 201 104 q 138 95 163 96 q 89 100 113 94 q 47 117 65 106 q 26 149 29 129 q 47 172 26 160 q 92 194 67 183 q 144 212 118 204 q 182 222 169 219 q 131 257 158 239 q 78 291 103 275 q 37 320 54 307 q 17 342 19 333 q 15 366 13 354 q 32 382 17 378 q 67 388 46 386 q 110 390 88 390 q 158 385 133 389 q 206 375 183 382 m 133 269 q 88 270 110 271 q 51 267 65 269 q 42 260 44 264 q 47 249 40 256 q 82 221 61 235 q 128 190 103 207 q 181 155 153 174 q 235 114 208 136 q 254 78 253 96 q 246 46 256 61 q 219 19 236 31 q 181 4 201 8 q 138 -1 163 0 q 89 4 113 -1 q 47 22 65 10 q 26 53 29 33 q 38 69 26 61 q 67 86 49 78 q 81 83 79 86 q 78 71 83 81 q 50 53 51 57 q 64 35 50 42 q 97 24 78 28 q 137 19 117 19 q 168 22 157 19 q 228 58 217 33 q 204 110 240 82 q 140 154 172 133 q 82 193 108 175 q 38 224 56 211 q 17 246 19 238 q 15 269 13 257 q 32 286 17 281 q 100 293 60 293 l 133 269 m 168 119 q 228 154 217 131 q 204 206 240 178 q 157 195 183 203 q 108 179 131 188 q 68 163 85 171 q 50 149 51 154 q 64 131 50 138 q 97 120 78 124 q 137 117 117 117 q 168 119 157 117 z "},"©":{"ha":483,"x_min":10,"x_max":476,"o":"m 297 396 q 296 381 303 386 q 370 354 331 375 q 437 302 410 333 q 470 231 464 271 q 446 144 476 190 q 398 92 428 118 q 331 45 368 65 q 251 13 294 25 q 165 4 208 1 q 85 37 118 8 q 33 105 51 65 q 13 190 15 144 q 25 275 10 236 q 42 313 33 299 q 63 337 51 326 q 88 357 74 347 q 121 382 101 367 q 156 398 133 390 q 206 410 179 406 q 257 411 232 414 q 297 396 282 408 m 154 363 q 143 354 150 356 q 133 360 136 353 q 60 301 85 343 q 34 210 36 258 q 51 116 32 161 q 111 46 71 71 q 140 33 125 38 q 168 26 154 29 q 232 27 194 18 q 308 56 269 36 q 379 103 346 75 q 431 165 413 132 q 446 233 449 199 q 410 300 443 268 q 351 339 385 324 q 286 361 318 354 q 258 365 279 363 q 216 369 238 368 q 176 369 194 369 q 154 363 157 368 m 253 265 q 238 267 244 260 q 172 240 203 264 q 132 192 142 217 q 143 153 122 168 q 231 157 164 139 q 262 168 247 163 q 292 179 276 174 q 305 171 303 179 q 297 157 307 163 q 267 146 283 153 q 235 136 251 139 q 208 131 221 133 q 183 128 196 128 q 126 140 143 126 q 108 172 108 153 q 119 213 107 190 q 153 253 132 235 q 199 281 174 271 q 250 288 225 292 q 256 269 265 283 l 253 265 m 272 385 q 242 390 260 390 q 258 388 251 389 q 272 385 265 386 z "},"®":{"ha":483,"x_min":10,"x_max":476,"o":"m 297 396 q 296 381 303 386 q 370 354 331 375 q 437 302 410 333 q 470 231 464 271 q 446 144 476 190 q 398 92 428 118 q 331 45 368 65 q 251 13 294 25 q 165 4 208 1 q 85 37 118 8 q 33 105 51 65 q 13 190 15 144 q 25 275 10 236 q 42 313 33 299 q 63 337 51 326 q 88 357 74 347 q 121 382 101 367 q 156 398 133 390 q 206 410 179 406 q 257 411 232 414 q 297 396 282 408 m 160 296 q 172 307 163 308 q 182 294 182 306 l 182 264 q 223 306 197 296 q 265 306 249 315 q 280 294 274 301 q 284 273 286 286 q 267 240 282 260 q 218 189 253 219 q 310 164 264 181 q 397 128 357 147 l 400 125 q 430 167 418 144 q 444 211 442 189 q 440 256 447 233 q 410 300 432 279 q 351 339 385 324 q 286 361 318 354 q 258 365 279 363 q 216 369 238 368 q 176 369 194 369 q 154 363 157 368 q 143 354 150 356 q 133 360 136 353 q 60 301 85 343 q 34 210 36 258 q 51 116 32 161 q 111 46 71 71 q 140 33 125 38 q 168 26 154 29 q 216 24 189 21 q 273 40 243 28 q 332 69 303 51 q 385 110 361 88 q 279 152 332 135 q 182 172 226 169 q 181 135 181 153 q 179 107 181 118 l 179 104 l 178 104 q 166 99 172 97 q 157 110 160 100 q 160 203 160 157 q 160 296 160 249 m 258 286 q 226 283 239 289 q 206 264 214 276 q 192 233 197 251 q 185 197 188 215 q 212 214 197 203 q 238 238 226 225 q 256 265 250 251 q 258 286 263 278 m 272 385 q 242 390 260 390 q 258 388 251 389 q 272 385 265 386 z "},"Æ":{"ha":374,"x_min":0,"x_max":364,"o":"m 344 168 q 282 158 319 165 q 203 143 244 151 q 122 126 161 135 q 57 111 83 117 l 31 3 q 17 -1 24 -3 q 10 10 11 1 q 20 51 13 22 q 32 103 28 79 l 17 99 q 2 109 4 100 q 10 121 0 118 l 39 128 q 73 275 53 203 q 108 422 93 347 q 118 427 111 428 q 129 417 125 426 l 135 383 l 124 310 l 118 349 l 63 136 q 99 144 67 136 q 175 162 132 153 q 263 179 218 171 q 336 190 308 188 q 350 181 347 189 q 344 168 353 172 m 119 196 q 111 319 108 265 q 140 407 114 372 q 170 418 147 415 q 219 421 193 421 q 269 419 244 421 q 301 418 293 418 q 311 407 311 415 q 300 396 311 399 q 261 397 283 396 q 217 399 239 399 q 178 398 196 400 q 154 390 161 396 q 135 328 139 375 q 138 225 131 281 q 166 97 149 150 q 204 33 183 44 q 237 32 217 26 q 278 47 257 38 q 318 68 299 57 q 349 85 338 79 q 361 77 358 85 q 354 64 364 69 q 317 43 336 54 q 278 24 299 32 q 238 12 258 15 q 196 14 217 8 q 164 44 176 19 q 147 83 151 68 q 133 135 140 106 q 119 196 126 164 z "},"æ":{"ha":332,"x_min":10,"x_max":321,"o":"m 193 208 q 188 194 196 201 q 174 194 181 188 q 188 139 179 168 q 204 83 196 110 q 222 34 213 56 q 240 1 232 13 q 235 -13 243 -7 q 221 -12 228 -19 q 189 60 197 22 q 171 138 181 97 l 164 161 q 138 94 157 124 q 106 63 125 78 q 69 42 88 47 q 35 47 50 38 q 14 89 19 57 q 19 148 10 118 q 48 202 29 178 q 91 242 67 226 q 138 261 115 258 l 138 267 q 147 276 140 274 q 158 272 153 279 l 161 256 q 193 208 185 246 m 121 103 q 143 168 140 133 q 142 238 146 203 q 104 228 125 240 q 67 196 83 217 q 40 149 50 175 q 35 101 31 124 q 49 70 39 78 q 71 65 58 63 q 97 77 83 67 q 121 103 110 88 m 175 153 q 185 197 176 175 q 207 235 193 219 q 238 256 221 250 q 272 253 254 263 q 305 215 301 238 q 294 172 308 192 q 255 137 281 151 q 199 124 229 122 q 233 92 207 100 q 308 113 260 85 q 320 107 321 115 q 313 93 319 99 q 265 73 290 81 q 213 78 239 65 q 185 101 197 85 q 175 153 174 117 m 261 232 q 233 231 246 238 q 212 212 221 225 q 198 181 203 199 q 193 147 193 164 q 238 150 218 140 q 270 175 258 160 q 281 207 282 190 q 261 232 279 224 z "},"Œ":{"ha":425,"x_min":-3,"x_max":415,"o":"m 225 49 q 178 35 201 40 q 131 32 154 31 q 42 78 74 35 q 3 176 10 121 q 15 284 -3 231 q 75 363 33 338 l 81 367 l 79 367 q 74 377 76 374 q 75 388 72 381 q 98 397 82 397 q 132 389 114 396 q 185 361 157 381 l 174 343 q 131 365 154 357 q 100 351 113 358 q 86 344 88 344 q 37 272 53 319 q 26 177 21 225 q 57 93 31 129 q 136 54 83 57 q 213 67 175 51 l 225 49 m 138 181 q 124 187 125 178 q 131 201 122 196 l 168 217 q 163 321 160 269 q 192 407 165 372 q 222 418 199 415 q 270 421 244 421 q 320 419 296 421 q 353 418 344 418 q 363 407 363 415 q 351 396 363 399 q 313 397 335 396 q 270 399 292 399 q 231 398 249 400 q 207 390 214 396 q 187 328 190 375 q 190 225 183 281 q 291 255 240 243 q 393 279 342 267 q 406 272 404 279 q 400 258 408 264 q 295 234 347 246 q 192 203 243 222 q 203 146 196 174 q 218 95 210 118 q 235 56 226 72 q 256 33 244 39 q 288 32 268 26 q 329 47 308 38 q 369 68 350 57 q 400 85 389 79 q 413 77 410 85 q 406 64 415 69 q 369 43 388 54 q 331 24 350 32 q 290 12 311 15 q 247 14 269 8 q 215 44 228 19 q 199 83 203 68 q 185 135 192 106 q 172 196 178 164 l 138 181 z "},"œ":{"ha":276,"x_min":7,"x_max":263,"o":"m 142 94 q 103 54 131 64 q 49 57 76 44 q 17 87 28 64 q 18 146 7 110 q 42 195 26 169 q 75 232 58 221 q 83 249 72 239 q 99 250 93 258 q 122 219 113 236 q 138 185 131 203 l 124 154 q 114 190 121 174 q 96 217 107 207 q 65 194 81 213 q 41 153 50 175 q 33 110 32 131 q 53 81 35 89 q 103 76 86 64 q 124 111 119 88 l 142 94 m 117 140 q 126 185 118 163 q 149 222 135 207 q 179 244 163 238 q 214 240 196 250 q 247 202 243 225 q 236 159 250 179 q 197 124 222 139 q 140 111 171 110 q 175 80 149 88 q 250 100 201 72 q 262 94 263 103 q 254 81 261 86 q 206 60 232 68 q 154 65 181 53 q 127 88 139 72 q 117 140 115 104 m 203 219 q 175 219 188 225 q 153 199 163 213 q 140 169 144 186 q 135 135 135 151 q 180 138 160 128 q 212 163 200 147 q 222 194 224 178 q 203 219 221 211 z "},"™":{"ha":340,"x_min":10,"x_max":326,"o":"m 167 271 q 152 272 158 265 q 151 288 146 279 q 178 342 171 317 q 189 401 186 367 q 198 410 190 408 q 208 406 206 413 q 217 378 214 390 q 222 353 219 365 q 228 331 224 342 q 240 311 232 321 q 250 365 251 336 q 251 421 249 393 q 269 429 254 438 q 283 406 275 425 q 298 364 290 388 q 312 318 306 340 q 322 285 318 296 q 317 269 326 274 q 303 276 307 265 l 272 368 q 267 318 272 342 q 243 288 263 294 q 239 287 240 286 q 235 288 238 288 q 214 315 221 300 q 201 346 207 331 q 167 271 193 310 m 21 386 q 10 397 10 389 q 18 408 10 404 q 85 419 51 410 q 97 421 93 422 q 125 426 111 424 q 154 429 139 429 q 167 420 165 429 q 156 408 168 411 q 129 405 142 407 q 104 400 117 403 q 106 335 104 368 q 108 269 108 301 q 99 257 108 257 q 86 268 89 257 q 85 332 86 300 q 83 396 83 364 q 52 390 68 393 q 21 386 36 388 z "},"×":{"ha":182,"x_min":13,"x_max":174,"o":"m 118 263 q 131 269 124 272 q 139 257 139 267 q 122 219 132 238 q 101 182 113 200 q 138 128 121 154 q 167 89 156 101 q 167 74 174 79 q 150 75 160 68 q 124 110 140 86 q 88 163 107 135 q 61 122 74 142 q 38 81 49 101 q 23 73 32 71 q 15 86 14 75 q 44 134 28 111 q 75 181 60 157 q 47 217 60 201 q 25 240 33 233 q 15 242 18 238 q 13 252 13 247 q 18 261 14 257 q 29 263 22 265 q 56 242 40 260 q 88 200 71 224 q 105 231 97 215 q 118 263 113 247 z "},"÷":{"ha":236,"x_min":13,"x_max":224,"o":"m 24 172 q 13 183 13 174 q 25 194 14 193 l 208 204 q 222 194 219 204 q 213 182 224 185 l 24 172 m 106 128 q 118 140 108 140 q 131 128 128 139 q 119 114 131 114 q 106 126 108 114 l 106 128 m 119 256 q 122 242 125 247 q 114 235 119 238 q 103 236 108 233 q 99 247 99 239 q 106 259 99 258 q 119 256 114 260 z "},"¶":{"ha":297,"x_min":7,"x_max":285,"o":"m 229 393 q 242 286 236 340 q 253 176 249 232 q 272 170 260 176 q 282 153 285 164 q 253 129 279 136 q 253 104 253 119 q 254 73 254 89 q 253 42 254 57 q 253 17 253 26 q 242 7 251 8 q 228 13 232 6 q 227 30 228 14 q 226 65 226 46 q 226 103 226 85 q 225 125 225 121 q 165 125 196 124 q 164 61 165 93 q 158 -3 163 29 q 147 -11 154 -11 q 138 0 139 -11 q 142 64 140 32 q 144 128 144 96 l 114 135 q 53 162 78 143 q 18 208 28 181 q 13 269 7 240 q 35 324 19 299 q 71 369 50 349 q 111 403 92 389 q 129 413 117 407 q 155 420 142 418 q 181 419 168 422 q 201 406 194 417 l 208 394 q 219 401 211 401 q 229 393 226 400 m 183 392 q 154 399 169 403 l 156 394 q 162 270 158 332 q 165 146 165 208 q 194 144 181 143 q 224 146 208 144 q 219 222 221 182 q 213 296 217 261 q 201 356 208 331 q 183 392 194 382 m 253 157 l 253 153 l 254 153 q 257 154 254 153 l 253 157 z "},"Á":{"ha":276,"x_min":0,"x_max":269,"o":"m 15 100 q 2 110 4 101 q 10 122 0 119 l 36 128 q 74 275 54 203 q 108 422 93 347 q 118 427 111 428 q 129 417 125 426 q 136 373 131 403 q 149 306 142 343 q 165 228 156 268 q 182 153 174 188 l 254 160 q 267 149 265 157 q 261 138 269 142 q 186 129 224 135 q 211 65 194 97 q 253 22 228 32 q 260 7 264 17 q 244 1 257 -3 q 164 128 193 19 q 110 119 136 124 q 57 110 85 115 l 31 3 q 17 -1 24 -3 q 10 10 11 1 q 19 51 13 22 q 32 103 26 79 l 15 100 m 61 135 q 110 142 85 139 q 158 149 135 146 q 133 257 143 201 q 118 349 124 313 l 61 135 m 83 454 q 69 456 76 449 q 68 469 63 463 q 105 513 86 493 q 143 554 124 533 q 159 555 153 561 q 158 539 165 549 q 120 498 139 518 q 83 454 101 478 z "},"Ă":{"ha":276,"x_min":0,"x_max":269,"o":"m 15 100 q 2 110 4 101 q 10 122 0 119 l 36 128 q 74 275 54 203 q 108 422 93 347 q 118 427 111 428 q 129 417 125 426 q 136 373 131 403 q 149 306 142 343 q 165 228 156 268 q 182 153 174 188 l 254 160 q 267 149 265 157 q 261 138 269 142 q 186 129 224 135 q 211 65 194 97 q 253 22 228 32 q 260 7 264 17 q 244 1 257 -3 q 164 128 193 19 q 110 119 136 124 q 57 110 85 115 l 31 3 q 17 -1 24 -3 q 10 10 11 1 q 19 51 13 22 q 32 103 26 79 l 15 100 m 61 135 q 110 142 85 139 q 158 149 135 146 q 133 257 143 201 q 118 349 124 313 l 61 135 m 53 515 q 62 528 53 525 q 74 521 71 531 q 90 484 79 496 q 114 473 101 472 q 137 487 126 474 q 151 524 147 500 q 166 532 156 535 q 174 518 176 529 q 151 469 168 486 q 114 451 133 453 q 76 466 94 450 q 53 515 58 482 z "},"Â":{"ha":276,"x_min":0,"x_max":269,"o":"m 15 100 q 2 110 4 101 q 10 122 0 119 l 36 128 q 74 275 54 203 q 108 422 93 347 q 118 427 111 428 q 129 417 125 426 q 136 373 131 403 q 149 306 142 343 q 165 228 156 268 q 182 153 174 188 l 254 160 q 267 149 265 157 q 261 138 269 142 q 186 129 224 135 q 211 65 194 97 q 253 22 228 32 q 260 7 264 17 q 244 1 257 -3 q 164 128 193 19 q 110 119 136 124 q 57 110 85 115 l 31 3 q 17 -1 24 -3 q 10 10 11 1 q 19 51 13 22 q 32 103 26 79 l 15 100 m 61 135 q 110 142 85 139 q 158 149 135 146 q 133 257 143 201 q 118 349 124 313 l 61 135 m 90 449 q 78 439 85 440 q 71 449 71 438 q 84 496 75 471 q 104 540 93 521 q 122 547 111 551 q 132 532 126 543 q 142 508 138 521 q 152 481 147 494 q 161 461 157 468 q 161 444 172 458 l 160 443 q 144 443 151 438 q 128 478 135 456 q 114 515 121 500 q 101 482 107 500 q 90 449 94 464 z "},"À":{"ha":276,"x_min":0,"x_max":269,"o":"m 15 100 q 2 110 4 101 q 10 122 0 119 l 36 128 q 74 275 54 203 q 108 422 93 347 q 118 427 111 428 q 129 417 125 426 q 136 373 131 403 q 149 306 142 343 q 165 228 156 268 q 182 153 174 188 l 254 160 q 267 149 265 157 q 261 138 269 142 q 186 129 224 135 q 211 65 194 97 q 253 22 228 32 q 260 7 264 17 q 244 1 257 -3 q 164 128 193 19 q 110 119 136 124 q 57 110 85 115 l 31 3 q 17 -1 24 -3 q 10 10 11 1 q 19 51 13 22 q 32 103 26 79 l 15 100 m 61 135 q 110 142 85 139 q 158 149 135 146 q 133 257 143 201 q 118 349 124 313 l 61 135 m 93 504 q 91 520 85 513 q 107 521 97 528 q 132 494 121 508 q 156 467 143 481 q 156 451 163 457 q 139 453 149 446 q 117 479 128 465 q 93 504 107 493 z "},"Ä":{"ha":276,"x_min":0,"x_max":269,"o":"m 15 100 q 2 110 4 101 q 10 122 0 119 l 36 128 q 74 275 54 203 q 108 422 93 347 q 118 427 111 428 q 129 417 125 426 q 136 373 131 403 q 149 306 142 343 q 165 228 156 268 q 182 153 174 188 l 254 160 q 267 149 265 157 q 261 138 269 142 q 186 129 224 135 q 211 65 194 97 q 253 22 228 32 q 260 7 264 17 q 244 1 257 -3 q 164 128 193 19 q 110 119 136 124 q 57 110 85 115 l 31 3 q 17 -1 24 -3 q 10 10 11 1 q 19 51 13 22 q 32 103 26 79 l 15 100 m 61 135 q 110 142 85 139 q 158 149 135 146 q 133 257 143 201 q 118 349 124 313 l 61 135 m 97 476 q 86 460 97 461 q 72 475 75 460 l 72 479 q 86 493 75 494 q 97 478 97 492 l 97 476 m 157 488 q 151 469 163 474 q 133 478 139 465 l 133 479 q 132 482 133 479 q 140 498 131 493 q 156 492 149 503 l 156 489 q 157 488 156 488 z "},"Ā":{"ha":276,"x_min":0,"x_max":269,"o":"m 15 100 q 2 110 4 101 q 10 122 0 119 l 36 128 q 74 275 54 203 q 108 422 93 347 q 118 427 111 428 q 129 417 125 426 q 136 373 131 403 q 149 306 142 343 q 165 228 156 268 q 182 153 174 188 l 254 160 q 267 149 265 157 q 261 138 269 142 q 186 129 224 135 q 211 65 194 97 q 253 22 228 32 q 260 7 264 17 q 244 1 257 -3 q 164 128 193 19 q 110 119 136 124 q 57 110 85 115 l 31 3 q 17 -1 24 -3 q 10 10 11 1 q 19 51 13 22 q 32 103 26 79 l 15 100 m 61 135 q 110 142 85 139 q 158 149 135 146 q 133 257 143 201 q 118 349 124 313 l 61 135 m 53 476 q 43 485 43 478 q 51 497 43 493 q 116 503 83 503 q 182 500 149 503 q 192 489 192 497 q 181 478 192 481 q 117 481 149 481 q 53 476 86 481 z "},"Ą":{"ha":276,"x_min":0,"x_max":296,"o":"m 15 100 q 2 110 4 101 q 10 122 0 119 l 36 128 q 74 275 54 203 q 108 422 93 347 q 118 427 111 428 q 129 417 125 426 q 136 373 131 403 q 149 306 142 343 q 165 228 156 268 q 182 153 174 188 l 254 160 q 267 149 265 157 q 261 138 269 142 q 186 129 224 135 q 211 65 194 97 q 253 22 228 32 q 260 7 264 17 q 244 1 257 -3 q 164 128 193 19 q 110 119 136 124 q 57 110 85 115 l 31 3 q 17 -1 24 -3 q 10 10 11 1 q 19 51 13 22 q 32 103 26 79 l 15 100 m 61 135 q 110 142 85 139 q 158 149 135 146 q 133 257 143 201 q 118 349 124 313 l 61 135 m 240 18 q 258 19 251 25 q 257 3 264 13 q 238 -28 246 -12 q 225 -64 229 -44 q 238 -62 231 -65 q 254 -56 246 -60 q 269 -49 263 -53 q 281 -43 276 -46 q 293 -51 290 -43 q 286 -65 296 -60 q 226 -85 244 -86 q 205 -71 207 -85 q 213 -33 203 -57 q 240 18 224 -10 z "},"Å":{"ha":276,"x_min":0,"x_max":269,"o":"m 15 100 q 2 110 4 101 q 10 122 0 119 l 36 128 q 74 275 54 203 q 108 422 93 347 q 118 427 111 428 q 129 417 125 426 q 136 373 131 403 q 149 306 142 343 q 165 228 156 268 q 182 153 174 188 l 254 160 q 267 149 265 157 q 261 138 269 142 q 186 129 224 135 q 211 65 194 97 q 253 22 228 32 q 260 7 264 17 q 244 1 257 -3 q 164 128 193 19 q 110 119 136 124 q 57 110 85 115 l 31 3 q 17 -1 24 -3 q 10 10 11 1 q 19 51 13 22 q 32 103 26 79 l 15 100 m 61 135 q 110 142 85 139 q 158 149 135 146 q 133 257 143 201 q 118 349 124 313 l 61 135 m 118 518 q 131 511 126 518 q 147 492 142 503 q 151 471 153 481 q 139 455 149 461 q 111 450 129 449 q 81 471 85 451 q 92 506 78 490 q 91 517 89 511 q 101 522 93 522 l 115 518 l 118 518 m 113 471 q 130 478 132 468 q 115 494 128 488 q 101 482 106 490 q 113 471 97 474 z "},"Ã":{"ha":276,"x_min":0,"x_max":269,"o":"m 15 100 q 2 110 4 101 q 10 122 0 119 l 36 128 q 74 275 54 203 q 108 422 93 347 q 118 427 111 428 q 129 417 125 426 q 136 373 131 403 q 149 306 142 343 q 165 228 156 268 q 182 153 174 188 l 254 160 q 267 149 265 157 q 261 138 269 142 q 186 129 224 135 q 211 65 194 97 q 253 22 228 32 q 260 7 264 17 q 244 1 257 -3 q 164 128 193 19 q 110 119 136 124 q 57 110 85 115 l 31 3 q 17 -1 24 -3 q 10 10 11 1 q 19 51 13 22 q 32 103 26 79 l 15 100 m 61 135 q 110 142 85 139 q 158 149 135 146 q 133 257 143 201 q 118 349 124 313 l 61 135 m 79 465 q 68 455 76 454 q 58 468 60 456 q 63 493 57 482 q 75 515 68 504 q 97 525 86 531 q 116 507 107 519 q 133 483 125 494 q 146 474 140 471 q 154 489 151 476 q 157 511 157 501 q 167 519 157 522 q 178 504 176 515 q 176 484 178 496 q 167 463 174 472 q 152 451 161 454 q 131 458 143 449 q 112 478 119 467 q 94 501 104 490 q 83 485 88 494 q 79 465 79 476 z "},"Ǽ":{"ha":374,"x_min":0,"x_max":364,"o":"m 344 168 q 282 158 319 165 q 203 143 244 151 q 122 126 161 135 q 57 111 83 117 l 31 3 q 17 -1 24 -3 q 10 10 11 1 q 20 51 13 22 q 32 103 28 79 l 17 99 q 2 109 4 100 q 10 121 0 118 l 39 128 q 73 275 53 203 q 108 422 93 347 q 118 427 111 428 q 129 417 125 426 l 135 383 l 124 310 l 118 349 l 63 136 q 99 144 67 136 q 175 162 132 153 q 263 179 218 171 q 336 190 308 188 q 350 181 347 189 q 344 168 353 172 m 119 196 q 111 319 108 265 q 140 407 114 372 q 170 418 147 415 q 219 421 193 421 q 269 419 244 421 q 301 418 293 418 q 311 407 311 415 q 300 396 311 399 q 261 397 283 396 q 217 399 239 399 q 178 398 196 400 q 154 390 161 396 q 135 328 139 375 q 138 225 131 281 q 166 97 149 150 q 204 33 183 44 q 237 32 217 26 q 278 47 257 38 q 318 68 299 57 q 349 85 338 79 q 361 77 358 85 q 354 64 364 69 q 317 43 336 54 q 278 24 299 32 q 238 12 258 15 q 196 14 217 8 q 164 44 176 19 q 147 83 151 68 q 133 135 140 106 q 119 196 126 164 m 156 454 q 142 456 149 449 q 140 469 135 463 q 177 513 158 493 q 215 554 196 533 q 231 555 225 561 q 231 539 238 549 q 192 498 211 518 q 156 454 174 478 z "},"Ć":{"ha":371,"x_min":4,"x_max":365,"o":"m 128 411 q 160 414 142 415 q 196 406 179 413 q 223 386 213 399 q 231 357 233 374 q 225 342 231 347 q 214 336 219 338 q 205 339 208 335 q 206 353 201 343 q 204 374 211 365 q 185 388 197 383 q 158 394 172 393 q 135 392 144 394 q 95 369 113 385 q 65 333 78 353 q 44 292 53 314 q 32 249 36 269 q 31 171 25 211 q 56 99 36 131 q 124 42 85 53 q 202 41 163 31 q 278 78 242 51 q 342 135 315 104 q 359 135 353 142 q 358 119 365 129 q 310 71 336 93 q 253 34 283 49 q 188 15 222 19 q 119 21 154 11 q 63 53 86 29 q 26 110 39 78 q 8 181 13 143 q 11 254 4 218 q 24 303 15 279 q 48 349 33 328 q 82 387 63 371 q 128 411 101 403 m 106 454 q 92 456 99 449 q 90 469 85 463 q 127 513 108 493 q 165 554 146 533 q 181 555 175 561 q 181 539 188 549 q 142 498 161 518 q 106 454 124 478 z "},"Ç":{"ha":371,"x_min":4,"x_max":365,"o":"m 185 31 q 181 -1 182 15 q 189 -26 179 -17 q 207 -35 196 -33 q 229 -40 218 -37 q 249 -48 240 -43 q 260 -67 257 -53 q 254 -86 261 -76 q 237 -103 247 -96 q 214 -115 226 -111 q 193 -117 201 -119 q 188 -114 190 -117 q 183 -111 185 -112 q 181 -95 175 -103 q 197 -94 188 -87 q 205 -95 200 -97 q 213 -92 210 -93 q 236 -67 232 -79 q 191 -49 207 -54 q 169 -35 175 -43 q 162 -14 163 -28 q 164 29 161 0 l 185 31 m 128 411 q 160 414 142 415 q 196 406 179 413 q 223 386 213 399 q 231 357 233 374 q 225 342 231 347 q 214 336 219 338 q 205 339 208 335 q 206 353 201 343 q 204 374 211 365 q 185 388 197 383 q 158 394 172 393 q 135 392 144 394 q 95 369 113 385 q 65 333 78 353 q 44 292 53 314 q 32 249 36 269 q 31 171 25 211 q 56 99 36 131 q 124 42 85 53 q 202 41 163 31 q 278 78 242 51 q 342 135 315 104 q 359 135 353 142 q 358 119 365 129 q 310 71 336 93 q 253 34 283 49 q 188 15 222 19 q 119 21 154 11 q 63 53 86 29 q 26 110 39 78 q 8 181 13 143 q 11 254 4 218 q 24 303 15 279 q 48 349 33 328 q 82 387 63 371 q 128 411 101 403 z "},"Ĉ":{"ha":371,"x_min":4,"x_max":365,"o":"m 128 411 q 160 414 142 415 q 196 406 179 413 q 223 386 213 399 q 231 357 233 374 q 225 342 231 347 q 214 336 219 338 q 205 339 208 335 q 206 353 201 343 q 204 374 211 365 q 185 388 197 383 q 158 394 172 393 q 135 392 144 394 q 95 369 113 385 q 65 333 78 353 q 44 292 53 314 q 32 249 36 269 q 31 171 25 211 q 56 99 36 131 q 124 42 85 53 q 202 41 163 31 q 278 78 242 51 q 342 135 315 104 q 359 135 353 142 q 358 119 365 129 q 310 71 336 93 q 253 34 283 49 q 188 15 222 19 q 119 21 154 11 q 63 53 86 29 q 26 110 39 78 q 8 181 13 143 q 11 254 4 218 q 24 303 15 279 q 48 349 33 328 q 82 387 63 371 q 128 411 101 403 m 121 457 q 108 447 115 449 q 101 457 101 446 q 115 504 106 479 q 135 549 124 529 q 153 556 142 560 q 163 540 157 551 q 173 516 168 529 q 183 490 178 503 q 192 469 188 476 q 192 453 203 467 l 190 451 q 175 451 182 446 q 158 486 165 464 q 144 524 151 508 q 131 490 138 508 q 121 457 125 472 z "},"Ċ":{"ha":371,"x_min":4,"x_max":365,"o":"m 128 411 q 160 414 142 415 q 196 406 179 413 q 223 386 213 399 q 231 357 233 374 q 225 342 231 347 q 214 336 219 338 q 205 339 208 335 q 206 353 201 343 q 204 374 211 365 q 185 388 197 383 q 158 394 172 393 q 135 392 144 394 q 95 369 113 385 q 65 333 78 353 q 44 292 53 314 q 32 249 36 269 q 31 171 25 211 q 56 99 36 131 q 124 42 85 53 q 202 41 163 31 q 278 78 242 51 q 342 135 315 104 q 359 135 353 142 q 358 119 365 129 q 310 71 336 93 q 253 34 283 49 q 188 15 222 19 q 119 21 154 11 q 63 53 86 29 q 26 110 39 78 q 8 181 13 143 q 11 254 4 218 q 24 303 15 279 q 48 349 33 328 q 82 387 63 371 q 128 411 101 403 m 158 478 q 152 460 164 464 q 133 468 140 456 l 133 472 q 141 488 132 483 q 157 482 150 493 l 157 479 q 158 478 157 478 z "},"Č":{"ha":371,"x_min":4,"x_max":365,"o":"m 128 411 q 160 414 142 415 q 196 406 179 413 q 223 386 213 399 q 231 357 233 374 q 225 342 231 347 q 214 336 219 338 q 205 339 208 335 q 206 353 201 343 q 204 374 211 365 q 185 388 197 383 q 158 394 172 393 q 135 392 144 394 q 95 369 113 385 q 65 333 78 353 q 44 292 53 314 q 32 249 36 269 q 31 171 25 211 q 56 99 36 131 q 124 42 85 53 q 202 41 163 31 q 278 78 242 51 q 342 135 315 104 q 359 135 353 142 q 358 119 365 129 q 310 71 336 93 q 253 34 283 49 q 188 15 222 19 q 119 21 154 11 q 63 53 86 29 q 26 110 39 78 q 8 181 13 143 q 11 254 4 218 q 24 303 15 279 q 48 349 33 328 q 82 387 63 371 q 128 411 101 403 m 88 532 q 91 545 85 540 q 104 544 97 550 q 125 513 117 529 q 143 479 133 496 q 154 529 149 501 q 161 564 160 557 q 174 574 164 575 q 183 561 183 572 q 180 541 183 557 q 172 506 176 525 q 164 470 168 486 q 158 450 160 454 q 139 446 150 435 q 113 488 122 464 q 88 532 103 513 z "},"Ď":{"ha":411,"x_min":4,"x_max":406,"o":"m 4 51 q 9 148 7 100 q 14 244 11 196 q 13 347 11 300 q 31 410 14 393 q 44 423 38 417 q 57 431 50 429 q 89 424 68 433 q 131 401 110 414 q 171 374 153 388 q 197 356 189 360 q 247 322 215 343 q 310 275 279 300 q 367 224 342 250 q 396 175 392 197 q 378 92 406 129 q 308 33 351 56 q 213 3 264 10 q 121 13 161 -3 q 119 28 114 21 q 135 29 125 36 q 174 19 149 18 q 229 28 200 19 q 288 51 258 36 q 340 86 318 67 q 373 127 363 106 q 375 171 383 149 q 347 209 368 186 q 297 256 326 232 q 234 306 268 281 q 167 353 200 332 q 107 389 135 374 q 63 408 79 404 q 44 373 50 396 q 37 324 39 350 q 35 271 35 297 q 35 225 36 244 q 40 122 39 171 q 26 49 42 72 l 26 43 l 24 44 q 22 43 22 44 q 10 42 15 40 q 4 51 6 44 m 14 560 q 17 573 11 568 q 31 572 24 578 q 51 540 43 557 q 69 507 60 524 q 81 557 75 529 q 88 592 86 585 q 100 601 90 603 q 110 589 110 600 q 106 569 110 585 q 99 533 103 553 q 90 498 94 514 q 85 478 86 482 q 65 474 76 463 q 39 516 49 492 q 14 560 29 540 z "},"Đ":{"ha":431,"x_min":1,"x_max":421,"o":"m 19 51 q 24 148 22 100 q 29 244 26 196 q 28 347 26 300 q 46 410 29 393 q 59 423 53 417 q 72 431 65 429 q 104 424 83 433 q 147 401 125 414 q 186 374 168 388 q 213 356 204 360 q 263 322 231 343 q 326 275 294 300 q 382 224 357 250 q 411 175 407 197 q 394 92 421 129 q 323 33 367 56 q 228 3 279 10 q 136 13 176 -3 q 135 28 129 21 q 150 29 140 36 q 190 19 164 18 q 244 28 215 19 q 303 51 274 36 q 356 86 333 67 q 388 127 378 106 q 390 171 399 149 q 363 209 383 186 q 313 256 342 232 q 249 306 283 281 q 183 353 215 332 q 122 389 150 374 q 78 408 94 404 q 60 373 65 396 q 52 324 54 350 q 51 271 50 297 q 50 225 51 244 q 56 122 54 171 q 42 49 57 72 l 42 43 l 39 44 q 38 43 38 44 q 26 42 31 40 q 19 51 21 44 m 11 172 q 1 181 1 174 q 10 193 1 189 q 74 199 42 199 q 140 196 107 199 q 150 185 150 193 q 139 174 150 176 q 76 176 107 176 q 11 172 44 176 z "},"É":{"ha":300,"x_min":-1,"x_max":292,"o":"m 14 181 q 0 187 1 178 q 7 201 -1 196 l 44 217 q 39 321 36 269 q 68 407 42 372 q 98 418 75 415 q 147 421 121 421 q 197 419 172 421 q 229 418 221 418 q 239 407 239 415 q 228 396 239 399 q 190 397 211 396 q 147 399 168 399 q 108 398 125 400 q 83 390 90 396 q 63 328 67 375 q 67 225 60 281 q 167 255 117 243 q 269 279 218 267 q 283 272 281 279 q 276 258 285 264 q 172 234 224 246 q 68 203 119 222 q 79 146 72 174 q 94 95 86 118 q 112 56 103 72 q 132 33 121 39 q 165 32 144 26 q 206 47 185 38 q 246 68 226 57 q 276 85 265 79 q 289 77 286 85 q 282 64 292 69 q 245 43 264 54 q 207 24 226 32 q 167 12 188 15 q 124 14 146 8 q 92 44 104 19 q 75 83 79 68 q 61 135 68 106 q 49 196 54 164 l 14 181 l 14 181 m 119 454 q 106 456 113 449 q 104 469 99 463 q 141 513 122 493 q 179 554 160 533 q 195 555 189 561 q 194 539 201 549 q 156 498 175 518 q 119 454 138 478 z "},"Ĕ":{"ha":300,"x_min":-1,"x_max":292,"o":"m 14 181 q 0 187 1 178 q 7 201 -1 196 l 44 217 q 39 321 36 269 q 68 407 42 372 q 98 418 75 415 q 147 421 121 421 q 197 419 172 421 q 229 418 221 418 q 239 407 239 415 q 228 396 239 399 q 190 397 211 396 q 147 399 168 399 q 108 398 125 400 q 83 390 90 396 q 63 328 67 375 q 67 225 60 281 q 167 255 117 243 q 269 279 218 267 q 283 272 281 279 q 276 258 285 264 q 172 234 224 246 q 68 203 119 222 q 79 146 72 174 q 94 95 86 118 q 112 56 103 72 q 132 33 121 39 q 165 32 144 26 q 206 47 185 38 q 246 68 226 57 q 276 85 265 79 q 289 77 286 85 q 282 64 292 69 q 245 43 264 54 q 207 24 226 32 q 167 12 188 15 q 124 14 146 8 q 92 44 104 19 q 75 83 79 68 q 61 135 68 106 q 49 196 54 164 l 14 181 l 14 181 m 89 515 q 98 528 89 525 q 110 521 107 531 q 126 484 115 496 q 150 473 138 472 q 173 487 163 474 q 188 524 183 500 q 202 532 192 535 q 210 518 213 529 q 187 469 204 486 q 150 451 169 453 q 113 466 131 450 q 89 515 94 482 z "},"Ě":{"ha":300,"x_min":-1,"x_max":292,"o":"m 14 181 q 0 187 1 178 q 7 201 -1 196 l 44 217 q 39 321 36 269 q 68 407 42 372 q 98 418 75 415 q 147 421 121 421 q 197 419 172 421 q 229 418 221 418 q 239 407 239 415 q 228 396 239 399 q 190 397 211 396 q 147 399 168 399 q 108 398 125 400 q 83 390 90 396 q 63 328 67 375 q 67 225 60 281 q 167 255 117 243 q 269 279 218 267 q 283 272 281 279 q 276 258 285 264 q 172 234 224 246 q 68 203 119 222 q 79 146 72 174 q 94 95 86 118 q 112 56 103 72 q 132 33 121 39 q 165 32 144 26 q 206 47 185 38 q 246 68 226 57 q 276 85 265 79 q 289 77 286 85 q 282 64 292 69 q 245 43 264 54 q 207 24 226 32 q 167 12 188 15 q 124 14 146 8 q 92 44 104 19 q 75 83 79 68 q 61 135 68 106 q 49 196 54 164 l 14 181 l 14 181 m 90 533 q 94 547 88 542 q 107 546 100 551 q 128 514 119 531 q 146 481 136 497 q 157 531 151 503 q 164 565 163 558 q 176 575 167 576 q 186 563 186 574 q 183 542 186 558 q 175 507 179 526 q 167 472 171 488 q 161 451 163 456 q 142 447 153 436 q 115 490 125 465 q 90 533 106 514 z "},"Ê":{"ha":300,"x_min":-1,"x_max":292,"o":"m 14 181 q 0 187 1 178 q 7 201 -1 196 l 44 217 q 39 321 36 269 q 68 407 42 372 q 98 418 75 415 q 147 421 121 421 q 197 419 172 421 q 229 418 221 418 q 239 407 239 415 q 228 396 239 399 q 190 397 211 396 q 147 399 168 399 q 108 398 125 400 q 83 390 90 396 q 63 328 67 375 q 67 225 60 281 q 167 255 117 243 q 269 279 218 267 q 283 272 281 279 q 276 258 285 264 q 172 234 224 246 q 68 203 119 222 q 79 146 72 174 q 94 95 86 118 q 112 56 103 72 q 132 33 121 39 q 165 32 144 26 q 206 47 185 38 q 246 68 226 57 q 276 85 265 79 q 289 77 286 85 q 282 64 292 69 q 245 43 264 54 q 207 24 226 32 q 167 12 188 15 q 124 14 146 8 q 92 44 104 19 q 75 83 79 68 q 61 135 68 106 q 49 196 54 164 l 14 181 l 14 181 m 121 460 q 108 450 115 451 q 101 460 101 449 q 115 507 106 482 q 135 551 124 532 q 153 558 142 563 q 163 543 157 554 q 173 519 168 532 q 183 492 178 506 q 192 472 188 479 q 192 456 203 469 l 190 454 q 175 454 182 449 q 158 489 165 467 q 144 526 151 511 q 131 493 138 511 q 121 460 125 475 z "},"Ë":{"ha":300,"x_min":-1,"x_max":292,"o":"m 14 181 q 0 187 1 178 q 7 201 -1 196 l 44 217 q 39 321 36 269 q 68 407 42 372 q 98 418 75 415 q 147 421 121 421 q 197 419 172 421 q 229 418 221 418 q 239 407 239 415 q 228 396 239 399 q 190 397 211 396 q 147 399 168 399 q 108 398 125 400 q 83 390 90 396 q 63 328 67 375 q 67 225 60 281 q 167 255 117 243 q 269 279 218 267 q 283 272 281 279 q 276 258 285 264 q 172 234 224 246 q 68 203 119 222 q 79 146 72 174 q 94 95 86 118 q 112 56 103 72 q 132 33 121 39 q 165 32 144 26 q 206 47 185 38 q 246 68 226 57 q 276 85 265 79 q 289 77 286 85 q 282 64 292 69 q 245 43 264 54 q 207 24 226 32 q 167 12 188 15 q 124 14 146 8 q 92 44 104 19 q 75 83 79 68 q 61 135 68 106 q 49 196 54 164 l 14 181 l 14 181 m 129 476 q 118 460 129 461 q 104 475 107 460 l 104 479 q 118 493 107 494 q 129 478 129 492 l 129 476 m 189 488 q 183 469 194 474 q 165 478 171 465 l 165 479 q 164 482 165 479 q 172 498 163 493 q 188 492 181 503 l 188 489 q 189 488 188 488 z "},"Ė":{"ha":300,"x_min":-1,"x_max":292,"o":"m 14 181 q 0 187 1 178 q 7 201 -1 196 l 44 217 q 39 321 36 269 q 68 407 42 372 q 98 418 75 415 q 147 421 121 421 q 197 419 172 421 q 229 418 221 418 q 239 407 239 415 q 228 396 239 399 q 190 397 211 396 q 147 399 168 399 q 108 398 125 400 q 83 390 90 396 q 63 328 67 375 q 67 225 60 281 q 167 255 117 243 q 269 279 218 267 q 283 272 281 279 q 276 258 285 264 q 172 234 224 246 q 68 203 119 222 q 79 146 72 174 q 94 95 86 118 q 112 56 103 72 q 132 33 121 39 q 165 32 144 26 q 206 47 185 38 q 246 68 226 57 q 276 85 265 79 q 289 77 286 85 q 282 64 292 69 q 245 43 264 54 q 207 24 226 32 q 167 12 188 15 q 124 14 146 8 q 92 44 104 19 q 75 83 79 68 q 61 135 68 106 q 49 196 54 164 l 14 181 l 14 181 m 160 488 q 153 469 165 474 q 135 478 142 465 l 135 482 q 142 498 133 493 q 158 492 151 503 l 158 489 q 160 488 158 488 z "},"È":{"ha":300,"x_min":-1,"x_max":292,"o":"m 14 181 q 0 187 1 178 q 7 201 -1 196 l 44 217 q 39 321 36 269 q 68 407 42 372 q 98 418 75 415 q 147 421 121 421 q 197 419 172 421 q 229 418 221 418 q 239 407 239 415 q 228 396 239 399 q 190 397 211 396 q 147 399 168 399 q 108 398 125 400 q 83 390 90 396 q 63 328 67 375 q 67 225 60 281 q 167 255 117 243 q 269 279 218 267 q 283 272 281 279 q 276 258 285 264 q 172 234 224 246 q 68 203 119 222 q 79 146 72 174 q 94 95 86 118 q 112 56 103 72 q 132 33 121 39 q 165 32 144 26 q 206 47 185 38 q 246 68 226 57 q 276 85 265 79 q 289 77 286 85 q 282 64 292 69 q 245 43 264 54 q 207 24 226 32 q 167 12 188 15 q 124 14 146 8 q 92 44 104 19 q 75 83 79 68 q 61 135 68 106 q 49 196 54 164 l 14 181 l 14 181 m 122 515 q 120 531 114 524 q 136 532 126 539 q 161 506 150 519 q 185 478 172 492 q 185 463 192 468 q 168 464 178 457 q 147 490 157 476 q 122 515 136 504 z "},"Ē":{"ha":300,"x_min":-1,"x_max":292,"o":"m 14 181 q 0 187 1 178 q 7 201 -1 196 l 44 217 q 39 321 36 269 q 68 407 42 372 q 98 418 75 415 q 147 421 121 421 q 197 419 172 421 q 229 418 221 418 q 239 407 239 415 q 228 396 239 399 q 190 397 211 396 q 147 399 168 399 q 108 398 125 400 q 83 390 90 396 q 63 328 67 375 q 67 225 60 281 q 167 255 117 243 q 269 279 218 267 q 283 272 281 279 q 276 258 285 264 q 172 234 224 246 q 68 203 119 222 q 79 146 72 174 q 94 95 86 118 q 112 56 103 72 q 132 33 121 39 q 165 32 144 26 q 206 47 185 38 q 246 68 226 57 q 276 85 265 79 q 289 77 286 85 q 282 64 292 69 q 245 43 264 54 q 207 24 226 32 q 167 12 188 15 q 124 14 146 8 q 92 44 104 19 q 75 83 79 68 q 61 135 68 106 q 49 196 54 164 l 14 181 l 14 181 m 85 476 q 75 485 75 478 q 83 497 75 493 q 148 503 115 503 q 214 500 181 503 q 224 489 224 497 q 213 478 224 481 q 149 481 181 481 q 85 476 118 481 z "},"Ę":{"ha":336,"x_min":-1,"x_max":325,"o":"m 14 181 q 0 187 1 178 q 7 201 -1 196 l 44 217 q 39 321 36 269 q 68 407 42 372 q 98 418 75 415 q 147 421 121 421 q 197 419 172 421 q 229 418 221 418 q 239 407 239 415 q 228 396 239 399 q 190 397 211 396 q 147 399 168 399 q 108 398 125 400 q 83 390 90 396 q 63 328 67 375 q 67 225 60 281 q 167 255 117 243 q 269 279 218 267 q 283 272 281 279 q 276 258 285 264 q 172 234 224 246 q 68 203 119 222 q 79 146 72 174 q 94 95 86 118 q 112 56 103 72 q 132 33 121 39 q 165 32 144 26 q 206 47 185 38 q 246 68 226 57 q 276 85 265 79 q 289 77 286 85 q 282 64 292 69 q 245 43 264 54 q 207 24 226 32 q 167 12 188 15 q 124 14 146 8 q 92 44 104 19 q 75 83 79 68 q 61 135 68 106 q 49 196 54 164 l 14 181 l 14 181 m 269 82 q 287 83 281 89 q 286 67 293 76 q 267 35 275 51 q 254 0 258 19 q 267 1 260 -1 q 283 8 275 4 q 299 15 292 11 q 310 21 306 18 q 322 13 319 21 q 315 -1 325 4 q 255 -22 274 -22 q 234 -7 236 -21 q 242 31 232 7 q 269 82 253 54 z "},"Ğ":{"ha":271,"x_min":-1,"x_max":281,"o":"m 169 414 q 194 336 189 376 q 194 264 199 296 q 217 175 206 219 q 238 90 229 131 l 247 93 q 260 85 258 93 q 253 72 263 78 l 243 67 q 258 -2 250 33 q 272 -74 267 -37 q 279 -147 278 -111 q 275 -215 281 -182 q 248 -253 269 -242 q 198 -266 226 -265 q 138 -258 169 -267 q 85 -237 107 -250 q 49 -210 65 -226 q 20 -172 32 -193 q 3 -127 8 -151 q 6 -76 -1 -103 q 32 -29 11 -53 q 82 16 53 -6 q 146 55 111 38 q 217 83 181 72 l 190 210 l 186 225 q 163 174 178 199 q 127 135 147 150 q 83 119 107 121 q 33 135 58 117 q 16 157 22 143 q 8 187 10 171 q 7 217 6 203 q 11 239 8 231 q 32 290 19 265 q 63 332 44 314 q 102 360 81 350 q 151 367 124 369 l 154 367 q 150 407 150 385 q 159 418 153 415 q 169 414 165 421 m 239 -24 q 230 18 235 -3 q 222 60 225 39 q 151 31 189 47 q 82 -8 113 15 q 35 -63 51 -32 q 28 -137 18 -94 q 71 -199 36 -171 q 145 -238 106 -226 q 218 -238 185 -250 q 257 -181 251 -226 q 254 -101 261 -140 q 239 -24 247 -62 m 176 264 q 167 303 172 283 q 158 343 163 324 q 151 344 154 343 q 87 324 115 349 q 43 267 58 300 q 27 201 28 235 q 46 153 26 168 q 89 142 68 136 q 128 167 110 149 q 158 208 146 185 q 174 250 169 232 q 176 264 176 258 m 38 478 q 47 490 38 488 q 58 483 56 493 q 75 447 64 458 q 99 435 86 435 q 122 449 111 436 q 136 486 132 463 q 151 494 140 497 q 158 481 161 492 q 135 432 153 449 q 99 414 118 415 q 61 428 79 413 q 38 478 43 444 z "},"Ĝ":{"ha":271,"x_min":-1,"x_max":281,"o":"m 169 414 q 194 336 189 376 q 194 264 199 296 q 217 175 206 219 q 238 90 229 131 l 247 93 q 260 85 258 93 q 253 72 263 78 l 243 67 q 258 -2 250 33 q 272 -74 267 -37 q 279 -147 278 -111 q 275 -215 281 -182 q 248 -253 269 -242 q 198 -266 226 -265 q 138 -258 169 -267 q 85 -237 107 -250 q 49 -210 65 -226 q 20 -172 32 -193 q 3 -127 8 -151 q 6 -76 -1 -103 q 32 -29 11 -53 q 82 16 53 -6 q 146 55 111 38 q 217 83 181 72 l 190 210 l 186 225 q 163 174 178 199 q 127 135 147 150 q 83 119 107 121 q 33 135 58 117 q 16 157 22 143 q 8 187 10 171 q 7 217 6 203 q 11 239 8 231 q 32 290 19 265 q 63 332 44 314 q 102 360 81 350 q 151 367 124 369 l 154 367 q 150 407 150 385 q 159 418 153 415 q 169 414 165 421 m 239 -24 q 230 18 235 -3 q 222 60 225 39 q 151 31 189 47 q 82 -8 113 15 q 35 -63 51 -32 q 28 -137 18 -94 q 71 -199 36 -171 q 145 -238 106 -226 q 218 -238 185 -250 q 257 -181 251 -226 q 254 -101 261 -140 q 239 -24 247 -62 m 176 264 q 167 303 172 283 q 158 343 163 324 q 151 344 154 343 q 87 324 115 349 q 43 267 58 300 q 27 201 28 235 q 46 153 26 168 q 89 142 68 136 q 128 167 110 149 q 158 208 146 185 q 174 250 169 232 q 176 264 176 258 m 68 429 q 56 419 63 421 q 49 429 49 418 q 62 476 53 451 q 82 521 71 501 q 100 528 89 532 q 110 513 104 524 q 120 488 115 501 q 130 462 125 475 q 139 442 135 449 q 139 425 150 439 l 138 424 q 122 424 129 418 q 106 458 113 436 q 92 496 99 481 q 78 463 85 481 q 68 429 72 444 z "},"Ģ":{"ha":271,"x_min":-1,"x_max":281,"o":"m 169 414 q 194 336 189 376 q 194 264 199 296 q 217 175 206 219 q 238 90 229 131 l 247 93 q 260 85 258 93 q 253 72 263 78 l 243 67 q 258 -2 250 33 q 272 -74 267 -37 q 279 -147 278 -111 q 275 -215 281 -182 q 248 -253 269 -242 q 198 -266 226 -265 q 138 -258 169 -267 q 85 -237 107 -250 q 49 -210 65 -226 q 20 -172 32 -193 q 3 -127 8 -151 q 6 -76 -1 -103 q 32 -29 11 -53 q 82 16 53 -6 q 146 55 111 38 q 217 83 181 72 l 190 210 l 186 225 q 163 174 178 199 q 127 135 147 150 q 83 119 107 121 q 33 135 58 117 q 16 157 22 143 q 8 187 10 171 q 7 217 6 203 q 11 239 8 231 q 32 290 19 265 q 63 332 44 314 q 102 360 81 350 q 151 367 124 369 l 154 367 q 150 407 150 385 q 159 418 153 415 q 169 414 165 421 m 239 -24 q 230 18 235 -3 q 222 60 225 39 q 151 31 189 47 q 82 -8 113 15 q 35 -63 51 -32 q 28 -137 18 -94 q 71 -199 36 -171 q 145 -238 106 -226 q 218 -238 185 -250 q 257 -181 251 -226 q 254 -101 261 -140 q 239 -24 247 -62 m 176 264 q 167 303 172 283 q 158 343 163 324 q 151 344 154 343 q 87 324 115 349 q 43 267 58 300 q 27 201 28 235 q 46 153 26 168 q 89 142 68 136 q 128 167 110 149 q 158 208 146 185 q 174 250 169 232 q 176 264 176 258 m 75 412 q 74 399 79 404 q 58 397 68 393 q 44 427 46 412 q 46 457 42 442 q 58 487 50 472 q 76 515 67 501 q 91 516 83 522 q 93 501 99 510 q 80 481 88 492 q 68 458 72 469 q 65 435 64 447 q 75 412 65 424 z "},"Ġ":{"ha":271,"x_min":-1,"x_max":281,"o":"m 169 414 q 194 336 189 376 q 194 264 199 296 q 217 175 206 219 q 238 90 229 131 l 247 93 q 260 85 258 93 q 253 72 263 78 l 243 67 q 258 -2 250 33 q 272 -74 267 -37 q 279 -147 278 -111 q 275 -215 281 -182 q 248 -253 269 -242 q 198 -266 226 -265 q 138 -258 169 -267 q 85 -237 107 -250 q 49 -210 65 -226 q 20 -172 32 -193 q 3 -127 8 -151 q 6 -76 -1 -103 q 32 -29 11 -53 q 82 16 53 -6 q 146 55 111 38 q 217 83 181 72 l 190 210 l 186 225 q 163 174 178 199 q 127 135 147 150 q 83 119 107 121 q 33 135 58 117 q 16 157 22 143 q 8 187 10 171 q 7 217 6 203 q 11 239 8 231 q 32 290 19 265 q 63 332 44 314 q 102 360 81 350 q 151 367 124 369 l 154 367 q 150 407 150 385 q 159 418 153 415 q 169 414 165 421 m 239 -24 q 230 18 235 -3 q 222 60 225 39 q 151 31 189 47 q 82 -8 113 15 q 35 -63 51 -32 q 28 -137 18 -94 q 71 -199 36 -171 q 145 -238 106 -226 q 218 -238 185 -250 q 257 -181 251 -226 q 254 -101 261 -140 q 239 -24 247 -62 m 176 264 q 167 303 172 283 q 158 343 163 324 q 151 344 154 343 q 87 324 115 349 q 43 267 58 300 q 27 201 28 235 q 46 153 26 168 q 89 142 68 136 q 128 167 110 149 q 158 208 146 185 q 174 250 169 232 q 176 264 176 258 m 89 444 q 83 426 94 431 q 64 435 71 422 l 64 439 q 72 455 63 450 q 88 449 81 460 l 88 446 q 89 444 88 444 z "},"Ħ":{"ha":413,"x_min":-1,"x_max":401,"o":"m 14 233 q 1 240 3 231 q 8 254 -1 249 q 198 287 104 274 q 388 311 292 300 q 400 301 399 311 q 390 289 401 292 q 187 262 275 275 q 14 233 99 249 m 78 172 q 64 298 71 235 q 54 424 57 361 q 65 435 57 435 q 75 425 72 435 q 85 301 78 363 q 100 178 93 240 q 207 196 153 189 q 317 206 261 203 q 309 320 313 264 q 304 435 306 376 q 314 445 306 446 q 325 436 322 444 q 330 322 326 378 q 339 207 333 265 q 347 91 344 142 q 351 -8 350 40 q 342 -20 351 -19 q 331 -10 332 -21 q 325 88 328 39 q 319 185 322 136 q 101 154 207 181 q 108 84 106 119 q 114 14 111 49 q 104 1 114 1 q 93 13 94 1 q 88 84 90 47 q 78 172 85 121 z "},"Ĥ":{"ha":353,"x_min":0,"x_max":347,"o":"m 17 424 q 28 435 19 435 q 39 425 36 435 q 48 301 40 363 q 63 178 56 240 q 170 196 115 189 q 279 206 225 203 q 272 320 275 264 q 267 435 268 376 q 277 445 269 446 q 288 436 285 444 q 293 322 289 378 q 301 207 297 265 q 317 208 310 208 q 333 208 325 208 q 346 199 344 208 q 336 186 347 189 q 319 186 328 186 q 304 185 311 186 q 310 88 307 136 q 314 -8 313 40 q 305 -20 314 -19 q 293 -10 296 -21 q 288 88 290 39 q 282 185 286 136 q 65 154 171 181 q 72 84 68 119 q 76 14 75 49 q 67 1 76 1 q 56 13 57 1 q 43 150 51 81 l 15 143 q 2 149 4 140 q 10 164 0 158 l 40 172 q 26 298 33 235 q 17 424 19 361 m 124 449 q 111 439 118 440 q 104 449 104 438 q 117 496 108 471 q 138 540 126 521 q 156 547 144 551 q 165 532 160 543 q 176 508 171 521 q 185 481 181 494 q 194 461 190 468 q 194 444 206 458 l 193 443 q 178 443 185 438 q 161 478 168 456 q 147 515 154 500 q 134 482 140 500 q 124 449 128 464 z "},"Í":{"ha":403,"x_min":1,"x_max":397,"o":"m 13 -4 q 1 5 1 -3 q 10 17 1 13 q 91 19 50 17 q 172 26 132 22 q 156 218 160 122 q 153 410 153 314 q 85 401 118 404 q 17 396 51 397 q 7 406 7 399 q 14 418 7 413 q 51 419 32 418 q 103 425 71 421 q 183 436 135 429 q 307 456 232 443 q 319 446 318 456 q 310 433 321 436 q 242 424 275 429 q 174 411 208 418 q 178 220 174 315 q 193 29 182 125 q 288 42 242 35 q 383 56 335 49 q 396 46 394 56 q 385 33 397 36 q 291 19 338 26 q 196 7 244 13 q 186 -5 196 -4 q 174 4 176 -6 q 93 -1 133 1 q 13 -4 53 -4 m 135 465 q 121 467 128 460 q 119 481 114 474 q 156 524 138 504 q 194 565 175 544 q 210 566 204 572 q 210 550 217 560 q 172 509 190 529 q 135 465 153 489 z "},"Ĭ":{"ha":403,"x_min":1,"x_max":397,"o":"m 13 -4 q 1 5 1 -3 q 10 17 1 13 q 91 19 50 17 q 172 26 132 22 q 156 218 160 122 q 153 410 153 314 q 85 401 118 404 q 17 396 51 397 q 7 406 7 399 q 14 418 7 413 q 51 419 32 418 q 103 425 71 421 q 183 436 135 429 q 307 456 232 443 q 319 446 318 456 q 310 433 321 436 q 242 424 275 429 q 174 411 208 418 q 178 220 174 315 q 193 29 182 125 q 288 42 242 35 q 383 56 335 49 q 396 46 394 56 q 385 33 397 36 q 291 19 338 26 q 196 7 244 13 q 186 -5 196 -4 q 174 4 176 -6 q 93 -1 133 1 q 13 -4 53 -4 m 104 538 q 113 550 104 547 q 125 543 122 553 q 142 506 131 518 q 165 495 153 494 q 188 509 178 496 q 203 546 199 522 q 217 554 207 557 q 225 540 228 551 q 202 492 219 508 q 165 474 185 475 q 128 488 146 472 q 104 538 110 504 z "},"Î":{"ha":403,"x_min":1,"x_max":397,"o":"m 13 -4 q 1 5 1 -3 q 10 17 1 13 q 91 19 50 17 q 172 26 132 22 q 156 218 160 122 q 153 410 153 314 q 85 401 118 404 q 17 396 51 397 q 7 406 7 399 q 14 418 7 413 q 51 419 32 418 q 103 425 71 421 q 183 436 135 429 q 307 456 232 443 q 319 446 318 456 q 310 433 321 436 q 242 424 275 429 q 174 411 208 418 q 178 220 174 315 q 193 29 182 125 q 288 42 242 35 q 383 56 335 49 q 396 46 394 56 q 385 33 397 36 q 291 19 338 26 q 196 7 244 13 q 186 -5 196 -4 q 174 4 176 -6 q 93 -1 133 1 q 13 -4 53 -4 m 136 483 q 124 474 131 475 q 117 483 117 472 q 130 531 121 506 q 150 575 139 556 q 168 582 157 586 q 178 567 172 578 q 188 542 183 556 q 198 516 193 529 q 207 496 203 503 q 207 479 218 493 l 206 478 q 190 478 197 472 q 174 513 181 490 q 160 550 167 535 q 147 517 153 535 q 136 483 140 499 z "},"Ï":{"ha":403,"x_min":1,"x_max":397,"o":"m 13 -4 q 1 5 1 -3 q 10 17 1 13 q 91 19 50 17 q 172 26 132 22 q 156 218 160 122 q 153 410 153 314 q 85 401 118 404 q 17 396 51 397 q 7 406 7 399 q 14 418 7 413 q 51 419 32 418 q 103 425 71 421 q 183 436 135 429 q 307 456 232 443 q 319 446 318 456 q 310 433 321 436 q 242 424 275 429 q 174 411 208 418 q 178 220 174 315 q 193 29 182 125 q 288 42 242 35 q 383 56 335 49 q 396 46 394 56 q 385 33 397 36 q 291 19 338 26 q 196 7 244 13 q 186 -5 196 -4 q 174 4 176 -6 q 93 -1 133 1 q 13 -4 53 -4 m 144 500 q 133 484 144 485 q 119 499 122 483 l 119 503 q 133 517 122 518 q 144 501 144 515 l 144 500 m 204 511 q 198 493 210 497 q 181 501 186 489 l 181 503 q 179 506 181 503 q 187 522 178 517 q 203 515 196 526 l 203 513 q 204 511 203 511 z "},"İ":{"ha":403,"x_min":1,"x_max":397,"o":"m 13 -4 q 1 5 1 -3 q 10 17 1 13 q 91 19 50 17 q 172 26 132 22 q 156 218 160 122 q 153 410 153 314 q 85 401 118 404 q 17 396 51 397 q 7 406 7 399 q 14 418 7 413 q 51 419 32 418 q 103 425 71 421 q 183 436 135 429 q 307 456 232 443 q 319 446 318 456 q 310 433 321 436 q 242 424 275 429 q 174 411 208 418 q 178 220 174 315 q 193 29 182 125 q 288 42 242 35 q 383 56 335 49 q 396 46 394 56 q 385 33 397 36 q 291 19 338 26 q 196 7 244 13 q 186 -5 196 -4 q 174 4 176 -6 q 93 -1 133 1 q 13 -4 53 -4 m 176 511 q 170 493 182 497 q 151 501 158 489 l 151 506 q 159 522 150 517 q 175 515 168 526 l 175 513 q 176 511 175 511 z "},"Ì":{"ha":403,"x_min":1,"x_max":397,"o":"m 13 -4 q 1 5 1 -3 q 10 17 1 13 q 91 19 50 17 q 172 26 132 22 q 156 218 160 122 q 153 410 153 314 q 85 401 118 404 q 17 396 51 397 q 7 406 7 399 q 14 418 7 413 q 51 419 32 418 q 103 425 71 421 q 183 436 135 429 q 307 456 232 443 q 319 446 318 456 q 310 433 321 436 q 242 424 275 429 q 174 411 208 418 q 178 220 174 315 q 193 29 182 125 q 288 42 242 35 q 383 56 335 49 q 396 46 394 56 q 385 33 397 36 q 291 19 338 26 q 196 7 244 13 q 186 -5 196 -4 q 174 4 176 -6 q 93 -1 133 1 q 13 -4 53 -4 m 136 528 q 134 544 128 536 q 150 544 140 551 q 175 518 164 532 q 199 490 186 504 q 199 475 206 481 q 182 476 192 469 q 160 503 171 489 q 136 528 150 517 z "},"Ī":{"ha":403,"x_min":1,"x_max":397,"o":"m 13 -4 q 1 5 1 -3 q 10 17 1 13 q 91 19 50 17 q 172 26 132 22 q 156 218 160 122 q 153 410 153 314 q 85 401 118 404 q 17 396 51 397 q 7 406 7 399 q 14 418 7 413 q 51 419 32 418 q 103 425 71 421 q 183 436 135 429 q 307 456 232 443 q 319 446 318 456 q 310 433 321 436 q 242 424 275 429 q 174 411 208 418 q 178 220 174 315 q 193 29 182 125 q 288 42 242 35 q 383 56 335 49 q 396 46 394 56 q 385 33 397 36 q 291 19 338 26 q 196 7 244 13 q 186 -5 196 -4 q 174 4 176 -6 q 93 -1 133 1 q 13 -4 53 -4 m 100 488 q 90 497 90 489 q 99 508 90 504 q 163 514 131 514 q 229 511 196 514 q 239 500 239 508 q 228 489 239 492 q 165 492 196 492 q 100 488 133 492 z "},"Į":{"ha":403,"x_min":1,"x_max":397,"o":"m 13 -4 q 1 5 1 -3 q 10 17 1 13 q 91 19 50 17 q 172 26 132 22 q 156 218 160 122 q 153 410 153 314 q 85 401 118 404 q 17 396 51 397 q 7 406 7 399 q 14 418 7 413 q 51 419 32 418 q 103 425 71 421 q 183 436 135 429 q 307 456 232 443 q 319 446 318 456 q 310 433 321 436 q 242 424 275 429 q 174 411 208 418 q 178 220 174 315 q 193 29 182 125 q 288 42 242 35 q 383 56 335 49 q 396 46 394 56 q 385 33 397 36 q 291 19 338 26 q 196 7 244 13 q 186 -5 196 -4 q 174 4 176 -6 q 93 -1 133 1 q 13 -4 53 -4 m 181 19 q 198 20 192 26 q 197 4 204 14 q 178 -27 186 -11 q 165 -62 169 -43 q 178 -61 171 -64 q 194 -55 186 -58 q 210 -48 203 -51 q 221 -42 217 -44 q 233 -50 231 -42 q 226 -64 236 -58 q 166 -84 185 -85 q 145 -69 147 -83 q 153 -32 143 -56 q 181 19 164 -8 z "},"Ĩ":{"ha":403,"x_min":1,"x_max":397,"o":"m 13 -4 q 1 5 1 -3 q 10 17 1 13 q 91 19 50 17 q 172 26 132 22 q 156 218 160 122 q 153 410 153 314 q 85 401 118 404 q 17 396 51 397 q 7 406 7 399 q 14 418 7 413 q 51 419 32 418 q 103 425 71 421 q 183 436 135 429 q 307 456 232 443 q 319 446 318 456 q 310 433 321 436 q 242 424 275 429 q 174 411 208 418 q 178 220 174 315 q 193 29 182 125 q 288 42 242 35 q 383 56 335 49 q 396 46 394 56 q 385 33 397 36 q 291 19 338 26 q 196 7 244 13 q 186 -5 196 -4 q 174 4 176 -6 q 93 -1 133 1 q 13 -4 53 -4 m 126 481 q 115 470 124 469 q 106 483 107 471 q 110 508 104 497 q 122 531 115 519 q 144 540 133 546 q 163 522 154 535 q 180 498 172 510 q 193 489 188 486 q 201 504 199 492 q 204 526 204 517 q 214 534 204 538 q 225 519 224 531 q 223 499 225 511 q 215 478 221 488 q 199 467 208 469 q 178 474 190 464 q 159 494 167 482 q 142 517 151 506 q 131 501 135 510 q 126 481 126 492 z "},"Ĵ":{"ha":388,"x_min":1,"x_max":382,"o":"m 279 183 q 249 288 265 236 q 213 392 232 339 q 206 397 207 393 q 208 406 206 401 q 215 412 210 410 q 225 411 219 414 q 245 374 235 403 q 266 313 256 346 q 285 246 276 279 q 299 193 294 213 l 367 222 q 379 215 376 222 q 372 200 382 207 q 342 186 358 193 q 306 172 325 179 q 325 85 317 128 q 339 -3 333 42 q 342 -66 342 -31 q 333 -129 342 -101 q 283 -199 319 -179 q 201 -216 246 -219 q 111 -191 156 -212 q 38 -137 67 -169 q 6 -63 10 -104 q 38 18 1 -22 q 94 74 67 51 q 161 119 122 96 q 218 153 189 138 q 279 183 247 169 m 294 -164 q 319 -96 315 -137 q 319 -8 324 -54 q 303 84 314 39 q 285 163 293 129 q 202 122 244 144 q 123 72 160 99 q 60 16 86 46 q 29 -47 35 -14 q 38 -98 25 -74 q 75 -142 51 -122 q 130 -176 99 -162 q 192 -193 161 -189 q 250 -191 222 -197 q 294 -164 278 -185 m 179 450 q 167 440 174 442 q 160 450 160 439 q 173 497 164 472 q 193 542 182 522 q 211 549 200 553 q 221 533 215 544 q 231 509 226 522 q 241 483 236 496 q 250 463 246 469 q 250 446 261 460 l 249 444 q 233 444 240 439 q 217 479 224 457 q 203 517 210 501 q 190 483 196 501 q 179 450 183 465 z "},"Ķ":{"ha":547,"x_min":0,"x_max":538,"o":"m 128 439 q 138 450 131 450 q 149 440 146 450 q 144 317 146 378 q 142 194 143 257 q 190 244 164 217 q 242 298 217 271 q 288 351 267 325 q 322 396 310 376 q 322 411 317 404 q 333 421 329 418 q 344 428 338 424 q 357 415 358 428 q 328 367 353 399 q 272 299 304 335 q 203 226 239 263 q 142 165 168 190 q 142 163 142 164 q 143 160 143 161 q 167 169 154 165 q 190 179 179 174 q 404 178 318 222 q 535 18 490 133 q 530 3 538 7 q 515 6 522 0 q 372 170 467 144 q 142 133 278 196 q 142 64 142 99 q 147 -15 142 29 q 138 -28 146 -26 q 126 -21 129 -29 q 121 49 121 13 q 119 119 121 85 q 93 98 107 110 q 66 76 79 86 q 38 60 53 65 q 8 57 24 54 q 4 71 0 61 q 19 88 6 76 q 48 111 32 99 q 78 135 64 124 q 97 151 93 147 l 119 172 q 122 306 121 239 q 128 439 124 372 m 307 -29 q 308 -15 303 -21 q 324 -14 314 -10 q 338 -44 336 -29 q 336 -74 340 -58 q 324 -103 332 -89 q 306 -132 315 -118 q 291 -133 299 -139 q 289 -118 283 -126 q 302 -97 294 -108 q 314 -75 310 -86 q 317 -52 318 -64 q 307 -29 317 -40 z "},"Ĺ":{"ha":339,"x_min":-31,"x_max":329,"o":"m 10 446 q 22 456 13 457 q 31 443 31 454 q 30 406 31 435 q 29 344 29 378 q 28 282 29 311 q 28 244 28 253 q 33 154 29 201 q 53 72 36 107 q 104 24 69 38 q 200 33 139 10 q 259 63 232 46 q 314 94 286 79 q 327 87 325 94 q 321 74 329 79 q 265 42 293 58 q 208 14 238 25 q 103 1 143 -12 q 40 51 63 14 q 10 143 18 89 q 2 254 3 197 q 5 363 1 311 q 10 446 8 414 m -10 474 q -24 475 -17 468 q -25 489 -31 482 q 12 533 -7 513 q 50 574 31 553 q 66 574 60 581 q 65 558 72 568 q 27 517 46 538 q -10 474 8 497 z "},"Ľ":{"ha":339,"x_min":-39,"x_max":329,"o":"m 10 446 q 22 456 13 457 q 31 443 31 454 q 30 406 31 435 q 29 344 29 378 q 28 282 29 311 q 28 244 28 253 q 33 154 29 201 q 53 72 36 107 q 104 24 69 38 q 200 33 139 10 q 259 63 232 46 q 314 94 286 79 q 327 87 325 94 q 321 74 329 79 q 265 42 293 58 q 208 14 238 25 q 103 1 143 -12 q 40 51 63 14 q 10 143 18 89 q 2 254 3 197 q 5 363 1 311 q 10 446 8 414 m -36 583 q -33 597 -39 592 q -19 596 -26 601 q 1 564 -7 581 q 19 531 10 547 q 31 581 25 553 q 38 615 36 608 q 50 625 40 626 q 60 613 60 624 q 56 592 60 608 q 49 557 53 576 q 40 522 44 538 q 35 501 36 506 q 15 497 26 486 q -11 540 -1 515 q -36 583 -21 564 z "},"Ļ":{"ha":339,"x_min":1,"x_max":329,"o":"m 10 446 q 22 456 13 457 q 31 443 31 454 q 30 406 31 435 q 29 344 29 378 q 28 282 29 311 q 28 244 28 253 q 33 154 29 201 q 53 72 36 107 q 104 24 69 38 q 200 33 139 10 q 259 63 232 46 q 314 94 286 79 q 327 87 325 94 q 321 74 329 79 q 265 42 293 58 q 208 14 238 25 q 103 1 143 -12 q 40 51 63 14 q 10 143 18 89 q 2 254 3 197 q 5 363 1 311 q 10 446 8 414 m 157 -57 q 158 -43 153 -49 q 174 -42 164 -37 q 188 -72 186 -57 q 186 -101 190 -86 q 174 -131 182 -117 q 156 -160 165 -146 q 141 -160 149 -167 q 139 -146 133 -154 q 152 -125 144 -136 q 164 -103 160 -114 q 167 -80 168 -92 q 157 -57 167 -68 z "},"Ŀ":{"ha":339,"x_min":1,"x_max":329,"o":"m 10 446 q 22 456 13 457 q 31 443 31 454 q 30 406 31 435 q 29 344 29 378 q 28 282 29 311 q 28 244 28 253 q 33 154 29 201 q 53 72 36 107 q 104 24 69 38 q 200 33 139 10 q 259 63 232 46 q 314 94 286 79 q 327 87 325 94 q 321 74 329 79 q 265 42 293 58 q 208 14 238 25 q 103 1 143 -12 q 40 51 63 14 q 10 143 18 89 q 2 254 3 197 q 5 363 1 311 q 10 446 8 414 m 86 289 q 101 302 89 304 q 114 285 114 300 q 101 271 113 271 q 86 285 89 271 l 86 289 l 86 289 z "},"Ł":{"ha":392,"x_min":10,"x_max":381,"o":"m 28 119 q 14 121 18 114 q 14 136 10 128 l 139 240 q 155 240 149 247 q 154 225 161 232 l 28 119 m 60 446 q 72 456 63 457 q 82 443 82 454 q 81 406 82 435 q 80 344 81 378 q 78 282 79 311 q 78 244 78 253 q 83 154 79 201 q 104 72 88 107 q 155 24 121 38 q 251 33 189 10 q 309 63 282 46 q 365 94 336 79 q 378 87 375 94 q 371 74 381 79 q 315 42 343 58 q 258 14 288 25 q 153 1 193 -12 q 90 51 113 14 q 60 143 68 89 q 52 254 53 197 q 55 363 51 311 q 60 446 58 414 z "},"Ń":{"ha":435,"x_min":0,"x_max":429,"o":"m 22 388 q 33 397 24 399 q 43 385 43 396 q 38 301 42 343 q 29 218 33 260 q 23 135 25 176 q 25 51 21 93 q 64 131 47 88 q 95 217 81 174 q 124 301 110 261 q 156 371 138 340 q 169 374 164 376 q 185 356 179 369 q 194 324 192 342 q 199 288 197 306 q 203 258 201 269 q 222 163 211 207 q 255 92 233 118 q 313 64 276 65 q 407 99 349 63 q 424 99 418 106 q 422 83 429 93 q 383 58 406 68 q 336 45 360 49 q 290 46 313 42 q 253 63 268 50 q 203 146 219 92 q 182 257 188 200 q 177 303 179 281 q 167 349 175 326 q 158 328 165 349 q 139 276 150 308 q 115 204 128 243 q 88 130 101 165 q 60 67 74 94 q 38 31 47 39 q 19 25 31 22 q 4 40 7 28 q 1 127 0 83 q 7 215 3 171 q 16 301 11 258 q 22 388 21 344 m 135 410 q 121 411 128 404 q 119 425 114 418 q 156 469 138 449 q 194 510 175 489 q 210 510 204 517 q 210 494 217 504 q 172 453 190 474 q 135 410 153 433 z "},"Ň":{"ha":435,"x_min":0,"x_max":429,"o":"m 22 388 q 33 397 24 399 q 43 385 43 396 q 38 301 42 343 q 29 218 33 260 q 23 135 25 176 q 25 51 21 93 q 64 131 47 88 q 95 217 81 174 q 124 301 110 261 q 156 371 138 340 q 169 374 164 376 q 185 356 179 369 q 194 324 192 342 q 199 288 197 306 q 203 258 201 269 q 222 163 211 207 q 255 92 233 118 q 313 64 276 65 q 407 99 349 63 q 424 99 418 106 q 422 83 429 93 q 383 58 406 68 q 336 45 360 49 q 290 46 313 42 q 253 63 268 50 q 203 146 219 92 q 182 257 188 200 q 177 303 179 281 q 167 349 175 326 q 158 328 165 349 q 139 276 150 308 q 115 204 128 243 q 88 130 101 165 q 60 67 74 94 q 38 31 47 39 q 19 25 31 22 q 4 40 7 28 q 1 127 0 83 q 7 215 3 171 q 16 301 11 258 q 22 388 21 344 m 106 492 q 109 505 103 500 q 122 504 115 510 q 143 472 135 489 q 161 439 151 456 q 172 489 167 461 q 179 524 178 517 q 192 533 182 535 q 201 521 201 532 q 198 501 201 517 q 190 465 194 485 q 182 430 186 446 q 176 410 178 414 q 157 406 168 394 q 131 448 140 424 q 106 492 121 472 z "},"Ņ":{"ha":435,"x_min":0,"x_max":429,"o":"m 22 388 q 33 397 24 399 q 43 385 43 396 q 38 301 42 343 q 29 218 33 260 q 23 135 25 176 q 25 51 21 93 q 64 131 47 88 q 95 217 81 174 q 124 301 110 261 q 156 371 138 340 q 169 374 164 376 q 185 356 179 369 q 194 324 192 342 q 199 288 197 306 q 203 258 201 269 q 222 163 211 207 q 255 92 233 118 q 313 64 276 65 q 407 99 349 63 q 424 99 418 106 q 422 83 429 93 q 383 58 406 68 q 336 45 360 49 q 290 46 313 42 q 253 63 268 50 q 203 146 219 92 q 182 257 188 200 q 177 303 179 281 q 167 349 175 326 q 158 328 165 349 q 139 276 150 308 q 115 204 128 243 q 88 130 101 165 q 60 67 74 94 q 38 31 47 39 q 19 25 31 22 q 4 40 7 28 q 1 127 0 83 q 7 215 3 171 q 16 301 11 258 q 22 388 21 344 m 153 0 q 154 14 149 8 q 169 15 160 19 q 184 -15 182 0 q 182 -44 186 -29 q 169 -74 178 -60 q 151 -103 161 -89 q 137 -103 144 -110 q 135 -89 129 -97 q 148 -68 140 -79 q 160 -46 156 -57 q 163 -23 164 -35 q 153 0 163 -11 z "},"Ñ":{"ha":435,"x_min":0,"x_max":429,"o":"m 22 388 q 33 397 24 399 q 43 385 43 396 q 38 301 42 343 q 29 218 33 260 q 23 135 25 176 q 25 51 21 93 q 64 131 47 88 q 95 217 81 174 q 124 301 110 261 q 156 371 138 340 q 169 374 164 376 q 185 356 179 369 q 194 324 192 342 q 199 288 197 306 q 203 258 201 269 q 222 163 211 207 q 255 92 233 118 q 313 64 276 65 q 407 99 349 63 q 424 99 418 106 q 422 83 429 93 q 383 58 406 68 q 336 45 360 49 q 290 46 313 42 q 253 63 268 50 q 203 146 219 92 q 182 257 188 200 q 177 303 179 281 q 167 349 175 326 q 158 328 165 349 q 139 276 150 308 q 115 204 128 243 q 88 130 101 165 q 60 67 74 94 q 38 31 47 39 q 19 25 31 22 q 4 40 7 28 q 1 127 0 83 q 7 215 3 171 q 16 301 11 258 q 22 388 21 344 m 131 421 q 119 410 128 410 q 110 424 111 411 q 114 449 108 438 q 126 471 119 460 q 148 481 138 486 q 167 463 158 475 q 184 438 176 450 q 197 429 192 426 q 206 444 203 432 q 208 467 208 457 q 218 474 208 478 q 229 460 228 471 q 227 440 229 451 q 219 419 225 428 q 203 407 213 410 q 182 414 194 404 q 163 434 171 422 q 146 457 156 446 q 135 441 139 450 q 131 421 131 432 z "},"Ó":{"ha":340,"x_min":-3,"x_max":329,"o":"m 132 376 q 222 322 176 360 q 297 238 268 283 q 327 145 325 192 q 285 67 329 99 q 212 31 253 44 q 131 21 171 18 q 42 66 74 24 q 3 163 10 108 q 15 272 -3 218 q 75 350 33 325 l 81 354 q 79 356 79 354 q 74 365 76 361 q 75 376 72 369 q 98 384 82 385 q 132 376 114 383 m 136 42 q 203 51 168 40 q 267 81 238 61 q 302 151 304 110 q 275 233 300 193 q 210 306 250 274 q 131 353 169 339 q 100 339 113 346 q 86 332 88 332 q 37 260 53 307 q 26 165 21 213 q 57 81 31 117 q 136 42 83 44 m 106 414 q 92 415 99 408 q 90 429 85 422 q 127 473 108 453 q 165 514 146 493 q 181 515 175 521 q 181 499 188 508 q 142 458 161 478 q 106 414 124 438 z "},"Ŏ":{"ha":340,"x_min":-3,"x_max":329,"o":"m 132 376 q 222 322 176 360 q 297 238 268 283 q 327 145 325 192 q 285 67 329 99 q 212 31 253 44 q 131 21 171 18 q 42 66 74 24 q 3 163 10 108 q 15 272 -3 218 q 75 350 33 325 l 81 354 q 79 356 79 354 q 74 365 76 361 q 75 376 72 369 q 98 384 82 385 q 132 376 114 383 m 136 42 q 203 51 168 40 q 267 81 238 61 q 302 151 304 110 q 275 233 300 193 q 210 306 250 274 q 131 353 169 339 q 100 339 113 346 q 86 332 88 332 q 37 260 53 307 q 26 165 21 213 q 57 81 31 117 q 136 42 83 44 m 74 478 q 83 490 74 488 q 94 483 92 493 q 111 447 100 458 q 135 435 122 435 q 158 449 147 436 q 172 486 168 463 q 187 494 176 497 q 194 481 197 492 q 172 432 189 449 q 135 414 154 415 q 97 428 115 413 q 74 478 79 444 z "},"Ô":{"ha":340,"x_min":-3,"x_max":329,"o":"m 132 376 q 222 322 176 360 q 297 238 268 283 q 327 145 325 192 q 285 67 329 99 q 212 31 253 44 q 131 21 171 18 q 42 66 74 24 q 3 163 10 108 q 15 272 -3 218 q 75 350 33 325 l 81 354 q 79 356 79 354 q 74 365 76 361 q 75 376 72 369 q 98 384 82 385 q 132 376 114 383 m 136 42 q 203 51 168 40 q 267 81 238 61 q 302 151 304 110 q 275 233 300 193 q 210 306 250 274 q 131 353 169 339 q 100 339 113 346 q 86 332 88 332 q 37 260 53 307 q 26 165 21 213 q 57 81 31 117 q 136 42 83 44 m 110 411 q 97 401 104 403 q 90 411 90 400 q 103 458 94 433 q 124 503 113 483 q 142 510 131 514 q 151 494 146 506 q 162 470 157 483 q 172 444 167 457 q 181 424 176 431 q 181 407 192 421 l 179 406 q 164 406 171 400 q 147 440 154 418 q 133 478 140 463 q 120 444 126 463 q 110 411 114 426 z "},"Ö":{"ha":340,"x_min":-3,"x_max":329,"o":"m 132 376 q 222 322 176 360 q 297 238 268 283 q 327 145 325 192 q 285 67 329 99 q 212 31 253 44 q 131 21 171 18 q 42 66 74 24 q 3 163 10 108 q 15 272 -3 218 q 75 350 33 325 l 81 354 q 79 356 79 354 q 74 365 76 361 q 75 376 72 369 q 98 384 82 385 q 132 376 114 383 m 136 42 q 203 51 168 40 q 267 81 238 61 q 302 151 304 110 q 275 233 300 193 q 210 306 250 274 q 131 353 169 339 q 100 339 113 346 q 86 332 88 332 q 37 260 53 307 q 26 165 21 213 q 57 81 31 117 q 136 42 83 44 m 97 432 q 86 416 97 417 q 72 431 75 415 l 72 435 q 86 449 75 450 q 97 433 97 447 l 97 432 m 157 443 q 151 425 163 429 q 133 433 139 421 l 133 435 q 132 438 133 435 q 140 453 131 449 q 156 447 149 458 l 156 444 q 157 443 156 443 z "},"Ò":{"ha":340,"x_min":-3,"x_max":329,"o":"m 132 376 q 222 322 176 360 q 297 238 268 283 q 327 145 325 192 q 285 67 329 99 q 212 31 253 44 q 131 21 171 18 q 42 66 74 24 q 3 163 10 108 q 15 272 -3 218 q 75 350 33 325 l 81 354 q 79 356 79 354 q 74 365 76 361 q 75 376 72 369 q 98 384 82 385 q 132 376 114 383 m 136 42 q 203 51 168 40 q 267 81 238 61 q 302 151 304 110 q 275 233 300 193 q 210 306 250 274 q 131 353 169 339 q 100 339 113 346 q 86 332 88 332 q 37 260 53 307 q 26 165 21 213 q 57 81 31 117 q 136 42 83 44 m 99 464 q 97 480 90 472 q 113 481 103 488 q 138 454 126 468 q 161 426 149 440 q 161 411 168 417 q 144 413 154 406 q 123 439 133 425 q 99 464 113 453 z "},"Ő":{"ha":340,"x_min":-3,"x_max":329,"o":"m 132 376 q 222 322 176 360 q 297 238 268 283 q 327 145 325 192 q 285 67 329 99 q 212 31 253 44 q 131 21 171 18 q 42 66 74 24 q 3 163 10 108 q 15 272 -3 218 q 75 350 33 325 l 81 354 q 79 356 79 354 q 74 365 76 361 q 75 376 72 369 q 98 384 82 385 q 132 376 114 383 m 136 42 q 203 51 168 40 q 267 81 238 61 q 302 151 304 110 q 275 233 300 193 q 210 306 250 274 q 131 353 169 339 q 100 339 113 346 q 86 332 88 332 q 37 260 53 307 q 26 165 21 213 q 57 81 31 117 q 136 42 83 44 m 136 544 q 149 554 139 556 q 158 542 158 553 q 144 479 156 508 q 122 418 133 450 q 108 411 117 410 q 101 424 99 413 q 123 484 113 456 q 136 544 133 513 m 193 536 q 200 550 192 546 q 214 544 208 554 q 212 519 215 538 q 203 482 208 501 q 193 446 199 463 q 188 425 188 429 q 172 418 182 417 q 165 432 163 419 q 170 448 165 432 q 181 483 175 464 q 190 518 186 501 q 193 536 194 535 z "},"Ō":{"ha":340,"x_min":-3,"x_max":329,"o":"m 132 376 q 222 322 176 360 q 297 238 268 283 q 327 145 325 192 q 285 67 329 99 q 212 31 253 44 q 131 21 171 18 q 42 66 74 24 q 3 163 10 108 q 15 272 -3 218 q 75 350 33 325 l 81 354 q 79 356 79 354 q 74 365 76 361 q 75 376 72 369 q 98 384 82 385 q 132 376 114 383 m 136 42 q 203 51 168 40 q 267 81 238 61 q 302 151 304 110 q 275 233 300 193 q 210 306 250 274 q 131 353 169 339 q 100 339 113 346 q 86 332 88 332 q 37 260 53 307 q 26 165 21 213 q 57 81 31 117 q 136 42 83 44 m 74 428 q 64 437 64 429 q 72 449 64 444 q 137 454 104 454 q 203 451 169 454 q 213 440 213 449 q 201 429 213 432 q 138 432 169 432 q 74 428 107 432 z "},"Ø":{"ha":340,"x_min":3,"x_max":329,"o":"m 132 376 q 163 361 147 369 q 196 340 179 353 l 213 388 q 226 394 218 397 q 235 382 235 392 l 215 328 q 276 267 249 300 q 317 199 304 233 q 323 130 329 164 q 285 67 317 96 q 202 25 253 39 q 107 24 151 11 l 85 -40 q 69 -47 78 -49 q 63 -33 60 -44 l 85 31 q 24 94 44 50 q 3 188 4 138 q 22 284 3 238 q 81 354 42 331 q 79 356 79 354 q 74 365 76 361 q 75 376 72 369 q 98 384 82 385 q 132 376 114 383 m 86 332 q 40 269 56 310 q 24 187 24 229 q 40 107 24 144 q 93 53 57 69 l 189 322 q 131 353 157 343 q 100 339 113 346 q 86 332 88 332 m 114 44 q 192 47 151 35 q 267 81 233 60 q 300 132 294 103 q 294 192 306 161 q 260 253 283 224 q 208 307 238 283 l 114 44 z "},"Õ":{"ha":340,"x_min":-3,"x_max":329,"o":"m 132 376 q 222 322 176 360 q 297 238 268 283 q 327 145 325 192 q 285 67 329 99 q 212 31 253 44 q 131 21 171 18 q 42 66 74 24 q 3 163 10 108 q 15 272 -3 218 q 75 350 33 325 l 81 354 q 79 356 79 354 q 74 365 76 361 q 75 376 72 369 q 98 384 82 385 q 132 376 114 383 m 136 42 q 203 51 168 40 q 267 81 238 61 q 302 151 304 110 q 275 233 300 193 q 210 306 250 274 q 131 353 169 339 q 100 339 113 346 q 86 332 88 332 q 37 260 53 307 q 26 165 21 213 q 57 81 31 117 q 136 42 83 44 m 99 421 q 88 410 96 410 q 78 424 79 411 q 82 449 76 438 q 94 471 88 460 q 116 481 106 486 q 135 463 126 475 q 152 438 144 450 q 165 429 160 426 q 174 444 171 432 q 176 467 176 457 q 186 474 176 478 q 197 460 196 471 q 195 440 197 451 q 187 419 193 428 q 172 407 181 410 q 150 414 163 404 q 131 434 139 422 q 114 457 124 446 q 103 441 107 450 q 99 421 99 432 z "},"Ǿ":{"ha":340,"x_min":3,"x_max":329,"o":"m 106 408 q 92 410 99 403 q 90 424 85 417 q 127 467 108 447 q 165 508 146 488 q 181 509 175 515 q 181 493 188 503 q 142 452 161 472 q 106 408 124 432 m 132 376 q 163 361 147 369 q 196 340 179 353 l 213 388 q 226 394 218 397 q 235 382 235 392 l 215 328 q 276 267 249 300 q 317 199 304 233 q 323 130 329 164 q 285 67 317 96 q 202 25 253 39 q 107 24 151 11 l 85 -40 q 69 -47 78 -49 q 63 -33 60 -44 l 85 31 q 24 94 44 50 q 3 188 4 138 q 22 284 3 238 q 81 354 42 331 q 79 356 79 354 q 74 365 76 361 q 75 376 72 369 q 98 384 82 385 q 132 376 114 383 m 86 332 q 40 269 56 310 q 24 187 24 229 q 40 107 24 144 q 93 53 57 69 l 189 322 q 131 353 157 343 q 100 339 113 346 q 86 332 88 332 m 114 44 q 192 47 151 35 q 267 81 233 60 q 300 132 294 103 q 294 192 306 161 q 260 253 283 224 q 208 307 238 283 l 114 44 z "},"Ŕ":{"ha":385,"x_min":0,"x_max":376,"o":"m 4 401 q 8 417 0 411 q 22 411 15 422 q 42 354 36 382 l 49 361 q 114 383 76 379 q 183 374 151 386 q 233 334 215 361 q 239 265 251 307 q 205 206 231 235 q 149 155 179 178 q 92 115 119 132 q 54 90 65 97 q 120 75 79 85 q 205 57 161 65 q 291 43 249 49 q 363 40 333 38 q 375 31 374 40 q 365 18 376 21 q 288 20 329 15 q 203 33 246 25 q 119 52 161 42 q 43 71 78 63 q 44 40 44 54 q 44 15 44 26 q 35 7 42 8 q 24 14 28 6 l 22 14 l 22 21 q 19 65 19 43 q 19 110 18 86 q 17 165 18 136 q 16 222 15 194 q 19 276 17 250 q 26 321 21 301 q 4 401 19 364 m 65 346 q 49 315 53 333 q 47 213 53 264 q 40 108 42 161 q 75 128 50 113 q 128 165 100 143 q 182 215 157 188 q 217 271 207 242 q 211 324 226 301 q 169 356 196 346 q 112 365 142 367 q 65 346 82 364 m 96 429 q 82 431 89 424 q 81 444 75 438 q 117 488 99 468 q 156 529 136 508 q 172 530 165 536 q 171 514 178 524 q 133 473 151 493 q 96 429 114 453 z "},"Ř":{"ha":385,"x_min":0,"x_max":376,"o":"m 4 401 q 8 417 0 411 q 22 411 15 422 q 42 354 36 382 l 49 361 q 114 383 76 379 q 183 374 151 386 q 233 334 215 361 q 239 265 251 307 q 205 206 231 235 q 149 155 179 178 q 92 115 119 132 q 54 90 65 97 q 120 75 79 85 q 205 57 161 65 q 291 43 249 49 q 363 40 333 38 q 375 31 374 40 q 365 18 376 21 q 288 20 329 15 q 203 33 246 25 q 119 52 161 42 q 43 71 78 63 q 44 40 44 54 q 44 15 44 26 q 35 7 42 8 q 24 14 28 6 l 22 14 l 22 21 q 19 65 19 43 q 19 110 18 86 q 17 165 18 136 q 16 222 15 194 q 19 276 17 250 q 26 321 21 301 q 4 401 19 364 m 65 346 q 49 315 53 333 q 47 213 53 264 q 40 108 42 161 q 75 128 50 113 q 128 165 100 143 q 182 215 157 188 q 217 271 207 242 q 211 324 226 301 q 169 356 196 346 q 112 365 142 367 q 65 346 82 364 m 75 497 q 78 510 72 506 q 92 510 85 515 q 113 478 104 494 q 131 444 121 461 q 142 494 136 467 q 149 529 147 522 q 161 539 151 540 q 171 526 171 538 q 167 506 171 522 q 160 471 164 490 q 151 435 156 451 q 146 415 147 419 q 126 411 138 400 q 100 453 110 429 q 75 497 90 478 z "},"Ŗ":{"ha":385,"x_min":0,"x_max":376,"o":"m 4 401 q 8 417 0 411 q 22 411 15 422 q 42 354 36 382 l 49 361 q 114 383 76 379 q 183 374 151 386 q 233 334 215 361 q 239 265 251 307 q 205 206 231 235 q 149 155 179 178 q 92 115 119 132 q 54 90 65 97 q 120 75 79 85 q 205 57 161 65 q 291 43 249 49 q 363 40 333 38 q 375 31 374 40 q 365 18 376 21 q 288 20 329 15 q 203 33 246 25 q 119 52 161 42 q 43 71 78 63 q 44 40 44 54 q 44 15 44 26 q 35 7 42 8 q 24 14 28 6 l 22 14 l 22 21 q 19 65 19 43 q 19 110 18 86 q 17 165 18 136 q 16 222 15 194 q 19 276 17 250 q 26 321 21 301 q 4 401 19 364 m 65 346 q 49 315 53 333 q 47 213 53 264 q 40 108 42 161 q 75 128 50 113 q 128 165 100 143 q 182 215 157 188 q 217 271 207 242 q 211 324 226 301 q 169 356 196 346 q 112 365 142 367 q 65 346 82 364 m 125 -15 q 126 -1 121 -7 q 142 0 132 4 q 156 -30 154 -15 q 154 -60 158 -44 q 142 -90 150 -75 q 124 -118 133 -104 q 109 -119 117 -125 q 107 -104 101 -112 q 120 -83 113 -94 q 132 -61 128 -72 q 135 -38 136 -50 q 125 -15 135 -26 z "},"Ś":{"ha":394,"x_min":3,"x_max":383,"o":"m 282 306 q 276 290 286 294 q 261 296 267 286 q 256 321 258 308 q 244 342 253 333 q 199 366 228 361 q 142 365 171 371 q 85 345 113 358 q 43 315 58 332 q 27 276 28 300 q 42 236 26 253 q 99 192 69 208 q 162 165 129 175 q 228 149 194 156 q 297 136 263 143 q 321 130 306 133 q 351 119 336 126 q 374 103 365 113 q 379 82 383 94 q 361 62 375 69 q 331 49 347 54 q 297 41 314 43 q 267 38 279 39 q 219 33 246 35 q 165 33 193 32 q 110 36 138 33 q 63 44 83 39 q 28 63 36 51 q 31 101 21 75 q 45 109 38 111 q 53 96 53 107 l 44 76 q 79 65 54 69 q 136 57 104 60 q 203 54 168 54 q 270 58 239 54 q 324 68 301 61 q 354 86 347 75 q 344 98 353 93 q 326 106 336 103 q 306 112 317 110 q 290 115 296 114 q 222 130 269 122 q 126 154 175 138 q 40 200 78 171 q 3 279 3 229 q 37 342 3 315 q 115 379 71 368 q 202 386 160 390 q 261 358 244 382 q 277 328 276 338 q 282 306 278 318 m 124 421 q 110 422 117 415 q 108 436 103 429 q 145 480 126 460 q 183 521 164 500 q 199 522 193 528 q 199 506 206 515 q 160 465 179 485 q 124 421 142 444 z "},"Š":{"ha":394,"x_min":3,"x_max":383,"o":"m 282 306 q 276 290 286 294 q 261 296 267 286 q 256 321 258 308 q 244 342 253 333 q 199 366 228 361 q 142 365 171 371 q 85 345 113 358 q 43 315 58 332 q 27 276 28 300 q 42 236 26 253 q 99 192 69 208 q 162 165 129 175 q 228 149 194 156 q 297 136 263 143 q 321 130 306 133 q 351 119 336 126 q 374 103 365 113 q 379 82 383 94 q 361 62 375 69 q 331 49 347 54 q 297 41 314 43 q 267 38 279 39 q 219 33 246 35 q 165 33 193 32 q 110 36 138 33 q 63 44 83 39 q 28 63 36 51 q 31 101 21 75 q 45 109 38 111 q 53 96 53 107 l 44 76 q 79 65 54 69 q 136 57 104 60 q 203 54 168 54 q 270 58 239 54 q 324 68 301 61 q 354 86 347 75 q 344 98 353 93 q 326 106 336 103 q 306 112 317 110 q 290 115 296 114 q 222 130 269 122 q 126 154 175 138 q 40 200 78 171 q 3 279 3 229 q 37 342 3 315 q 115 379 71 368 q 202 386 160 390 q 261 358 244 382 q 277 328 276 338 q 282 306 278 318 m 81 504 q 84 517 78 513 q 97 517 90 522 q 118 485 110 501 q 136 451 126 468 q 147 501 142 474 q 154 536 153 529 q 167 546 157 547 q 176 533 176 544 q 173 513 176 529 q 165 478 169 497 q 157 442 161 458 q 151 422 153 426 q 132 418 143 407 q 106 460 115 436 q 81 504 96 485 z "},"Ş":{"ha":394,"x_min":3,"x_max":383,"o":"m 208 43 q 205 12 206 28 q 213 -12 204 -4 q 231 -22 219 -19 q 254 -26 243 -24 q 274 -33 265 -28 q 283 -51 282 -39 q 277 -71 283 -61 q 260 -88 271 -81 q 238 -100 250 -96 q 217 -101 226 -104 q 211 -100 213 -101 l 208 -97 q 206 -81 200 -87 q 221 -81 211 -74 q 231 -81 225 -83 q 244 -73 238 -78 q 255 -62 250 -68 q 261 -51 260 -56 q 216 -34 232 -40 q 193 -20 200 -28 q 185 1 186 -12 q 188 43 185 15 l 208 43 m 282 306 q 276 290 286 294 q 261 296 267 286 q 256 321 258 308 q 244 342 253 333 q 199 366 228 361 q 142 365 171 371 q 85 345 113 358 q 43 315 58 332 q 27 276 28 300 q 42 236 26 253 q 99 192 69 208 q 162 165 129 175 q 228 149 194 156 q 297 136 263 143 q 321 130 306 133 q 351 119 336 126 q 374 103 365 113 q 379 82 383 94 q 361 62 375 69 q 331 49 347 54 q 297 41 314 43 q 267 38 279 39 q 219 33 246 35 q 165 33 193 32 q 110 36 138 33 q 63 44 83 39 q 28 63 36 51 q 31 101 21 75 q 45 109 38 111 q 53 96 53 107 l 44 76 q 79 65 54 69 q 136 57 104 60 q 203 54 168 54 q 270 58 239 54 q 324 68 301 61 q 354 86 347 75 q 344 98 353 93 q 326 106 336 103 q 306 112 317 110 q 290 115 296 114 q 222 130 269 122 q 126 154 175 138 q 40 200 78 171 q 3 279 3 229 q 37 342 3 315 q 115 379 71 368 q 202 386 160 390 q 261 358 244 382 q 277 328 276 338 q 282 306 278 318 z "},"Ŝ":{"ha":394,"x_min":3,"x_max":383,"o":"m 282 306 q 276 290 286 294 q 261 296 267 286 q 256 321 258 308 q 244 342 253 333 q 199 366 228 361 q 142 365 171 371 q 85 345 113 358 q 43 315 58 332 q 27 276 28 300 q 42 236 26 253 q 99 192 69 208 q 162 165 129 175 q 228 149 194 156 q 297 136 263 143 q 321 130 306 133 q 351 119 336 126 q 374 103 365 113 q 379 82 383 94 q 361 62 375 69 q 331 49 347 54 q 297 41 314 43 q 267 38 279 39 q 219 33 246 35 q 165 33 193 32 q 110 36 138 33 q 63 44 83 39 q 28 63 36 51 q 31 101 21 75 q 45 109 38 111 q 53 96 53 107 l 44 76 q 79 65 54 69 q 136 57 104 60 q 203 54 168 54 q 270 58 239 54 q 324 68 301 61 q 354 86 347 75 q 344 98 353 93 q 326 106 336 103 q 306 112 317 110 q 290 115 296 114 q 222 130 269 122 q 126 154 175 138 q 40 200 78 171 q 3 279 3 229 q 37 342 3 315 q 115 379 71 368 q 202 386 160 390 q 261 358 244 382 q 277 328 276 338 q 282 306 278 318 m 121 436 q 108 426 115 428 q 101 436 101 425 q 115 483 106 458 q 135 528 124 508 q 153 535 142 539 q 163 519 157 531 q 173 495 168 508 q 183 469 178 482 q 192 449 188 456 q 192 432 203 446 l 190 431 q 175 431 182 425 q 158 465 165 443 q 144 503 151 488 q 131 469 138 488 q 121 436 125 451 z "},"Ș":{"ha":394,"x_min":3,"x_max":383,"o":"m 282 306 q 276 290 286 294 q 261 296 267 286 q 256 321 258 308 q 244 342 253 333 q 199 366 228 361 q 142 365 171 371 q 85 345 113 358 q 43 315 58 332 q 27 276 28 300 q 42 236 26 253 q 99 192 69 208 q 162 165 129 175 q 228 149 194 156 q 297 136 263 143 q 321 130 306 133 q 351 119 336 126 q 374 103 365 113 q 379 82 383 94 q 361 62 375 69 q 331 49 347 54 q 297 41 314 43 q 267 38 279 39 q 219 33 246 35 q 165 33 193 32 q 110 36 138 33 q 63 44 83 39 q 28 63 36 51 q 31 101 21 75 q 45 109 38 111 q 53 96 53 107 l 44 76 q 79 65 54 69 q 136 57 104 60 q 203 54 168 54 q 270 58 239 54 q 324 68 301 61 q 354 86 347 75 q 344 98 353 93 q 326 106 336 103 q 306 112 317 110 q 290 115 296 114 q 222 130 269 122 q 126 154 175 138 q 40 200 78 171 q 3 279 3 229 q 37 342 3 315 q 115 379 71 368 q 202 386 160 390 q 261 358 244 382 q 277 328 276 338 q 282 306 278 318 m 189 -21 q 190 -7 185 -12 q 206 -6 196 -1 q 220 -35 218 -21 q 218 -65 222 -50 q 206 -95 214 -81 q 188 -124 197 -110 q 173 -124 181 -131 q 171 -110 165 -118 q 184 -89 176 -100 q 196 -67 192 -78 q 199 -44 200 -56 q 189 -21 199 -32 z "},"Ŧ":{"ha":400,"x_min":3,"x_max":392,"o":"m 75 261 q 64 270 64 263 q 72 282 64 278 q 198 291 135 285 q 324 303 261 297 q 336 293 335 303 q 326 281 338 283 q 263 275 290 278 q 208 269 236 272 q 149 265 181 267 q 75 261 118 263 m 14 358 q 3 369 3 361 q 11 381 3 376 q 194 392 103 383 q 378 403 286 400 q 390 393 389 403 q 381 381 392 383 q 292 376 336 378 q 204 369 249 374 q 214 189 206 278 q 240 10 222 100 q 232 -3 240 -1 q 218 4 224 -4 q 192 186 201 96 q 182 368 183 276 q 98 363 140 365 q 14 358 56 360 z "},"Ť":{"ha":400,"x_min":3,"x_max":392,"o":"m 14 358 q 3 369 3 361 q 11 381 3 376 q 194 392 103 383 q 378 403 286 400 q 390 393 389 403 q 381 381 392 383 q 292 376 336 378 q 204 369 249 374 q 214 189 206 278 q 240 10 222 100 q 232 -3 240 -1 q 218 4 224 -4 q 192 186 201 96 q 182 368 183 276 q 98 363 140 365 q 14 358 56 360 m 135 522 q 138 535 132 531 q 151 535 144 540 q 172 503 164 519 q 190 469 181 486 q 201 519 196 492 q 208 554 207 547 q 221 564 211 565 q 231 551 231 563 q 227 531 231 547 q 219 496 224 515 q 211 460 215 476 q 206 440 207 444 q 186 436 197 425 q 160 478 169 454 q 135 522 150 503 z "},"Ţ":{"ha":400,"x_min":3,"x_max":392,"o":"m 14 358 q 3 369 3 361 q 11 381 3 376 q 194 392 103 383 q 378 403 286 400 q 390 393 389 403 q 381 381 392 383 q 292 376 336 378 q 204 369 249 374 q 214 189 206 278 q 240 10 222 100 q 232 -3 240 -1 q 218 4 224 -4 q 192 186 201 96 q 182 368 183 276 q 98 363 140 365 q 14 358 56 360 m 229 -53 q 231 -39 225 -44 q 246 -37 236 -33 q 260 -67 258 -53 q 258 -97 263 -82 q 246 -127 254 -112 q 228 -156 238 -142 q 213 -156 221 -162 q 211 -142 206 -150 q 224 -121 217 -132 q 236 -99 232 -110 q 240 -76 240 -87 q 229 -53 239 -64 z "},"Ú":{"ha":343,"x_min":3,"x_max":336,"o":"m 3 371 q 13 382 4 382 q 24 372 21 382 q 28 291 24 338 q 42 198 32 244 q 70 110 53 151 q 115 43 88 68 q 158 38 136 25 q 198 77 179 51 q 231 133 217 103 q 250 182 244 164 q 234 242 240 211 q 227 300 228 272 q 231 351 226 328 q 246 388 235 374 q 256 392 251 392 q 281 356 274 383 q 289 297 289 329 q 283 232 289 264 q 272 183 278 200 q 300 115 285 146 q 329 69 315 83 q 328 54 336 60 q 313 57 321 49 q 285 94 299 69 q 261 149 272 118 q 216 62 242 99 q 162 15 190 25 q 103 26 133 4 q 46 115 74 49 q 13 239 22 174 q 3 371 4 304 m 257 364 q 248 305 246 343 q 261 225 250 267 l 261 228 q 267 262 265 243 q 269 299 269 281 q 267 335 269 318 q 257 364 264 351 m 106 442 q 92 443 99 436 q 90 457 85 450 q 127 501 108 481 q 165 542 146 521 q 181 542 175 549 q 181 526 188 536 q 142 485 161 506 q 106 442 124 465 z "},"Ŭ":{"ha":343,"x_min":3,"x_max":336,"o":"m 3 371 q 13 382 4 382 q 24 372 21 382 q 28 291 24 338 q 42 198 32 244 q 70 110 53 151 q 115 43 88 68 q 158 38 136 25 q 198 77 179 51 q 231 133 217 103 q 250 182 244 164 q 234 242 240 211 q 227 300 228 272 q 231 351 226 328 q 246 388 235 374 q 256 392 251 392 q 281 356 274 383 q 289 297 289 329 q 283 232 289 264 q 272 183 278 200 q 300 115 285 146 q 329 69 315 83 q 328 54 336 60 q 313 57 321 49 q 285 94 299 69 q 261 149 272 118 q 216 62 242 99 q 162 15 190 25 q 103 26 133 4 q 46 115 74 49 q 13 239 22 174 q 3 371 4 304 m 257 364 q 248 305 246 343 q 261 225 250 267 l 261 228 q 267 262 265 243 q 269 299 269 281 q 267 335 269 318 q 257 364 264 351 m 74 514 q 83 526 74 524 q 94 519 92 529 q 111 483 100 494 q 135 472 122 471 q 158 485 147 472 q 172 522 168 499 q 187 531 176 533 q 194 517 197 528 q 172 468 189 485 q 135 450 154 451 q 97 465 115 449 q 74 514 79 481 z "},"Û":{"ha":343,"x_min":3,"x_max":336,"o":"m 3 371 q 13 382 4 382 q 24 372 21 382 q 28 291 24 338 q 42 198 32 244 q 70 110 53 151 q 115 43 88 68 q 158 38 136 25 q 198 77 179 51 q 231 133 217 103 q 250 182 244 164 q 234 242 240 211 q 227 300 228 272 q 231 351 226 328 q 246 388 235 374 q 256 392 251 392 q 281 356 274 383 q 289 297 289 329 q 283 232 289 264 q 272 183 278 200 q 300 115 285 146 q 329 69 315 83 q 328 54 336 60 q 313 57 321 49 q 285 94 299 69 q 261 149 272 118 q 216 62 242 99 q 162 15 190 25 q 103 26 133 4 q 46 115 74 49 q 13 239 22 174 q 3 371 4 304 m 257 364 q 248 305 246 343 q 261 225 250 267 l 261 228 q 267 262 265 243 q 269 299 269 281 q 267 335 269 318 q 257 364 264 351 m 107 449 q 94 439 101 440 q 88 449 88 438 q 101 496 92 471 q 121 540 110 521 q 139 547 128 551 q 149 532 143 543 q 159 508 154 521 q 169 481 164 494 q 178 461 174 468 q 178 444 189 458 l 176 443 q 161 443 168 438 q 144 478 151 456 q 131 515 138 500 q 117 482 124 500 q 107 449 111 464 z "},"Ü":{"ha":343,"x_min":3,"x_max":336,"o":"m 3 371 q 13 382 4 382 q 24 372 21 382 q 28 291 24 338 q 42 198 32 244 q 70 110 53 151 q 115 43 88 68 q 158 38 136 25 q 198 77 179 51 q 231 133 217 103 q 250 182 244 164 q 234 242 240 211 q 227 300 228 272 q 231 351 226 328 q 246 388 235 374 q 256 392 251 392 q 281 356 274 383 q 289 297 289 329 q 283 232 289 264 q 272 183 278 200 q 300 115 285 146 q 329 69 315 83 q 328 54 336 60 q 313 57 321 49 q 285 94 299 69 q 261 149 272 118 q 216 62 242 99 q 162 15 190 25 q 103 26 133 4 q 46 115 74 49 q 13 239 22 174 q 3 371 4 304 m 257 364 q 248 305 246 343 q 261 225 250 267 l 261 228 q 267 262 265 243 q 269 299 269 281 q 267 335 269 318 q 257 364 264 351 m 114 476 q 103 460 114 461 q 89 475 92 460 l 89 479 q 103 493 92 494 q 114 478 114 492 l 114 476 m 174 488 q 167 469 179 474 q 150 478 156 465 l 150 479 q 149 482 150 479 q 156 498 147 493 q 172 492 165 503 l 172 489 q 174 488 172 488 z "},"Ù":{"ha":343,"x_min":3,"x_max":336,"o":"m 3 371 q 13 382 4 382 q 24 372 21 382 q 28 291 24 338 q 42 198 32 244 q 70 110 53 151 q 115 43 88 68 q 158 38 136 25 q 198 77 179 51 q 231 133 217 103 q 250 182 244 164 q 234 242 240 211 q 227 300 228 272 q 231 351 226 328 q 246 388 235 374 q 256 392 251 392 q 281 356 274 383 q 289 297 289 329 q 283 232 289 264 q 272 183 278 200 q 300 115 285 146 q 329 69 315 83 q 328 54 336 60 q 313 57 321 49 q 285 94 299 69 q 261 149 272 118 q 216 62 242 99 q 162 15 190 25 q 103 26 133 4 q 46 115 74 49 q 13 239 22 174 q 3 371 4 304 m 257 364 q 248 305 246 343 q 261 225 250 267 l 261 228 q 267 262 265 243 q 269 299 269 281 q 267 335 269 318 q 257 364 264 351 m 106 504 q 103 520 97 513 q 119 521 110 528 q 144 494 133 508 q 168 467 156 481 q 168 451 175 457 q 151 453 161 446 q 130 479 140 465 q 106 504 119 493 z "},"Ű":{"ha":343,"x_min":3,"x_max":336,"o":"m 3 371 q 13 382 4 382 q 24 372 21 382 q 28 291 24 338 q 42 198 32 244 q 70 110 53 151 q 115 43 88 68 q 158 38 136 25 q 198 77 179 51 q 231 133 217 103 q 250 182 244 164 q 234 242 240 211 q 227 300 228 272 q 231 351 226 328 q 246 388 235 374 q 256 392 251 392 q 281 356 274 383 q 289 297 289 329 q 283 232 289 264 q 272 183 278 200 q 300 115 285 146 q 329 69 315 83 q 328 54 336 60 q 313 57 321 49 q 285 94 299 69 q 261 149 272 118 q 216 62 242 99 q 162 15 190 25 q 103 26 133 4 q 46 115 74 49 q 13 239 22 174 q 3 371 4 304 m 257 364 q 248 305 246 343 q 261 225 250 267 l 261 228 q 267 262 265 243 q 269 299 269 281 q 267 335 269 318 q 257 364 264 351 m 113 554 q 125 564 115 565 q 135 551 135 563 q 121 489 132 518 q 99 428 110 460 q 84 421 93 419 q 78 433 75 422 q 99 494 89 465 q 113 554 110 522 m 169 546 q 176 560 168 556 q 190 554 185 564 q 188 529 192 547 q 180 492 185 511 q 169 456 175 472 q 164 435 164 439 q 149 428 158 426 q 142 442 139 429 q 147 458 142 442 q 157 492 151 474 q 167 528 163 511 q 169 546 171 544 z "},"Ū":{"ha":343,"x_min":3,"x_max":336,"o":"m 3 371 q 13 382 4 382 q 24 372 21 382 q 28 291 24 338 q 42 198 32 244 q 70 110 53 151 q 115 43 88 68 q 158 38 136 25 q 198 77 179 51 q 231 133 217 103 q 250 182 244 164 q 234 242 240 211 q 227 300 228 272 q 231 351 226 328 q 246 388 235 374 q 256 392 251 392 q 281 356 274 383 q 289 297 289 329 q 283 232 289 264 q 272 183 278 200 q 300 115 285 146 q 329 69 315 83 q 328 54 336 60 q 313 57 321 49 q 285 94 299 69 q 261 149 272 118 q 216 62 242 99 q 162 15 190 25 q 103 26 133 4 q 46 115 74 49 q 13 239 22 174 q 3 371 4 304 m 257 364 q 248 305 246 343 q 261 225 250 267 l 261 228 q 267 262 265 243 q 269 299 269 281 q 267 335 269 318 q 257 364 264 351 m 71 476 q 61 485 61 478 q 69 497 61 493 q 134 503 101 503 q 200 500 167 503 q 210 489 210 497 q 199 478 210 481 q 135 481 167 481 q 71 476 104 481 z "},"Ů":{"ha":343,"x_min":3,"x_max":336,"o":"m 3 371 q 13 382 4 382 q 24 372 21 382 q 28 291 24 338 q 42 198 32 244 q 70 110 53 151 q 115 43 88 68 q 158 38 136 25 q 198 77 179 51 q 231 133 217 103 q 250 182 244 164 q 234 242 240 211 q 227 300 228 272 q 231 351 226 328 q 246 388 235 374 q 256 392 251 392 q 281 356 274 383 q 289 297 289 329 q 283 232 289 264 q 272 183 278 200 q 300 115 285 146 q 329 69 315 83 q 328 54 336 60 q 313 57 321 49 q 285 94 299 69 q 261 149 272 118 q 216 62 242 99 q 162 15 190 25 q 103 26 133 4 q 46 115 74 49 q 13 239 22 174 q 3 371 4 304 m 257 364 q 248 305 246 343 q 261 225 250 267 l 261 228 q 267 262 265 243 q 269 299 269 281 q 267 335 269 318 q 257 364 264 351 m 136 507 q 149 500 144 507 q 165 481 160 492 q 169 460 171 469 q 157 444 167 450 q 129 439 147 438 q 99 460 103 440 q 110 494 96 479 q 109 506 107 500 q 119 511 111 511 l 133 507 l 136 507 m 131 460 q 148 467 150 457 q 133 483 146 476 q 119 471 124 479 q 131 460 115 463 z "},"Ũ":{"ha":343,"x_min":3,"x_max":336,"o":"m 3 371 q 13 382 4 382 q 24 372 21 382 q 28 291 24 338 q 42 198 32 244 q 70 110 53 151 q 115 43 88 68 q 158 38 136 25 q 198 77 179 51 q 231 133 217 103 q 250 182 244 164 q 234 242 240 211 q 227 300 228 272 q 231 351 226 328 q 246 388 235 374 q 256 392 251 392 q 281 356 274 383 q 289 297 289 329 q 283 232 289 264 q 272 183 278 200 q 300 115 285 146 q 329 69 315 83 q 328 54 336 60 q 313 57 321 49 q 285 94 299 69 q 261 149 272 118 q 216 62 242 99 q 162 15 190 25 q 103 26 133 4 q 46 115 74 49 q 13 239 22 174 q 3 371 4 304 m 257 364 q 248 305 246 343 q 261 225 250 267 l 261 228 q 267 262 265 243 q 269 299 269 281 q 267 335 269 318 q 257 364 264 351 m 97 457 q 86 447 94 446 q 76 460 78 447 q 81 485 75 474 q 93 507 86 496 q 115 517 104 522 q 134 499 125 511 q 151 474 143 486 q 164 465 158 463 q 172 481 169 468 q 175 503 175 493 q 185 510 175 514 q 196 496 194 507 q 194 476 196 488 q 185 455 192 464 q 170 443 179 446 q 149 450 161 440 q 130 470 138 458 q 113 493 122 482 q 101 477 106 486 q 97 457 97 468 z "},"Ų":{"ha":343,"x_min":3,"x_max":368,"o":"m 3 371 q 13 382 4 382 q 24 372 21 382 q 28 291 24 338 q 42 198 32 244 q 70 110 53 151 q 115 43 88 68 q 158 38 136 25 q 198 77 179 51 q 231 133 217 103 q 250 182 244 164 q 234 242 240 211 q 227 300 228 272 q 231 351 226 328 q 246 388 235 374 q 256 392 251 392 q 281 356 274 383 q 289 297 289 329 q 283 232 289 264 q 272 183 278 200 q 300 115 285 146 q 329 69 315 83 q 328 54 336 60 q 313 57 321 49 q 285 94 299 69 q 261 149 272 118 q 216 62 242 99 q 162 15 190 25 q 103 26 133 4 q 46 115 74 49 q 13 239 22 174 q 3 371 4 304 m 257 364 q 248 305 246 343 q 261 225 250 267 l 261 228 q 267 262 265 243 q 269 299 269 281 q 267 335 269 318 q 257 364 264 351 m 313 68 q 330 69 324 75 q 329 53 336 63 q 310 22 318 38 q 297 -14 301 6 q 310 -12 303 -15 q 326 -6 318 -10 q 342 1 335 -3 q 353 7 349 4 q 365 -1 363 7 q 358 -15 368 -10 q 298 -35 317 -36 q 277 -21 279 -35 q 285 17 275 -7 q 313 68 296 40 z "},"Ẃ":{"ha":464,"x_min":1,"x_max":444,"o":"m 81 25 q 67 115 72 65 q 56 214 63 165 q 40 306 50 263 q 13 376 29 349 q 3 382 6 376 q 3 392 1 388 q 10 401 6 397 q 22 400 15 404 q 54 333 42 376 q 74 244 67 290 q 86 153 82 197 q 93 82 90 108 q 106 142 97 103 q 126 224 114 182 q 152 301 138 267 q 183 346 167 336 q 188 347 188 346 q 190 344 188 347 q 214 304 200 336 q 243 233 228 272 q 272 158 258 194 q 294 103 286 121 q 320 58 304 81 q 353 26 336 35 q 385 26 369 17 q 411 79 401 36 q 419 251 431 160 q 376 419 408 343 q 351 464 365 443 q 322 507 336 485 q 324 520 318 515 q 339 519 331 525 q 369 475 354 497 q 396 428 385 453 q 424 345 413 390 q 440 253 435 300 q 442 160 444 206 q 432 72 440 114 q 402 11 425 36 q 340 0 379 -14 q 288 64 311 21 q 245 156 264 107 q 212 249 226 204 q 186 319 197 294 q 156 251 167 288 q 138 176 146 214 q 123 99 131 138 q 101 26 115 61 q 90 18 97 19 q 81 25 83 17 m 153 454 q 139 456 146 449 q 138 469 132 463 q 174 513 156 493 q 213 554 193 533 q 228 555 222 561 q 228 539 235 549 q 190 498 208 518 q 153 454 171 478 z "},"Ŵ":{"ha":464,"x_min":1,"x_max":444,"o":"m 81 25 q 67 115 72 65 q 56 214 63 165 q 40 306 50 263 q 13 376 29 349 q 3 382 6 376 q 3 392 1 388 q 10 401 6 397 q 22 400 15 404 q 54 333 42 376 q 74 244 67 290 q 86 153 82 197 q 93 82 90 108 q 106 142 97 103 q 126 224 114 182 q 152 301 138 267 q 183 346 167 336 q 188 347 188 346 q 190 344 188 347 q 214 304 200 336 q 243 233 228 272 q 272 158 258 194 q 294 103 286 121 q 320 58 304 81 q 353 26 336 35 q 385 26 369 17 q 411 79 401 36 q 419 251 431 160 q 376 419 408 343 q 351 464 365 443 q 322 507 336 485 q 324 520 318 515 q 339 519 331 525 q 369 475 354 497 q 396 428 385 453 q 424 345 413 390 q 440 253 435 300 q 442 160 444 206 q 432 72 440 114 q 402 11 425 36 q 340 0 379 -14 q 288 64 311 21 q 245 156 264 107 q 212 249 226 204 q 186 319 197 294 q 156 251 167 288 q 138 176 146 214 q 123 99 131 138 q 101 26 115 61 q 90 18 97 19 q 81 25 83 17 m 154 449 q 142 439 149 440 q 135 449 135 438 q 148 496 139 471 q 168 540 157 521 q 186 547 175 551 q 196 532 190 543 q 206 508 201 521 q 216 481 211 494 q 225 461 221 468 q 225 444 236 458 l 224 443 q 208 443 215 438 q 192 478 199 456 q 178 515 185 500 q 165 482 171 500 q 154 449 158 464 z "},"Ẅ":{"ha":464,"x_min":1,"x_max":444,"o":"m 81 25 q 67 115 72 65 q 56 214 63 165 q 40 306 50 263 q 13 376 29 349 q 3 382 6 376 q 3 392 1 388 q 10 401 6 397 q 22 400 15 404 q 54 333 42 376 q 74 244 67 290 q 86 153 82 197 q 93 82 90 108 q 106 142 97 103 q 126 224 114 182 q 152 301 138 267 q 183 346 167 336 q 188 347 188 346 q 190 344 188 347 q 214 304 200 336 q 243 233 228 272 q 272 158 258 194 q 294 103 286 121 q 320 58 304 81 q 353 26 336 35 q 385 26 369 17 q 411 79 401 36 q 419 251 431 160 q 376 419 408 343 q 351 464 365 443 q 322 507 336 485 q 324 520 318 515 q 339 519 331 525 q 369 475 354 497 q 396 428 385 453 q 424 345 413 390 q 440 253 435 300 q 442 160 444 206 q 432 72 440 114 q 402 11 425 36 q 340 0 379 -14 q 288 64 311 21 q 245 156 264 107 q 212 249 226 204 q 186 319 197 294 q 156 251 167 288 q 138 176 146 214 q 123 99 131 138 q 101 26 115 61 q 90 18 97 19 q 81 25 83 17 m 163 476 q 151 460 163 461 q 138 475 140 460 l 138 479 q 151 493 140 494 q 163 478 163 492 l 163 476 m 222 488 q 216 469 228 474 q 199 478 204 465 l 199 479 q 197 482 199 479 q 205 498 196 493 q 221 492 214 503 l 221 489 q 222 488 221 488 z "},"Ẁ":{"ha":464,"x_min":1,"x_max":444,"o":"m 81 25 q 67 115 72 65 q 56 214 63 165 q 40 306 50 263 q 13 376 29 349 q 3 382 6 376 q 3 392 1 388 q 10 401 6 397 q 22 400 15 404 q 54 333 42 376 q 74 244 67 290 q 86 153 82 197 q 93 82 90 108 q 106 142 97 103 q 126 224 114 182 q 152 301 138 267 q 183 346 167 336 q 188 347 188 346 q 190 344 188 347 q 214 304 200 336 q 243 233 228 272 q 272 158 258 194 q 294 103 286 121 q 320 58 304 81 q 353 26 336 35 q 385 26 369 17 q 411 79 401 36 q 419 251 431 160 q 376 419 408 343 q 351 464 365 443 q 322 507 336 485 q 324 520 318 515 q 339 519 331 525 q 369 475 354 497 q 396 428 385 453 q 424 345 413 390 q 440 253 435 300 q 442 160 444 206 q 432 72 440 114 q 402 11 425 36 q 340 0 379 -14 q 288 64 311 21 q 245 156 264 107 q 212 249 226 204 q 186 319 197 294 q 156 251 167 288 q 138 176 146 214 q 123 99 131 138 q 101 26 115 61 q 90 18 97 19 q 81 25 83 17 m 154 504 q 152 520 146 513 q 168 521 158 528 q 193 494 182 508 q 217 467 204 481 q 217 451 224 457 q 200 453 210 446 q 178 479 189 465 q 154 504 168 493 z "},"Ý":{"ha":394,"x_min":-6,"x_max":403,"o":"m 125 290 q 129 306 119 301 q 142 303 139 310 q 162 258 151 285 q 185 206 172 232 q 214 158 199 181 q 247 128 229 136 q 267 181 264 143 q 271 258 271 218 q 266 299 268 276 q 263 342 264 321 q 261 380 261 363 q 263 407 261 397 q 272 417 265 415 q 282 411 278 418 q 290 383 288 403 q 292 340 292 363 q 292 294 293 317 q 293 258 292 271 q 311 160 300 208 q 335 63 322 111 l 367 74 q 381 67 378 75 q 381 57 385 60 l 340 43 q 356 -16 347 14 q 375 -76 365 -46 q 397 -179 390 -133 q 392 -258 403 -225 q 350 -308 382 -290 q 256 -325 318 -325 q 201 -319 238 -325 q 122 -296 165 -314 q 43 -249 75 -276 q 3 -192 11 -222 q 13 -128 -6 -161 q 82 -62 31 -96 q 194 1 132 -31 q 314 56 256 32 q 301 114 307 85 q 288 172 294 143 q 283 154 286 167 q 274 130 279 142 q 260 110 268 118 q 243 106 253 101 q 200 143 219 117 q 165 198 181 169 q 140 253 150 226 q 125 290 129 279 m 363 -107 q 342 -36 353 -71 q 322 36 331 -1 q 250 4 286 21 q 184 -28 214 -12 q 131 -58 154 -44 q 96 -78 107 -71 q 28 -149 35 -114 q 42 -214 21 -185 q 102 -264 64 -243 q 168 -290 140 -285 q 287 -303 240 -307 q 356 -277 333 -300 q 380 -212 379 -254 q 363 -107 381 -169 m 167 454 q 153 456 160 449 q 151 469 146 463 q 188 513 169 493 q 226 554 207 533 q 242 555 236 561 q 242 539 249 549 q 203 498 222 518 q 167 454 185 478 z "},"Ŷ":{"ha":394,"x_min":-6,"x_max":403,"o":"m 125 290 q 129 306 119 301 q 142 303 139 310 q 162 258 151 285 q 185 206 172 232 q 214 158 199 181 q 247 128 229 136 q 267 181 264 143 q 271 258 271 218 q 266 299 268 276 q 263 342 264 321 q 261 380 261 363 q 263 407 261 397 q 272 417 265 415 q 282 411 278 418 q 290 383 288 403 q 292 340 292 363 q 292 294 293 317 q 293 258 292 271 q 311 160 300 208 q 335 63 322 111 l 367 74 q 381 67 378 75 q 381 57 385 60 l 340 43 q 356 -16 347 14 q 375 -76 365 -46 q 397 -179 390 -133 q 392 -258 403 -225 q 350 -308 382 -290 q 256 -325 318 -325 q 201 -319 238 -325 q 122 -296 165 -314 q 43 -249 75 -276 q 3 -192 11 -222 q 13 -128 -6 -161 q 82 -62 31 -96 q 194 1 132 -31 q 314 56 256 32 q 301 114 307 85 q 288 172 294 143 q 283 154 286 167 q 274 130 279 142 q 260 110 268 118 q 243 106 253 101 q 200 143 219 117 q 165 198 181 169 q 140 253 150 226 q 125 290 129 279 m 363 -107 q 342 -36 353 -71 q 322 36 331 -1 q 250 4 286 21 q 184 -28 214 -12 q 131 -58 154 -44 q 96 -78 107 -71 q 28 -149 35 -114 q 42 -214 21 -185 q 102 -264 64 -243 q 168 -290 140 -285 q 287 -303 240 -307 q 356 -277 333 -300 q 380 -212 379 -254 q 363 -107 381 -169 m 169 449 q 157 439 164 440 q 150 449 150 438 q 163 496 154 471 q 183 540 172 521 q 201 547 190 551 q 211 532 206 543 q 222 508 217 521 q 231 481 226 494 q 240 461 236 468 q 240 444 251 458 l 239 443 q 224 443 231 438 q 207 478 214 456 q 193 515 200 500 q 180 482 186 500 q 169 449 174 464 z "},"Ÿ":{"ha":394,"x_min":-6,"x_max":403,"o":"m 125 290 q 129 306 119 301 q 142 303 139 310 q 162 258 151 285 q 185 206 172 232 q 214 158 199 181 q 247 128 229 136 q 267 181 264 143 q 271 258 271 218 q 266 299 268 276 q 263 342 264 321 q 261 380 261 363 q 263 407 261 397 q 272 417 265 415 q 282 411 278 418 q 290 383 288 403 q 292 340 292 363 q 292 294 293 317 q 293 258 292 271 q 311 160 300 208 q 335 63 322 111 l 367 74 q 381 67 378 75 q 381 57 385 60 l 340 43 q 356 -16 347 14 q 375 -76 365 -46 q 397 -179 390 -133 q 392 -258 403 -225 q 350 -308 382 -290 q 256 -325 318 -325 q 201 -319 238 -325 q 122 -296 165 -314 q 43 -249 75 -276 q 3 -192 11 -222 q 13 -128 -6 -161 q 82 -62 31 -96 q 194 1 132 -31 q 314 56 256 32 q 301 114 307 85 q 288 172 294 143 q 283 154 286 167 q 274 130 279 142 q 260 110 268 118 q 243 106 253 101 q 200 143 219 117 q 165 198 181 169 q 140 253 150 226 q 125 290 129 279 m 363 -107 q 342 -36 353 -71 q 322 36 331 -1 q 250 4 286 21 q 184 -28 214 -12 q 131 -58 154 -44 q 96 -78 107 -71 q 28 -149 35 -114 q 42 -214 21 -185 q 102 -264 64 -243 q 168 -290 140 -285 q 287 -303 240 -307 q 356 -277 333 -300 q 380 -212 379 -254 q 363 -107 381 -169 m 176 476 q 165 460 176 461 q 151 475 154 460 l 151 479 q 165 493 154 494 q 176 478 176 492 l 176 476 m 236 488 q 230 469 242 474 q 213 478 218 465 l 213 479 q 211 482 213 479 q 219 498 210 493 q 235 492 228 503 l 235 489 q 236 488 235 488 z "},"Ỳ":{"ha":394,"x_min":-6,"x_max":403,"o":"m 125 290 q 129 306 119 301 q 142 303 139 310 q 162 258 151 285 q 185 206 172 232 q 214 158 199 181 q 247 128 229 136 q 267 181 264 143 q 271 258 271 218 q 266 299 268 276 q 263 342 264 321 q 261 380 261 363 q 263 407 261 397 q 272 417 265 415 q 282 411 278 418 q 290 383 288 403 q 292 340 292 363 q 292 294 293 317 q 293 258 292 271 q 311 160 300 208 q 335 63 322 111 l 367 74 q 381 67 378 75 q 381 57 385 60 l 340 43 q 356 -16 347 14 q 375 -76 365 -46 q 397 -179 390 -133 q 392 -258 403 -225 q 350 -308 382 -290 q 256 -325 318 -325 q 201 -319 238 -325 q 122 -296 165 -314 q 43 -249 75 -276 q 3 -192 11 -222 q 13 -128 -6 -161 q 82 -62 31 -96 q 194 1 132 -31 q 314 56 256 32 q 301 114 307 85 q 288 172 294 143 q 283 154 286 167 q 274 130 279 142 q 260 110 268 118 q 243 106 253 101 q 200 143 219 117 q 165 198 181 169 q 140 253 150 226 q 125 290 129 279 m 363 -107 q 342 -36 353 -71 q 322 36 331 -1 q 250 4 286 21 q 184 -28 214 -12 q 131 -58 154 -44 q 96 -78 107 -71 q 28 -149 35 -114 q 42 -214 21 -185 q 102 -264 64 -243 q 168 -290 140 -285 q 287 -303 240 -307 q 356 -277 333 -300 q 380 -212 379 -254 q 363 -107 381 -169 m 167 504 q 165 520 158 513 q 181 521 171 528 q 206 494 194 508 q 229 467 217 481 q 229 451 236 457 q 213 453 222 446 q 191 479 201 465 q 167 504 181 493 z "},"Ź":{"ha":399,"x_min":-4,"x_max":389,"o":"m 36 361 q 29 373 26 365 q 42 383 32 381 q 76 392 51 385 q 131 406 100 399 q 193 417 161 413 q 251 418 225 421 q 294 402 278 415 q 308 361 310 389 q 284 309 307 338 q 228 251 261 281 q 158 190 196 221 q 90 131 121 158 q 40 82 60 104 q 24 47 21 60 q 72 31 32 31 q 166 39 113 32 q 277 53 219 46 q 378 57 335 61 q 387 44 389 54 q 372 35 385 35 q 320 35 353 39 q 249 26 288 32 q 171 16 211 21 q 96 10 131 11 q 36 15 61 8 q 4 39 11 21 q 14 83 -4 57 q 63 138 32 108 q 133 200 94 168 q 207 262 172 232 q 265 317 242 292 q 288 360 288 342 q 275 390 289 381 q 239 399 261 399 q 188 394 217 400 q 132 382 160 389 q 78 369 104 375 q 36 361 53 363 m 132 465 q 118 467 125 460 q 117 481 111 474 q 153 524 135 504 q 192 565 172 544 q 208 566 201 572 q 207 550 214 560 q 169 509 188 529 q 132 465 150 489 z "},"Ž":{"ha":399,"x_min":-4,"x_max":389,"o":"m 36 361 q 29 373 26 365 q 42 383 32 381 q 76 392 51 385 q 131 406 100 399 q 193 417 161 413 q 251 418 225 421 q 294 402 278 415 q 308 361 310 389 q 284 309 307 338 q 228 251 261 281 q 158 190 196 221 q 90 131 121 158 q 40 82 60 104 q 24 47 21 60 q 72 31 32 31 q 166 39 113 32 q 277 53 219 46 q 378 57 335 61 q 387 44 389 54 q 372 35 385 35 q 320 35 353 39 q 249 26 288 32 q 171 16 211 21 q 96 10 131 11 q 36 15 61 8 q 4 39 11 21 q 14 83 -4 57 q 63 138 32 108 q 133 200 94 168 q 207 262 172 232 q 265 317 242 292 q 288 360 288 342 q 275 390 289 381 q 239 399 261 399 q 188 394 217 400 q 132 382 160 389 q 78 369 104 375 q 36 361 53 363 m 106 536 q 109 549 103 544 q 122 549 115 554 q 143 517 135 533 q 161 483 151 500 q 172 533 167 506 q 179 568 178 561 q 192 578 182 579 q 201 565 201 576 q 198 545 201 561 q 190 510 194 529 q 182 474 186 490 q 176 454 178 458 q 157 450 168 439 q 131 492 140 468 q 106 536 121 517 z "},"Ż":{"ha":399,"x_min":-4,"x_max":389,"o":"m 36 361 q 29 373 26 365 q 42 383 32 381 q 76 392 51 385 q 131 406 100 399 q 193 417 161 413 q 251 418 225 421 q 294 402 278 415 q 308 361 310 389 q 284 309 307 338 q 228 251 261 281 q 158 190 196 221 q 90 131 121 158 q 40 82 60 104 q 24 47 21 60 q 72 31 32 31 q 166 39 113 32 q 277 53 219 46 q 378 57 335 61 q 387 44 389 54 q 372 35 385 35 q 320 35 353 39 q 249 26 288 32 q 171 16 211 21 q 96 10 131 11 q 36 15 61 8 q 4 39 11 21 q 14 83 -4 57 q 63 138 32 108 q 133 200 94 168 q 207 262 172 232 q 265 317 242 292 q 288 360 288 342 q 275 390 289 381 q 239 399 261 399 q 188 394 217 400 q 132 382 160 389 q 78 369 104 375 q 36 361 53 363 m 164 499 q 158 481 169 485 q 139 489 146 476 l 139 493 q 147 509 138 504 q 163 503 156 514 l 163 500 q 164 499 163 499 z "},"á":{"ha":249,"x_min":10,"x_max":243,"o":"m 193 208 q 188 194 196 201 q 174 194 181 188 q 188 139 179 168 q 204 83 196 110 q 222 34 213 56 q 240 1 232 13 q 235 -13 243 -7 q 221 -12 228 -19 q 189 60 197 22 q 171 138 181 97 l 164 161 q 138 94 157 124 q 106 63 125 78 q 69 42 88 47 q 35 47 50 38 q 14 89 19 57 q 19 148 10 118 q 48 202 29 178 q 91 242 67 226 q 138 261 115 258 l 138 267 q 147 276 140 274 q 158 272 153 279 l 161 256 q 193 208 185 246 m 121 103 q 143 168 140 133 q 142 238 146 203 q 104 228 125 240 q 67 196 83 217 q 40 149 50 175 q 35 101 31 124 q 49 70 39 78 q 71 65 58 63 q 97 77 83 67 q 121 103 110 88 m 81 293 q 67 294 74 288 q 65 308 60 301 q 102 352 83 332 q 140 393 121 372 q 156 394 150 400 q 156 378 163 388 q 117 337 136 357 q 81 293 99 317 z "},"ă":{"ha":249,"x_min":10,"x_max":243,"o":"m 193 208 q 188 194 196 201 q 174 194 181 188 q 188 139 179 168 q 204 83 196 110 q 222 34 213 56 q 240 1 232 13 q 235 -13 243 -7 q 221 -12 228 -19 q 189 60 197 22 q 171 138 181 97 l 164 161 q 138 94 157 124 q 106 63 125 78 q 69 42 88 47 q 35 47 50 38 q 14 89 19 57 q 19 148 10 118 q 48 202 29 178 q 91 242 67 226 q 138 261 115 258 l 138 267 q 147 276 140 274 q 158 272 153 279 l 161 256 q 193 208 185 246 m 121 103 q 143 168 140 133 q 142 238 146 203 q 104 228 125 240 q 67 196 83 217 q 40 149 50 175 q 35 101 31 124 q 49 70 39 78 q 71 65 58 63 q 97 77 83 67 q 121 103 110 88 m 51 376 q 60 389 51 386 q 72 382 69 392 q 89 345 78 357 q 113 334 100 333 q 135 348 125 335 q 150 385 146 361 q 165 393 154 396 q 172 379 175 390 q 149 331 167 347 q 113 313 132 314 q 75 327 93 311 q 51 376 57 343 z "},"â":{"ha":249,"x_min":10,"x_max":243,"o":"m 193 208 q 188 194 196 201 q 174 194 181 188 q 188 139 179 168 q 204 83 196 110 q 222 34 213 56 q 240 1 232 13 q 235 -13 243 -7 q 221 -12 228 -19 q 189 60 197 22 q 171 138 181 97 l 164 161 q 138 94 157 124 q 106 63 125 78 q 69 42 88 47 q 35 47 50 38 q 14 89 19 57 q 19 148 10 118 q 48 202 29 178 q 91 242 67 226 q 138 261 115 258 l 138 267 q 147 276 140 274 q 158 272 153 279 l 161 256 q 193 208 185 246 m 121 103 q 143 168 140 133 q 142 238 146 203 q 104 228 125 240 q 67 196 83 217 q 40 149 50 175 q 35 101 31 124 q 49 70 39 78 q 71 65 58 63 q 97 77 83 67 q 121 103 110 88 m 83 311 q 71 301 78 303 q 64 311 64 300 q 77 358 68 333 q 97 403 86 383 q 115 410 104 414 q 125 394 119 406 q 135 370 131 383 q 145 344 140 357 q 154 324 150 331 q 154 307 165 321 l 153 306 q 138 306 144 300 q 121 340 128 318 q 107 378 114 363 q 94 344 100 363 q 83 311 88 326 z "},"ä":{"ha":249,"x_min":10,"x_max":243,"o":"m 193 208 q 188 194 196 201 q 174 194 181 188 q 188 139 179 168 q 204 83 196 110 q 222 34 213 56 q 240 1 232 13 q 235 -13 243 -7 q 221 -12 228 -19 q 189 60 197 22 q 171 138 181 97 l 164 161 q 138 94 157 124 q 106 63 125 78 q 69 42 88 47 q 35 47 50 38 q 14 89 19 57 q 19 148 10 118 q 48 202 29 178 q 91 242 67 226 q 138 261 115 258 l 138 267 q 147 276 140 274 q 158 272 153 279 l 161 256 q 193 208 185 246 m 121 103 q 143 168 140 133 q 142 238 146 203 q 104 228 125 240 q 67 196 83 217 q 40 149 50 175 q 35 101 31 124 q 49 70 39 78 q 71 65 58 63 q 97 77 83 67 q 121 103 110 88 m 92 339 q 81 323 92 324 q 67 338 69 322 l 67 342 q 81 356 69 357 q 92 340 92 354 l 92 339 m 151 350 q 145 332 157 336 q 128 340 133 328 l 128 342 q 126 344 128 342 q 134 360 125 356 q 150 354 143 365 l 150 351 q 151 350 150 350 z "},"à":{"ha":249,"x_min":10,"x_max":243,"o":"m 193 208 q 188 194 196 201 q 174 194 181 188 q 188 139 179 168 q 204 83 196 110 q 222 34 213 56 q 240 1 232 13 q 235 -13 243 -7 q 221 -12 228 -19 q 189 60 197 22 q 171 138 181 97 l 164 161 q 138 94 157 124 q 106 63 125 78 q 69 42 88 47 q 35 47 50 38 q 14 89 19 57 q 19 148 10 118 q 48 202 29 178 q 91 242 67 226 q 138 261 115 258 l 138 267 q 147 276 140 274 q 158 272 153 279 l 161 256 q 193 208 185 246 m 121 103 q 143 168 140 133 q 142 238 146 203 q 104 228 125 240 q 67 196 83 217 q 40 149 50 175 q 35 101 31 124 q 49 70 39 78 q 71 65 58 63 q 97 77 83 67 q 121 103 110 88 m 69 354 q 67 370 61 363 q 83 371 74 378 q 108 344 97 358 q 132 317 119 331 q 132 301 139 307 q 115 303 125 296 q 94 329 104 315 q 69 354 83 343 z "},"ā":{"ha":249,"x_min":10,"x_max":243,"o":"m 193 208 q 188 194 196 201 q 174 194 181 188 q 188 139 179 168 q 204 83 196 110 q 222 34 213 56 q 240 1 232 13 q 235 -13 243 -7 q 221 -12 228 -19 q 189 60 197 22 q 171 138 181 97 l 164 161 q 138 94 157 124 q 106 63 125 78 q 69 42 88 47 q 35 47 50 38 q 14 89 19 57 q 19 148 10 118 q 48 202 29 178 q 91 242 67 226 q 138 261 115 258 l 138 267 q 147 276 140 274 q 158 272 153 279 l 161 256 q 193 208 185 246 m 121 103 q 143 168 140 133 q 142 238 146 203 q 104 228 125 240 q 67 196 83 217 q 40 149 50 175 q 35 101 31 124 q 49 70 39 78 q 71 65 58 63 q 97 77 83 67 q 121 103 110 88 m 44 329 q 35 338 35 331 q 43 350 35 346 q 108 356 75 356 q 174 353 140 356 q 183 342 183 350 q 172 331 183 333 q 109 333 140 333 q 44 329 78 333 z "},"ą":{"ha":249,"x_min":10,"x_max":276,"o":"m 193 208 q 188 194 196 201 q 174 194 181 188 q 188 139 179 168 q 204 83 196 110 q 222 34 213 56 q 240 1 232 13 q 235 -13 243 -7 q 221 -12 228 -19 q 189 60 197 22 q 171 138 181 97 l 164 161 q 138 94 157 124 q 106 63 125 78 q 69 42 88 47 q 35 47 50 38 q 14 89 19 57 q 19 148 10 118 q 48 202 29 178 q 91 242 67 226 q 138 261 115 258 l 138 267 q 147 276 140 274 q 158 272 153 279 l 161 256 q 193 208 185 246 m 121 103 q 143 168 140 133 q 142 238 146 203 q 104 228 125 240 q 67 196 83 217 q 40 149 50 175 q 35 101 31 124 q 49 70 39 78 q 71 65 58 63 q 97 77 83 67 q 121 103 110 88 m 221 4 q 238 5 232 11 q 238 -11 244 -1 q 218 -42 226 -26 q 206 -78 210 -58 q 219 -76 211 -79 q 235 -70 226 -74 q 250 -63 243 -67 q 261 -57 257 -60 q 274 -65 271 -57 q 267 -79 276 -74 q 206 -99 225 -100 q 185 -85 188 -99 q 194 -47 183 -71 q 221 4 204 -24 z "},"å":{"ha":249,"x_min":10,"x_max":243,"o":"m 193 208 q 188 194 196 201 q 174 194 181 188 q 188 139 179 168 q 204 83 196 110 q 222 34 213 56 q 240 1 232 13 q 235 -13 243 -7 q 221 -12 228 -19 q 189 60 197 22 q 171 138 181 97 l 164 161 q 138 94 157 124 q 106 63 125 78 q 69 42 88 47 q 35 47 50 38 q 14 89 19 57 q 19 148 10 118 q 48 202 29 178 q 91 242 67 226 q 138 261 115 258 l 138 267 q 147 276 140 274 q 158 272 153 279 l 161 256 q 193 208 185 246 m 121 103 q 143 168 140 133 q 142 238 146 203 q 104 228 125 240 q 67 196 83 217 q 40 149 50 175 q 35 101 31 124 q 49 70 39 78 q 71 65 58 63 q 97 77 83 67 q 121 103 110 88 m 113 369 q 125 363 121 369 q 142 343 136 354 q 145 322 147 332 q 133 306 143 313 q 106 301 124 300 q 76 322 79 303 q 86 357 72 342 q 85 368 83 363 q 96 374 88 374 l 110 369 l 113 369 m 107 322 q 124 329 126 319 q 110 346 122 339 q 96 333 100 342 q 107 322 92 325 z "},"ã":{"ha":249,"x_min":10,"x_max":243,"o":"m 193 208 q 188 194 196 201 q 174 194 181 188 q 188 139 179 168 q 204 83 196 110 q 222 34 213 56 q 240 1 232 13 q 235 -13 243 -7 q 221 -12 228 -19 q 189 60 197 22 q 171 138 181 97 l 164 161 q 138 94 157 124 q 106 63 125 78 q 69 42 88 47 q 35 47 50 38 q 14 89 19 57 q 19 148 10 118 q 48 202 29 178 q 91 242 67 226 q 138 261 115 258 l 138 267 q 147 276 140 274 q 158 272 153 279 l 161 256 q 193 208 185 246 m 121 103 q 143 168 140 133 q 142 238 146 203 q 104 228 125 240 q 67 196 83 217 q 40 149 50 175 q 35 101 31 124 q 49 70 39 78 q 71 65 58 63 q 97 77 83 67 q 121 103 110 88 m 74 311 q 63 301 71 300 q 53 314 54 301 q 57 339 51 328 q 69 361 63 350 q 91 371 81 376 q 110 353 101 365 q 127 328 119 340 q 140 319 135 317 q 149 335 146 322 q 151 357 151 347 q 161 365 151 368 q 172 350 171 361 q 170 330 172 342 q 162 309 168 318 q 147 297 156 300 q 125 304 138 294 q 106 324 114 313 q 89 347 99 336 q 78 331 82 340 q 74 311 74 322 z "},"ǽ":{"ha":332,"x_min":10,"x_max":321,"o":"m 193 208 q 188 194 196 201 q 174 194 181 188 q 188 139 179 168 q 204 83 196 110 q 222 34 213 56 q 240 1 232 13 q 235 -13 243 -7 q 221 -12 228 -19 q 189 60 197 22 q 171 138 181 97 l 164 161 q 138 94 157 124 q 106 63 125 78 q 69 42 88 47 q 35 47 50 38 q 14 89 19 57 q 19 148 10 118 q 48 202 29 178 q 91 242 67 226 q 138 261 115 258 l 138 267 q 147 276 140 274 q 158 272 153 279 l 161 256 q 193 208 185 246 m 121 103 q 143 168 140 133 q 142 238 146 203 q 104 228 125 240 q 67 196 83 217 q 40 149 50 175 q 35 101 31 124 q 49 70 39 78 q 71 65 58 63 q 97 77 83 67 q 121 103 110 88 m 175 153 q 185 197 176 175 q 207 235 193 219 q 238 256 221 250 q 272 253 254 263 q 305 215 301 238 q 294 172 308 192 q 255 137 281 151 q 199 124 229 122 q 233 92 207 100 q 308 113 260 85 q 320 107 321 115 q 313 93 319 99 q 265 73 290 81 q 213 78 239 65 q 185 101 197 85 q 175 153 174 117 m 261 232 q 233 231 246 238 q 212 212 221 225 q 198 181 203 199 q 193 147 193 164 q 238 150 218 140 q 270 175 258 160 q 281 207 282 190 q 261 232 279 224 m 135 317 q 121 318 128 311 q 119 332 114 325 q 156 376 138 356 q 194 417 175 396 q 210 417 204 424 q 210 401 217 411 q 172 360 190 381 q 135 317 153 340 z "},"ć":{"ha":271,"x_min":7,"x_max":265,"o":"m 171 169 q 161 156 169 161 q 149 163 153 151 q 147 187 147 171 q 142 219 146 203 q 131 247 139 235 q 111 261 124 260 q 81 244 96 263 q 53 198 65 225 q 35 140 42 171 q 35 83 29 108 q 59 43 40 57 q 114 38 78 29 q 183 61 144 44 q 250 96 221 78 q 263 94 261 103 q 257 78 265 85 q 150 22 207 44 q 65 17 96 4 q 20 60 33 29 q 10 130 7 90 q 28 205 14 169 q 67 263 43 240 q 119 282 90 286 q 145 267 136 281 q 160 237 154 254 q 167 201 165 219 q 171 169 169 182 m 69 317 q 56 318 63 311 q 54 332 49 325 q 91 376 72 356 q 129 417 110 396 q 145 417 139 424 q 144 401 151 411 q 106 360 125 381 q 69 317 88 340 z "},"č":{"ha":271,"x_min":7,"x_max":265,"o":"m 171 169 q 161 156 169 161 q 149 163 153 151 q 147 187 147 171 q 142 219 146 203 q 131 247 139 235 q 111 261 124 260 q 81 244 96 263 q 53 198 65 225 q 35 140 42 171 q 35 83 29 108 q 59 43 40 57 q 114 38 78 29 q 183 61 144 44 q 250 96 221 78 q 263 94 261 103 q 257 78 265 85 q 150 22 207 44 q 65 17 96 4 q 20 60 33 29 q 10 130 7 90 q 28 205 14 169 q 67 263 43 240 q 119 282 90 286 q 145 267 136 281 q 160 237 154 254 q 167 201 165 219 q 171 169 169 182 m 54 399 q 58 412 51 407 q 71 411 64 417 q 92 379 83 396 q 110 346 100 363 q 121 396 115 368 q 128 431 126 424 q 140 440 131 442 q 150 428 150 439 q 147 408 150 424 q 139 372 143 392 q 131 337 135 353 q 125 317 126 321 q 106 313 117 301 q 79 355 89 331 q 54 399 69 379 z "},"ç":{"ha":271,"x_min":7,"x_max":265,"o":"m 111 22 q 110 -6 110 8 q 118 -26 111 -19 q 136 -35 125 -33 q 158 -40 147 -37 q 178 -48 169 -43 q 189 -67 186 -53 q 183 -86 190 -76 q 166 -103 176 -96 q 143 -115 156 -111 q 122 -117 131 -119 q 117 -114 119 -117 q 113 -111 114 -112 q 110 -95 104 -103 q 126 -94 117 -87 q 134 -95 129 -97 q 142 -92 139 -93 q 165 -67 161 -79 q 122 -49 138 -56 q 99 -35 107 -43 q 91 -15 92 -28 q 93 22 90 -3 l 111 22 m 171 169 q 161 156 169 161 q 149 163 153 151 q 147 187 147 171 q 142 219 146 203 q 131 247 139 235 q 111 261 124 260 q 81 244 96 263 q 53 198 65 225 q 35 140 42 171 q 35 83 29 108 q 59 43 40 57 q 114 38 78 29 q 183 61 144 44 q 250 96 221 78 q 263 94 261 103 q 257 78 265 85 q 150 22 207 44 q 65 17 96 4 q 20 60 33 29 q 10 130 7 90 q 28 205 14 169 q 67 263 43 240 q 119 282 90 286 q 145 267 136 281 q 160 237 154 254 q 167 201 165 219 q 171 169 169 182 z "},"ĉ":{"ha":271,"x_min":7,"x_max":265,"o":"m 171 169 q 161 156 169 161 q 149 163 153 151 q 147 187 147 171 q 142 219 146 203 q 131 247 139 235 q 111 261 124 260 q 81 244 96 263 q 53 198 65 225 q 35 140 42 171 q 35 83 29 108 q 59 43 40 57 q 114 38 78 29 q 183 61 144 44 q 250 96 221 78 q 263 94 261 103 q 257 78 265 85 q 150 22 207 44 q 65 17 96 4 q 20 60 33 29 q 10 130 7 90 q 28 205 14 169 q 67 263 43 240 q 119 282 90 286 q 145 267 136 281 q 160 237 154 254 q 167 201 165 219 q 171 169 169 182 m 82 324 q 69 314 76 315 q 63 324 63 313 q 76 371 67 346 q 96 415 85 396 q 114 422 103 426 q 124 407 118 418 q 134 383 129 396 q 144 356 139 369 q 153 336 149 343 q 153 319 164 333 l 151 318 q 136 318 143 313 q 119 353 126 331 q 106 390 113 375 q 92 357 99 375 q 82 324 86 339 z "},"ċ":{"ha":271,"x_min":7,"x_max":265,"o":"m 171 169 q 161 156 169 161 q 149 163 153 151 q 147 187 147 171 q 142 219 146 203 q 131 247 139 235 q 111 261 124 260 q 81 244 96 263 q 53 198 65 225 q 35 140 42 171 q 35 83 29 108 q 59 43 40 57 q 114 38 78 29 q 183 61 144 44 q 250 96 221 78 q 263 94 261 103 q 257 78 265 85 q 150 22 207 44 q 65 17 96 4 q 20 60 33 29 q 10 130 7 90 q 28 205 14 169 q 67 263 43 240 q 119 282 90 286 q 145 267 136 281 q 160 237 154 254 q 167 201 165 219 q 171 169 169 182 m 121 350 q 115 332 126 336 q 96 340 103 328 l 96 344 q 103 360 94 356 q 119 354 113 365 l 119 351 q 121 350 119 350 z "},"ď":{"ha":268,"x_min":7,"x_max":254,"o":"m 147 211 q 154 192 156 201 q 149 179 153 182 q 151 134 150 156 q 154 92 151 113 q 159 63 156 83 q 168 23 163 43 q 181 -12 174 3 q 196 -22 188 -26 q 209 -24 207 -15 q 203 -40 211 -33 q 170 -37 183 -53 q 149 4 157 -21 q 138 54 142 29 q 135 85 135 79 q 131 111 132 96 q 128 139 129 126 q 107 108 121 122 q 77 88 93 93 q 44 86 61 82 q 18 111 28 90 q 14 156 7 133 q 39 194 21 178 q 81 220 57 211 q 126 225 104 229 l 114 511 q 123 519 118 517 q 132 515 128 522 q 139 449 136 490 q 143 363 142 408 q 146 277 144 318 q 147 211 147 236 m 82 111 q 113 153 103 131 q 128 201 124 175 q 93 201 113 206 q 58 184 74 196 q 35 156 43 172 q 35 121 26 139 q 54 104 42 108 q 82 111 67 100 m 217 400 q 233 347 221 372 q 249 298 244 321 q 245 256 254 275 q 200 221 236 236 q 185 226 190 218 q 190 240 179 233 q 225 270 219 253 q 225 308 231 288 q 209 351 219 329 q 194 397 199 374 q 204 410 194 408 q 217 400 214 411 z "},"đ":{"ha":229,"x_min":7,"x_max":218,"o":"m 147 211 q 154 192 156 201 q 149 179 153 182 q 151 134 150 156 q 154 92 151 113 q 159 63 156 83 q 168 23 163 43 q 181 -12 174 3 q 196 -22 188 -26 q 209 -24 207 -15 q 203 -40 211 -33 q 170 -37 183 -53 q 149 4 157 -21 q 138 54 142 29 q 135 85 135 79 q 131 111 132 96 q 128 139 129 126 q 107 108 121 122 q 77 88 93 93 q 44 86 61 82 q 18 111 28 90 q 14 156 7 133 q 39 194 21 178 q 81 220 57 211 q 126 225 104 229 l 114 511 q 123 519 118 517 q 132 515 128 522 q 139 449 136 490 q 143 363 142 408 q 146 277 144 318 q 147 211 147 236 m 82 111 q 113 153 103 131 q 128 201 124 175 q 93 201 113 206 q 58 184 74 196 q 35 156 43 172 q 35 121 26 139 q 54 104 42 108 q 82 111 67 100 m 65 275 q 56 285 56 278 q 65 297 57 292 l 204 306 q 217 297 215 306 q 207 285 218 288 l 65 275 z "},"é":{"ha":172,"x_min":13,"x_max":160,"o":"m 14 140 q 24 185 15 163 q 46 222 32 207 q 76 244 60 238 q 111 240 93 250 q 144 202 140 225 q 133 159 147 179 q 94 124 119 139 q 38 111 68 110 q 72 80 46 88 q 147 100 99 72 q 159 94 160 103 q 151 81 158 86 q 103 60 129 68 q 51 65 78 53 q 24 88 36 72 q 14 140 13 104 m 100 219 q 72 219 85 225 q 51 199 60 213 q 37 169 42 186 q 32 135 32 151 q 77 138 57 128 q 109 163 97 147 q 119 194 121 178 q 100 219 118 211 m 43 268 q 29 269 36 263 q 28 283 22 276 q 65 327 46 307 q 103 368 83 347 q 119 369 113 375 q 118 353 125 363 q 80 312 99 332 q 43 268 61 292 z "},"ĕ":{"ha":172,"x_min":13,"x_max":160,"o":"m 14 140 q 24 185 15 163 q 46 222 32 207 q 76 244 60 238 q 111 240 93 250 q 144 202 140 225 q 133 159 147 179 q 94 124 119 139 q 38 111 68 110 q 72 80 46 88 q 147 100 99 72 q 159 94 160 103 q 151 81 158 86 q 103 60 129 68 q 51 65 78 53 q 24 88 36 72 q 14 140 13 104 m 100 219 q 72 219 85 225 q 51 199 60 213 q 37 169 42 186 q 32 135 32 151 q 77 138 57 128 q 109 163 97 147 q 119 194 121 178 q 100 219 118 211 m 25 340 q 34 353 25 350 q 46 346 43 356 q 63 309 51 321 q 86 298 74 297 q 109 312 99 299 q 124 349 119 325 q 138 357 128 360 q 146 343 149 354 q 123 294 140 311 q 86 276 106 278 q 49 291 67 275 q 25 340 31 307 z "},"ě":{"ha":172,"x_min":13,"x_max":160,"o":"m 14 140 q 24 185 15 163 q 46 222 32 207 q 76 244 60 238 q 111 240 93 250 q 144 202 140 225 q 133 159 147 179 q 94 124 119 139 q 38 111 68 110 q 72 80 46 88 q 147 100 99 72 q 159 94 160 103 q 151 81 158 86 q 103 60 129 68 q 51 65 78 53 q 24 88 36 72 q 14 140 13 104 m 100 219 q 72 219 85 225 q 51 199 60 213 q 37 169 42 186 q 32 135 32 151 q 77 138 57 128 q 109 163 97 147 q 119 194 121 178 q 100 219 118 211 m 21 363 q 24 376 18 371 q 38 375 31 381 q 58 343 50 360 q 76 310 67 326 q 88 360 82 332 q 94 394 93 388 q 107 404 97 406 q 117 392 117 403 q 113 372 117 388 q 106 336 110 356 q 97 301 101 317 q 92 281 93 285 q 72 276 83 265 q 46 319 56 294 q 21 363 36 343 z "},"ê":{"ha":172,"x_min":13,"x_max":160,"o":"m 14 140 q 24 185 15 163 q 46 222 32 207 q 76 244 60 238 q 111 240 93 250 q 144 202 140 225 q 133 159 147 179 q 94 124 119 139 q 38 111 68 110 q 72 80 46 88 q 147 100 99 72 q 159 94 160 103 q 151 81 158 86 q 103 60 129 68 q 51 65 78 53 q 24 88 36 72 q 14 140 13 104 m 100 219 q 72 219 85 225 q 51 199 60 213 q 37 169 42 186 q 32 135 32 151 q 77 138 57 128 q 109 163 97 147 q 119 194 121 178 q 100 219 118 211 m 56 288 q 43 278 50 279 q 36 288 36 276 q 49 335 40 310 q 69 379 58 360 q 88 386 76 390 q 97 371 92 382 q 108 347 103 360 q 117 320 113 333 q 126 300 122 307 q 126 283 138 297 l 125 282 q 110 282 117 276 q 93 317 100 294 q 79 354 86 339 q 66 321 72 339 q 56 288 60 303 z "},"ë":{"ha":172,"x_min":13,"x_max":160,"o":"m 14 140 q 24 185 15 163 q 46 222 32 207 q 76 244 60 238 q 111 240 93 250 q 144 202 140 225 q 133 159 147 179 q 94 124 119 139 q 38 111 68 110 q 72 80 46 88 q 147 100 99 72 q 159 94 160 103 q 151 81 158 86 q 103 60 129 68 q 51 65 78 53 q 24 88 36 72 q 14 140 13 104 m 100 219 q 72 219 85 225 q 51 199 60 213 q 37 169 42 186 q 32 135 32 151 q 77 138 57 128 q 109 163 97 147 q 119 194 121 178 q 100 219 118 211 m 65 315 q 54 299 65 300 q 40 314 43 299 l 40 318 q 54 332 43 333 q 65 317 65 331 l 65 315 m 125 326 q 119 308 131 313 q 101 317 107 304 l 101 318 q 100 321 101 318 q 108 337 99 332 q 124 331 117 342 l 124 328 q 125 326 124 326 z "},"ė":{"ha":172,"x_min":13,"x_max":160,"o":"m 14 140 q 24 185 15 163 q 46 222 32 207 q 76 244 60 238 q 111 240 93 250 q 144 202 140 225 q 133 159 147 179 q 94 124 119 139 q 38 111 68 110 q 72 80 46 88 q 147 100 99 72 q 159 94 160 103 q 151 81 158 86 q 103 60 129 68 q 51 65 78 53 q 24 88 36 72 q 14 140 13 104 m 100 219 q 72 219 85 225 q 51 199 60 213 q 37 169 42 186 q 32 135 32 151 q 77 138 57 128 q 109 163 97 147 q 119 194 121 178 q 100 219 118 211 m 96 314 q 90 296 101 300 q 71 304 78 292 l 71 308 q 78 324 69 319 q 94 318 88 329 l 94 315 q 96 314 94 314 z "},"è":{"ha":172,"x_min":13,"x_max":160,"o":"m 14 140 q 24 185 15 163 q 46 222 32 207 q 76 244 60 238 q 111 240 93 250 q 144 202 140 225 q 133 159 147 179 q 94 124 119 139 q 38 111 68 110 q 72 80 46 88 q 147 100 99 72 q 159 94 160 103 q 151 81 158 86 q 103 60 129 68 q 51 65 78 53 q 24 88 36 72 q 14 140 13 104 m 100 219 q 72 219 85 225 q 51 199 60 213 q 37 169 42 186 q 32 135 32 151 q 77 138 57 128 q 109 163 97 147 q 119 194 121 178 q 100 219 118 211 m 57 331 q 55 347 49 339 q 71 347 61 354 q 96 321 85 335 q 119 293 107 307 q 119 278 126 283 q 103 279 113 272 q 81 306 92 292 q 57 331 71 319 z "},"ē":{"ha":172,"x_min":1,"x_max":160,"o":"m 14 140 q 24 185 15 163 q 46 222 32 207 q 76 244 60 238 q 111 240 93 250 q 144 202 140 225 q 133 159 147 179 q 94 124 119 139 q 38 111 68 110 q 72 80 46 88 q 147 100 99 72 q 159 94 160 103 q 151 81 158 86 q 103 60 129 68 q 51 65 78 53 q 24 88 36 72 q 14 140 13 104 m 100 219 q 72 219 85 225 q 51 199 60 213 q 37 169 42 186 q 32 135 32 151 q 77 138 57 128 q 109 163 97 147 q 119 194 121 178 q 100 219 118 211 m 11 293 q 1 302 1 294 q 10 314 1 310 q 74 319 42 319 q 140 317 107 319 q 150 306 150 314 q 139 294 150 297 q 76 297 107 297 q 11 293 44 297 z "},"ę":{"ha":206,"x_min":13,"x_max":197,"o":"m 14 140 q 24 185 15 163 q 46 222 32 207 q 76 244 60 238 q 111 240 93 250 q 144 202 140 225 q 133 159 147 179 q 94 124 119 139 q 38 111 68 110 q 72 80 46 88 q 147 100 99 72 q 159 94 160 103 q 151 81 158 86 q 103 60 129 68 q 51 65 78 53 q 24 88 36 72 q 14 140 13 104 m 100 219 q 72 219 85 225 q 51 199 60 213 q 37 169 42 186 q 32 135 32 151 q 77 138 57 128 q 109 163 97 147 q 119 194 121 178 q 100 219 118 211 m 142 99 q 159 99 153 106 q 158 83 165 93 q 139 52 147 68 q 126 17 131 36 q 140 18 132 15 q 156 24 147 21 q 171 31 164 28 q 182 38 178 35 q 194 29 192 38 q 188 15 197 21 q 127 -5 146 -6 q 106 10 108 -4 q 115 47 104 24 q 142 99 125 71 z "},"ğ":{"ha":215,"x_min":-117,"x_max":393,"o":"m 199 168 q 192 152 201 158 q 179 157 183 146 q 163 192 175 182 q 186 66 169 124 q 218 -49 203 8 q 272 -33 243 -40 q 324 -23 300 -25 q 367 -26 349 -21 q 390 -46 385 -31 q 384 -61 393 -54 q 369 -57 375 -68 q 345 -44 365 -44 q 301 -48 325 -43 q 256 -60 278 -53 q 225 -68 233 -67 q 244 -131 233 -96 q 266 -206 256 -167 q 282 -287 276 -246 q 285 -367 288 -328 q 260 -453 281 -418 q 205 -508 239 -487 q 127 -532 171 -528 q 35 -525 83 -536 q -19 -508 7 -519 q -66 -479 -46 -496 q -99 -441 -86 -462 q -112 -394 -111 -419 q -89 -282 -117 -335 q -15 -185 -61 -229 q 88 -109 32 -142 q 196 -57 144 -76 q 167 40 181 -8 q 143 138 153 89 q 123 101 139 122 q 88 65 107 81 q 31 56 54 39 q 14 115 7 72 q 28 155 17 136 q 56 188 39 174 q 91 213 72 203 q 128 225 110 222 q 128 296 125 260 q 139 308 131 303 q 154 306 147 313 q 167 260 164 282 q 167 217 169 239 q 199 168 193 203 m 40 -501 q 118 -509 81 -511 q 185 -491 156 -507 q 235 -444 215 -475 q 261 -367 256 -414 q 261 -296 265 -332 q 248 -222 257 -260 q 226 -148 239 -185 q 203 -75 214 -111 q 108 -120 161 -87 q 7 -197 54 -153 q -69 -293 -40 -242 q -90 -396 -99 -344 q -45 -463 -83 -436 q 40 -501 -7 -490 m 138 165 q 133 184 135 175 q 131 204 132 193 q 64 168 86 192 q 36 121 42 144 q 35 101 33 111 q 42 83 36 90 q 56 74 47 75 q 76 81 64 72 q 138 165 101 100 m 18 361 q 27 374 18 371 q 39 367 36 376 q 56 330 44 342 q 79 319 67 318 q 102 333 92 319 q 117 369 113 346 q 131 378 121 381 q 139 364 142 375 q 116 315 133 332 q 79 297 99 299 q 42 312 60 296 q 18 361 24 328 z "},"ĝ":{"ha":215,"x_min":-117,"x_max":393,"o":"m 199 168 q 192 152 201 158 q 179 157 183 146 q 163 192 175 182 q 186 66 169 124 q 218 -49 203 8 q 272 -33 243 -40 q 324 -23 300 -25 q 367 -26 349 -21 q 390 -46 385 -31 q 384 -61 393 -54 q 369 -57 375 -68 q 345 -44 365 -44 q 301 -48 325 -43 q 256 -60 278 -53 q 225 -68 233 -67 q 244 -131 233 -96 q 266 -206 256 -167 q 282 -287 276 -246 q 285 -367 288 -328 q 260 -453 281 -418 q 205 -508 239 -487 q 127 -532 171 -528 q 35 -525 83 -536 q -19 -508 7 -519 q -66 -479 -46 -496 q -99 -441 -86 -462 q -112 -394 -111 -419 q -89 -282 -117 -335 q -15 -185 -61 -229 q 88 -109 32 -142 q 196 -57 144 -76 q 167 40 181 -8 q 143 138 153 89 q 123 101 139 122 q 88 65 107 81 q 31 56 54 39 q 14 115 7 72 q 28 155 17 136 q 56 188 39 174 q 91 213 72 203 q 128 225 110 222 q 128 296 125 260 q 139 308 131 303 q 154 306 147 313 q 167 260 164 282 q 167 217 169 239 q 199 168 193 203 m 40 -501 q 118 -509 81 -511 q 185 -491 156 -507 q 235 -444 215 -475 q 261 -367 256 -414 q 261 -296 265 -332 q 248 -222 257 -260 q 226 -148 239 -185 q 203 -75 214 -111 q 108 -120 161 -87 q 7 -197 54 -153 q -69 -293 -40 -242 q -90 -396 -99 -344 q -45 -463 -83 -436 q 40 -501 -7 -490 m 138 165 q 133 184 135 175 q 131 204 132 193 q 64 168 86 192 q 36 121 42 144 q 35 101 33 111 q 42 83 36 90 q 56 74 47 75 q 76 81 64 72 q 138 165 101 100 m 49 306 q 36 296 43 297 q 29 306 29 294 q 42 353 33 328 q 63 397 51 378 q 81 404 69 408 q 90 389 85 400 q 101 365 96 378 q 110 338 106 351 q 119 318 115 325 q 119 301 131 315 l 118 300 q 103 300 110 294 q 86 335 93 313 q 72 372 79 357 q 59 339 65 357 q 49 306 53 321 z "},"ģ":{"ha":215,"x_min":-117,"x_max":393,"o":"m 199 168 q 192 152 201 158 q 179 157 183 146 q 163 192 175 182 q 186 66 169 124 q 218 -49 203 8 q 272 -33 243 -40 q 324 -23 300 -25 q 367 -26 349 -21 q 390 -46 385 -31 q 384 -61 393 -54 q 369 -57 375 -68 q 345 -44 365 -44 q 301 -48 325 -43 q 256 -60 278 -53 q 225 -68 233 -67 q 244 -131 233 -96 q 266 -206 256 -167 q 282 -287 276 -246 q 285 -367 288 -328 q 260 -453 281 -418 q 205 -508 239 -487 q 127 -532 171 -528 q 35 -525 83 -536 q -19 -508 7 -519 q -66 -479 -46 -496 q -99 -441 -86 -462 q -112 -394 -111 -419 q -89 -282 -117 -335 q -15 -185 -61 -229 q 88 -109 32 -142 q 196 -57 144 -76 q 167 40 181 -8 q 143 138 153 89 q 123 101 139 122 q 88 65 107 81 q 31 56 54 39 q 14 115 7 72 q 28 155 17 136 q 56 188 39 174 q 91 213 72 203 q 128 225 110 222 q 128 296 125 260 q 139 308 131 303 q 154 306 147 313 q 167 260 164 282 q 167 217 169 239 q 199 168 193 203 m 40 -501 q 118 -509 81 -511 q 185 -491 156 -507 q 235 -444 215 -475 q 261 -367 256 -414 q 261 -296 265 -332 q 248 -222 257 -260 q 226 -148 239 -185 q 203 -75 214 -111 q 108 -120 161 -87 q 7 -197 54 -153 q -69 -293 -40 -242 q -90 -396 -99 -344 q -45 -463 -83 -436 q 40 -501 -7 -490 m 138 165 q 133 184 135 175 q 131 204 132 193 q 64 168 86 192 q 36 121 42 144 q 35 101 33 111 q 42 83 36 90 q 56 74 47 75 q 76 81 64 72 q 138 165 101 100 m 50 429 q 63 439 53 440 q 72 426 72 438 q 58 381 68 403 q 42 338 47 358 q 42 299 36 317 q 76 269 47 282 q 82 255 88 263 q 67 250 76 247 q 22 285 31 265 q 17 327 13 304 q 34 376 22 350 q 50 429 46 401 z "}}}
